<svg xmlns="http://www.w3.org/2000/svg" xmlns:xlink="http://www.w3.org/1999/xlink" width="869" height="387" viewBox="0 0 869 387">
  <defs>
    <filter id="Trazado_721350" x="0" y="115" width="158" height="68" filterUnits="userSpaceOnUse">
      <feOffset dx="2" dy="2" input="SourceAlpha"/>
      <feGaussianBlur stdDeviation="3" result="blur"/>
      <feFlood flood-opacity="0.161"/>
      <feComposite operator="in" in2="blur"/>
      <feComposite in="SourceGraphic"/>
    </filter>
    <filter id="Trazado_721351" x="180" y="115" width="158" height="68" filterUnits="userSpaceOnUse">
      <feOffset dx="2" dy="2" input="SourceAlpha"/>
      <feGaussianBlur stdDeviation="3" result="blur-2"/>
      <feFlood flood-opacity="0.161"/>
      <feComposite operator="in" in2="blur-2"/>
      <feComposite in="SourceGraphic"/>
    </filter>
    <filter id="Trazado_721348" x="0" y="319" width="158" height="68" filterUnits="userSpaceOnUse">
      <feOffset dx="2" dy="2" input="SourceAlpha"/>
      <feGaussianBlur stdDeviation="3" result="blur-3"/>
      <feFlood flood-opacity="0.161"/>
      <feComposite operator="in" in2="blur-3"/>
      <feComposite in="SourceGraphic"/>
    </filter>
    <filter id="Trazado_721352" x="358" y="115" width="158" height="68" filterUnits="userSpaceOnUse">
      <feOffset dx="2" dy="2" input="SourceAlpha"/>
      <feGaussianBlur stdDeviation="3" result="blur-4"/>
      <feFlood flood-opacity="0.161"/>
      <feComposite operator="in" in2="blur-4"/>
      <feComposite in="SourceGraphic"/>
    </filter>
    <filter id="Trazado_721342" x="178" y="319" width="158" height="68" filterUnits="userSpaceOnUse">
      <feOffset dx="2" dy="2" input="SourceAlpha"/>
      <feGaussianBlur stdDeviation="3" result="blur-5"/>
      <feFlood flood-opacity="0.161"/>
      <feComposite operator="in" in2="blur-5"/>
      <feComposite in="SourceGraphic"/>
    </filter>
    <filter id="Trazado_721353" x="532" y="115" width="158" height="68" filterUnits="userSpaceOnUse">
      <feOffset dx="2" dy="2" input="SourceAlpha"/>
      <feGaussianBlur stdDeviation="3" result="blur-6"/>
      <feFlood flood-opacity="0.161"/>
      <feComposite operator="in" in2="blur-6"/>
      <feComposite in="SourceGraphic"/>
    </filter>
    <filter id="Trazado_721340" x="352" y="319" width="158" height="68" filterUnits="userSpaceOnUse">
      <feOffset dx="2" dy="2" input="SourceAlpha"/>
      <feGaussianBlur stdDeviation="3" result="blur-7"/>
      <feFlood flood-opacity="0.161"/>
      <feComposite operator="in" in2="blur-7"/>
      <feComposite in="SourceGraphic"/>
    </filter>
    <filter id="Trazado_721354" x="711" y="115" width="158" height="68" filterUnits="userSpaceOnUse">
      <feOffset dx="2" dy="2" input="SourceAlpha"/>
      <feGaussianBlur stdDeviation="3" result="blur-8"/>
      <feFlood flood-opacity="0.161"/>
      <feComposite operator="in" in2="blur-8"/>
      <feComposite in="SourceGraphic"/>
    </filter>
    <filter id="Trazado_721363" x="341" y="0" width="187" height="73" filterUnits="userSpaceOnUse">
      <feOffset dx="2" dy="2" input="SourceAlpha"/>
      <feGaussianBlur stdDeviation="3" result="blur-9"/>
      <feFlood flood-opacity="0.161"/>
      <feComposite operator="in" in2="blur-9"/>
      <feComposite in="SourceGraphic"/>
    </filter>
    <filter id="Trazado_721345" x="161" y="204" width="187" height="73" filterUnits="userSpaceOnUse">
      <feOffset dx="2" dy="2" input="SourceAlpha"/>
      <feGaussianBlur stdDeviation="3" result="blur-10"/>
      <feFlood flood-opacity="0.161"/>
      <feComposite operator="in" in2="blur-10"/>
      <feComposite in="SourceGraphic"/>
    </filter>
    <filter id="Trazado_720574" x="555" y="204" width="187" height="73" filterUnits="userSpaceOnUse">
      <feOffset dx="2" dy="2" input="SourceAlpha"/>
      <feGaussianBlur stdDeviation="3" result="blur-11"/>
      <feFlood flood-opacity="0.161"/>
      <feComposite operator="in" in2="blur-11"/>
      <feComposite in="SourceGraphic"/>
    </filter>
  </defs>
  <g id="Grupo_1008844" data-name="Grupo 1008844" transform="translate(-525 -6725)">
    <path id="Trazado_720571" data-name="Trazado 720571" d="M-3907.5-4827.8v-31.133h695v27.133" transform="translate(4518 11683)" fill="none" stroke="#727997" stroke-linecap="round" stroke-linejoin="round" stroke-width="2" stroke-dasharray="0 4"/>
    <path id="Trazado_720572" data-name="Trazado 720572" d="M-3907.5-4827.8v-31.133h352v27.133" transform="translate(4509.5 11887)" fill="none" stroke="#727997" stroke-linecap="round" stroke-linejoin="round" stroke-width="2" stroke-dasharray="0 4"/>
    <path id="Trazado_721360" data-name="Trazado 721360" d="M0,0V85" transform="translate(957.5 6775.5)" fill="none" stroke="#727997" stroke-linecap="round" stroke-width="2" stroke-dasharray="0 4"/>
    <path id="Trazado_721344" data-name="Trazado 721344" d="M0,0V85" transform="translate(777.5 6979.5)" fill="none" stroke="#727997" stroke-linecap="round" stroke-width="2" stroke-dasharray="0 4"/>
    <path id="Trazado_721361" data-name="Trazado 721361" d="M0,31V0" transform="translate(784.5 6824.5)" fill="none" stroke="#727997" stroke-linecap="round" stroke-width="2" stroke-dasharray="0 4"/>
    <path id="Trazado_721362" data-name="Trazado 721362" d="M0,31V0" transform="translate(1131.5 6824.5)" fill="none" stroke="#727997" stroke-linecap="round" stroke-width="2" stroke-dasharray="0 4"/>
    <g transform="matrix(1, 0, 0, 1, 525, 6725)" filter="url(#Trazado_721350)">
      <g id="Trazado_721350-2" data-name="Trazado 721350" transform="translate(7 122)" fill="#dff5ff">
        <path d="M 130 49 L 10 49 C 5.037381649017334 49 1 44.96261978149414 1 40 L 1 10 C 1 5.037381649017334 5.037381649017334 1 10 1 L 130 1 C 134.9626159667969 1 139 5.037381649017334 139 10 L 139 40 C 139 44.96261978149414 134.9626159667969 49 130 49 Z" stroke="none"/>
        <path d="M 10 2 C 5.588775634765625 2 2 5.588779449462891 2 10 L 2 40 C 2 44.41122055053711 5.588775634765625 48 10 48 L 130 48 C 134.4112243652344 48 138 44.41122055053711 138 40 L 138 10 C 138 5.588779449462891 134.4112243652344 2 130 2 L 10 2 M 10 0 L 130 0 C 135.5228424072266 0 140 4.477161407470703 140 10 L 140 40 C 140 45.5228385925293 135.5228424072266 50 130 50 L 10 50 C 4.477157592773438 50 0 45.5228385925293 0 40 L 0 10 C 0 4.477161407470703 4.477157592773438 0 10 0 Z" stroke="none" fill="#fff"/>
      </g>
    </g>
    <g transform="matrix(1, 0, 0, 1, 525, 6725)" filter="url(#Trazado_721351)">
      <g id="Trazado_721351-2" data-name="Trazado 721351" transform="translate(187 122)" fill="#dff5ff">
        <path d="M 130 49 L 10 49 C 5.037381649017334 49 1 44.96261978149414 1 40 L 1 10 C 1 5.037381649017334 5.037381649017334 1 10 1 L 130 1 C 134.9626159667969 1 139 5.037381649017334 139 10 L 139 40 C 139 44.96261978149414 134.9626159667969 49 130 49 Z" stroke="none"/>
        <path d="M 10 2 C 5.588775634765625 2 2 5.588779449462891 2 10 L 2 40 C 2 44.41122055053711 5.588775634765625 48 10 48 L 130 48 C 134.4112243652344 48 138 44.41122055053711 138 40 L 138 10 C 138 5.588779449462891 134.4112243652344 2 130 2 L 10 2 M 10 0 L 130 0 C 135.5228424072266 0 140 4.477161407470703 140 10 L 140 40 C 140 45.5228385925293 135.5228424072266 50 130 50 L 10 50 C 4.477157592773438 50 0 45.5228385925293 0 40 L 0 10 C 0 4.477161407470703 4.477157592773438 0 10 0 Z" stroke="none" fill="#fff"/>
      </g>
    </g>
    <g transform="matrix(1, 0, 0, 1, 525, 6725)" filter="url(#Trazado_721348)">
      <g id="Trazado_721348-2" data-name="Trazado 721348" transform="translate(7 326)" fill="#dff5ff">
        <path d="M 130 49 L 10 49 C 5.037381649017334 49 1 44.96261978149414 1 40 L 1 10 C 1 5.037381649017334 5.037381649017334 1 10 1 L 130 1 C 134.9626159667969 1 139 5.037381649017334 139 10 L 139 40 C 139 44.96261978149414 134.9626159667969 49 130 49 Z" stroke="none"/>
        <path d="M 10 2 C 5.588775634765625 2 2 5.588779449462891 2 10 L 2 40 C 2 44.41122055053711 5.588775634765625 48 10 48 L 130 48 C 134.4112243652344 48 138 44.41122055053711 138 40 L 138 10 C 138 5.588779449462891 134.4112243652344 2 130 2 L 10 2 M 10 0 L 130 0 C 135.5228424072266 0 140 4.477161407470703 140 10 L 140 40 C 140 45.5228385925293 135.5228424072266 50 130 50 L 10 50 C 4.477157592773438 50 0 45.5228385925293 0 40 L 0 10 C 0 4.477161407470703 4.477157592773438 0 10 0 Z" stroke="none" fill="#fff"/>
      </g>
    </g>
    <g transform="matrix(1, 0, 0, 1, 525, 6725)" filter="url(#Trazado_721352)">
      <g id="Trazado_721352-2" data-name="Trazado 721352" transform="translate(365 122)" fill="#dff5ff">
        <path d="M 130 49 L 10 49 C 5.037381649017334 49 1 44.96261978149414 1 40 L 1 10 C 1 5.037381649017334 5.037381649017334 1 10 1 L 130 1 C 134.9626159667969 1 139 5.037381649017334 139 10 L 139 40 C 139 44.96261978149414 134.9626159667969 49 130 49 Z" stroke="none"/>
        <path d="M 10 2 C 5.588775634765625 2 2 5.588779449462891 2 10 L 2 40 C 2 44.41122055053711 5.588775634765625 48 10 48 L 130 48 C 134.4112243652344 48 138 44.41122055053711 138 40 L 138 10 C 138 5.588779449462891 134.4112243652344 2 130 2 L 10 2 M 10 0 L 130 0 C 135.5228424072266 0 140 4.477161407470703 140 10 L 140 40 C 140 45.5228385925293 135.5228424072266 50 130 50 L 10 50 C 4.477157592773438 50 0 45.5228385925293 0 40 L 0 10 C 0 4.477161407470703 4.477157592773438 0 10 0 Z" stroke="none" fill="#fff"/>
      </g>
    </g>
    <g transform="matrix(1, 0, 0, 1, 525, 6725)" filter="url(#Trazado_721342)">
      <g id="Trazado_721342-2" data-name="Trazado 721342" transform="translate(185 326)" fill="#dff5ff">
        <path d="M 130 49 L 10 49 C 5.037381649017334 49 1 44.96261978149414 1 40 L 1 10 C 1 5.037381649017334 5.037381649017334 1 10 1 L 130 1 C 134.9626159667969 1 139 5.037381649017334 139 10 L 139 40 C 139 44.96261978149414 134.9626159667969 49 130 49 Z" stroke="none"/>
        <path d="M 10 2 C 5.588775634765625 2 2 5.588779449462891 2 10 L 2 40 C 2 44.41122055053711 5.588775634765625 48 10 48 L 130 48 C 134.4112243652344 48 138 44.41122055053711 138 40 L 138 10 C 138 5.588779449462891 134.4112243652344 2 130 2 L 10 2 M 10 0 L 130 0 C 135.5228424072266 0 140 4.477161407470703 140 10 L 140 40 C 140 45.5228385925293 135.5228424072266 50 130 50 L 10 50 C 4.477157592773438 50 0 45.5228385925293 0 40 L 0 10 C 0 4.477161407470703 4.477157592773438 0 10 0 Z" stroke="none" fill="#fff"/>
      </g>
    </g>
    <g transform="matrix(1, 0, 0, 1, 525, 6725)" filter="url(#Trazado_721353)">
      <g id="Trazado_721353-2" data-name="Trazado 721353" transform="translate(539 122)" fill="#dff5ff">
        <path d="M 130 49 L 10 49 C 5.037381649017334 49 1 44.96261978149414 1 40 L 1 10 C 1 5.037381649017334 5.037381649017334 1 10 1 L 130 1 C 134.9626159667969 1 139 5.037381649017334 139 10 L 139 40 C 139 44.96261978149414 134.9626159667969 49 130 49 Z" stroke="none"/>
        <path d="M 10 2 C 5.588775634765625 2 2 5.588779449462891 2 10 L 2 40 C 2 44.41122055053711 5.588775634765625 48 10 48 L 130 48 C 134.4112243652344 48 138 44.41122055053711 138 40 L 138 10 C 138 5.588779449462891 134.4112243652344 2 130 2 L 10 2 M 10 0 L 130 0 C 135.5228424072266 0 140 4.477161407470703 140 10 L 140 40 C 140 45.5228385925293 135.5228424072266 50 130 50 L 10 50 C 4.477157592773438 50 0 45.5228385925293 0 40 L 0 10 C 0 4.477161407470703 4.477157592773438 0 10 0 Z" stroke="none" fill="#fff"/>
      </g>
    </g>
    <g transform="matrix(1, 0, 0, 1, 525, 6725)" filter="url(#Trazado_721340)">
      <g id="Trazado_721340-2" data-name="Trazado 721340" transform="translate(359 326)" fill="#dff5ff">
        <path d="M 130 49 L 10 49 C 5.037381649017334 49 1 44.96261978149414 1 40 L 1 10 C 1 5.037381649017334 5.037381649017334 1 10 1 L 130 1 C 134.9626159667969 1 139 5.037381649017334 139 10 L 139 40 C 139 44.96261978149414 134.9626159667969 49 130 49 Z" stroke="none"/>
        <path d="M 10 2 C 5.588775634765625 2 2 5.588779449462891 2 10 L 2 40 C 2 44.41122055053711 5.588775634765625 48 10 48 L 130 48 C 134.4112243652344 48 138 44.41122055053711 138 40 L 138 10 C 138 5.588779449462891 134.4112243652344 2 130 2 L 10 2 M 10 0 L 130 0 C 135.5228424072266 0 140 4.477161407470703 140 10 L 140 40 C 140 45.5228385925293 135.5228424072266 50 130 50 L 10 50 C 4.477157592773438 50 0 45.5228385925293 0 40 L 0 10 C 0 4.477161407470703 4.477157592773438 0 10 0 Z" stroke="none" fill="#fff"/>
      </g>
    </g>
    <g transform="matrix(1, 0, 0, 1, 525, 6725)" filter="url(#Trazado_721354)">
      <g id="Trazado_721354-2" data-name="Trazado 721354" transform="translate(718 122)" fill="#dff5ff">
        <path d="M 130 49 L 10 49 C 5.037381649017334 49 1 44.96261978149414 1 40 L 1 10 C 1 5.037381649017334 5.037381649017334 1 10 1 L 130 1 C 134.9626159667969 1 139 5.037381649017334 139 10 L 139 40 C 139 44.96261978149414 134.9626159667969 49 130 49 Z" stroke="none"/>
        <path d="M 10 2 C 5.588775634765625 2 2 5.588779449462891 2 10 L 2 40 C 2 44.41122055053711 5.588775634765625 48 10 48 L 130 48 C 134.4112243652344 48 138 44.41122055053711 138 40 L 138 10 C 138 5.588779449462891 134.4112243652344 2 130 2 L 10 2 M 10 0 L 130 0 C 135.5228424072266 0 140 4.477161407470703 140 10 L 140 40 C 140 45.5228385925293 135.5228424072266 50 130 50 L 10 50 C 4.477157592773438 50 0 45.5228385925293 0 40 L 0 10 C 0 4.477161407470703 4.477157592773438 0 10 0 Z" stroke="none" fill="#fff"/>
      </g>
    </g>
    <path id="Trazado_721357" data-name="Trazado 721357" d="M21.99,4.12h-3.2V13H17.485V4.12H14.292V3.047h7.7Zm3.671,9.017a3.232,3.232,0,0,1-2.447-.988,3.666,3.666,0,0,1-.943-2.642V9.274a4.438,4.438,0,0,1,.42-1.965,3.28,3.28,0,0,1,1.176-1.354A2.956,2.956,0,0,1,25.5,5.467a2.77,2.77,0,0,1,2.242.95,4.114,4.114,0,0,1,.8,2.721v.526H23.535a2.629,2.629,0,0,0,.639,1.767,2.009,2.009,0,0,0,1.555.673,2.2,2.2,0,0,0,1.135-.273,2.851,2.851,0,0,0,.813-.725l.772.6A3.106,3.106,0,0,1,25.661,13.137ZM25.5,6.506a1.687,1.687,0,0,0-1.285.557,2.708,2.708,0,0,0-.643,1.562h3.705v-.1a2.409,2.409,0,0,0-.52-1.494A1.588,1.588,0,0,0,25.5,6.506ZM31.2,5.6l.034.82a2.732,2.732,0,0,1,2.194-.957,2.115,2.115,0,0,1,2.112,1.189,2.8,2.8,0,0,1,.96-.861,2.837,2.837,0,0,1,1.4-.328q2.434,0,2.475,2.577V13H39.107V8.119a1.7,1.7,0,0,0-.362-1.186,1.6,1.6,0,0,0-1.217-.393,1.677,1.677,0,0,0-1.169.42,1.706,1.706,0,0,0-.54,1.131V13H34.547V8.153A1.411,1.411,0,0,0,32.968,6.54a1.692,1.692,0,0,0-1.7,1.06V13H30V5.6Zm17.329,3.78a4.429,4.429,0,0,1-.772,2.721,2.476,2.476,0,0,1-2.092,1.032,2.713,2.713,0,0,1-2.119-.854v3.562H42.279V5.6h1.155l.062.82a2.605,2.605,0,0,1,2.146-.957,2.522,2.522,0,0,1,2.109,1,4.477,4.477,0,0,1,.776,2.8ZM47.262,9.24a3.268,3.268,0,0,0-.533-1.976,1.718,1.718,0,0,0-1.463-.725,1.859,1.859,0,0,0-1.723,1.019v3.534A1.863,1.863,0,0,0,45.28,12.1a1.71,1.71,0,0,0,1.446-.721A3.567,3.567,0,0,0,47.262,9.24Zm5.94,3.9a3.232,3.232,0,0,1-2.447-.988,3.666,3.666,0,0,1-.943-2.642V9.274a4.438,4.438,0,0,1,.42-1.965,3.28,3.28,0,0,1,1.176-1.354,2.956,2.956,0,0,1,1.637-.489,2.77,2.77,0,0,1,2.242.95,4.114,4.114,0,0,1,.8,2.721v.526H51.077a2.629,2.629,0,0,0,.639,1.767,2.009,2.009,0,0,0,1.555.673,2.2,2.2,0,0,0,1.135-.273,2.851,2.851,0,0,0,.813-.725l.772.6A3.106,3.106,0,0,1,53.2,13.137Zm-.157-6.631a1.687,1.687,0,0,0-1.285.557,2.708,2.708,0,0,0-.643,1.562h3.705v-.1a2.409,2.409,0,0,0-.52-1.494A1.588,1.588,0,0,0,53.045,6.506Zm8.08.232A3.79,3.79,0,0,0,60.5,6.69a1.667,1.667,0,0,0-1.688,1.06V13H57.55V5.6h1.23l.021.854a1.969,1.969,0,0,1,1.764-.991,1.292,1.292,0,0,1,.561.1ZM66.581,13a2.657,2.657,0,0,1-.178-.779,2.822,2.822,0,0,1-2.105.916,2.611,2.611,0,0,1-1.794-.619,2,2,0,0,1-.7-1.569,2.091,2.091,0,0,1,.878-1.794,4.142,4.142,0,0,1,2.471-.639h1.23V7.935a1.42,1.42,0,0,0-.4-1.056,1.593,1.593,0,0,0-1.169-.393,1.844,1.844,0,0,0-1.135.342,1.007,1.007,0,0,0-.458.827H61.953a1.745,1.745,0,0,1,.393-1.07,2.683,2.683,0,0,1,1.066-.817,3.588,3.588,0,0,1,1.48-.3,2.924,2.924,0,0,1,2,.639,2.306,2.306,0,0,1,.752,1.76v3.4a4.162,4.162,0,0,0,.26,1.62V13Zm-2.1-.964a2.223,2.223,0,0,0,1.128-.308,1.861,1.861,0,0,0,.772-.8V9.411h-.991q-2.324,0-2.324,1.36a1.151,1.151,0,0,0,.4.93A1.524,1.524,0,0,0,64.482,12.036Zm6.863-8.224V5.6h1.381v.978H71.345v4.593a1.027,1.027,0,0,0,.185.667.777.777,0,0,0,.629.222,3.062,3.062,0,0,0,.6-.082V13a3.688,3.688,0,0,1-.971.136,1.575,1.575,0,0,1-1.278-.513,2.2,2.2,0,0,1-.431-1.456V6.581H68.734V5.6h1.347V3.813Zm7.424,8.456a2.686,2.686,0,0,1-2.167.868,2.3,2.3,0,0,1-1.8-.687,2.974,2.974,0,0,1-.625-2.034V5.6H75.44v4.778q0,1.682,1.367,1.682a1.893,1.893,0,0,0,1.928-1.08V5.6H80V13H78.8ZM85.5,6.738a3.79,3.79,0,0,0-.622-.048,1.667,1.667,0,0,0-1.688,1.06V13H81.92V5.6h1.23l.021.854a1.969,1.969,0,0,1,1.764-.991,1.292,1.292,0,0,1,.561.1ZM90.951,13a2.657,2.657,0,0,1-.178-.779,2.822,2.822,0,0,1-2.105.916,2.611,2.611,0,0,1-1.794-.619,2,2,0,0,1-.7-1.569,2.091,2.091,0,0,1,.878-1.794,4.141,4.141,0,0,1,2.471-.639h1.23V7.935a1.42,1.42,0,0,0-.4-1.056,1.593,1.593,0,0,0-1.169-.393,1.844,1.844,0,0,0-1.135.342,1.007,1.007,0,0,0-.458.827H86.323a1.745,1.745,0,0,1,.393-1.07,2.683,2.683,0,0,1,1.066-.817,3.588,3.588,0,0,1,1.48-.3,2.924,2.924,0,0,1,2,.639,2.306,2.306,0,0,1,.752,1.76v3.4a4.162,4.162,0,0,0,.26,1.62V13Zm-2.1-.964a2.223,2.223,0,0,0,1.128-.308,1.861,1.861,0,0,0,.772-.8V9.411h-.991q-2.324,0-2.324,1.36a1.151,1.151,0,0,0,.4.93A1.524,1.524,0,0,0,88.852,12.036Z" transform="translate(542 6864)" fill="#12263f"/>
    <path id="Trazado_721358" data-name="Trazado 721358" d="M31.909,13H30.589V8.4H25.572V13H24.259V3.047h1.313V7.326h5.018V3.047h1.319Zm6.7-.731a2.686,2.686,0,0,1-2.167.868,2.3,2.3,0,0,1-1.8-.687,2.974,2.974,0,0,1-.625-2.034V5.6h1.265v4.778q0,1.682,1.367,1.682a1.893,1.893,0,0,0,1.928-1.08V5.6h1.265V13h-1.2ZM42.949,5.6l.034.82a2.732,2.732,0,0,1,2.194-.957A2.115,2.115,0,0,1,47.29,6.656a2.8,2.8,0,0,1,.96-.861,2.837,2.837,0,0,1,1.4-.328q2.434,0,2.475,2.577V13H50.858V8.119A1.7,1.7,0,0,0,50.5,6.933a1.6,1.6,0,0,0-1.217-.393,1.677,1.677,0,0,0-1.169.42,1.706,1.706,0,0,0-.54,1.131V13H46.3V8.153A1.411,1.411,0,0,0,44.719,6.54a1.692,1.692,0,0,0-1.7,1.06V13H41.752V5.6ZM57.1,13.137a3.232,3.232,0,0,1-2.447-.988,3.666,3.666,0,0,1-.943-2.642V9.274a4.438,4.438,0,0,1,.42-1.965A3.28,3.28,0,0,1,55.3,5.956a2.956,2.956,0,0,1,1.637-.489,2.77,2.77,0,0,1,2.242.95,4.114,4.114,0,0,1,.8,2.721v.526H54.973a2.629,2.629,0,0,0,.639,1.767,2.009,2.009,0,0,0,1.555.673,2.2,2.2,0,0,0,1.135-.273,2.851,2.851,0,0,0,.813-.725l.772.6A3.106,3.106,0,0,1,57.1,13.137Zm-.157-6.631a1.687,1.687,0,0,0-1.285.557,2.708,2.708,0,0,0-.643,1.562h3.705v-.1a2.409,2.409,0,0,0-.52-1.494A1.588,1.588,0,0,0,56.942,6.506Zm4.2,2.734A4.333,4.333,0,0,1,61.946,6.5a2.745,2.745,0,0,1,4.17-.147V2.5H67.38V13H66.218l-.062-.793a2.575,2.575,0,0,1-2.112.93,2.526,2.526,0,0,1-2.1-1.053,4.382,4.382,0,0,1-.81-2.748Zm1.265.144a3.281,3.281,0,0,0,.52,1.969,1.68,1.68,0,0,0,1.436.711,1.845,1.845,0,0,0,1.757-1.08v-3.4A1.859,1.859,0,0,0,64.373,6.54a1.687,1.687,0,0,0-1.449.718A3.612,3.612,0,0,0,62.4,9.384ZM73.909,13a2.657,2.657,0,0,1-.178-.779,2.822,2.822,0,0,1-2.105.916,2.611,2.611,0,0,1-1.794-.619,2,2,0,0,1-.7-1.569,2.091,2.091,0,0,1,.878-1.794,4.141,4.141,0,0,1,2.471-.639h1.23V7.935a1.42,1.42,0,0,0-.4-1.056,1.593,1.593,0,0,0-1.169-.393,1.844,1.844,0,0,0-1.135.342,1.007,1.007,0,0,0-.458.827H69.281a1.745,1.745,0,0,1,.393-1.07,2.683,2.683,0,0,1,1.066-.817,3.588,3.588,0,0,1,1.48-.3,2.924,2.924,0,0,1,2,.639,2.306,2.306,0,0,1,.752,1.76v3.4a4.162,4.162,0,0,0,.26,1.62V13Zm-2.1-.964a2.223,2.223,0,0,0,1.128-.308,1.861,1.861,0,0,0,.772-.8V9.411h-.991q-2.324,0-2.324,1.36a1.151,1.151,0,0,0,.4.93A1.524,1.524,0,0,0,71.81,12.036Zm4.84-2.8A4.333,4.333,0,0,1,77.457,6.5a2.745,2.745,0,0,1,4.17-.147V2.5h1.265V13H81.729l-.062-.793a2.575,2.575,0,0,1-2.112.93,2.526,2.526,0,0,1-2.1-1.053,4.382,4.382,0,0,1-.81-2.748Zm1.265.144a3.281,3.281,0,0,0,.52,1.969,1.68,1.68,0,0,0,1.436.711,1.845,1.845,0,0,0,1.757-1.08v-3.4A1.859,1.859,0,0,0,79.883,6.54a1.687,1.687,0,0,0-1.449.718A3.612,3.612,0,0,0,77.915,9.384Z" transform="translate(722 6864)" fill="#12263f"/>
    <path id="Trazado_721349" data-name="Trazado 721349" d="M18.849,9.842a3.662,3.662,0,0,1-1.166,2.437,3.82,3.82,0,0,1-2.608.858,3.507,3.507,0,0,1-2.827-1.265,5.088,5.088,0,0,1-1.063-3.384V7.531a5.671,5.671,0,0,1,.5-2.44,3.7,3.7,0,0,1,1.4-1.617,3.911,3.911,0,0,1,2.105-.564,3.6,3.6,0,0,1,2.543.885,3.706,3.706,0,0,1,1.114,2.451H17.529a2.86,2.86,0,0,0-.742-1.728,2.244,2.244,0,0,0-1.6-.535,2.348,2.348,0,0,0-1.972.93A4.271,4.271,0,0,0,12.5,7.562v.965a4.391,4.391,0,0,0,.677,2.579,2.187,2.187,0,0,0,1.894.958,2.526,2.526,0,0,0,1.678-.5,2.75,2.75,0,0,0,.776-1.726ZM25.008,13a2.657,2.657,0,0,1-.178-.779,2.822,2.822,0,0,1-2.105.916,2.611,2.611,0,0,1-1.794-.619,2,2,0,0,1-.7-1.569,2.091,2.091,0,0,1,.878-1.794,4.142,4.142,0,0,1,2.471-.639h1.23V7.935a1.42,1.42,0,0,0-.4-1.056,1.593,1.593,0,0,0-1.169-.393,1.844,1.844,0,0,0-1.135.342,1.007,1.007,0,0,0-.458.827H20.38a1.745,1.745,0,0,1,.393-1.07,2.683,2.683,0,0,1,1.066-.817,3.588,3.588,0,0,1,1.48-.3,2.924,2.924,0,0,1,2,.639,2.306,2.306,0,0,1,.752,1.76v3.4a4.162,4.162,0,0,0,.26,1.62V13Zm-2.1-.964a2.223,2.223,0,0,0,1.128-.308,1.861,1.861,0,0,0,.772-.8V9.411h-.991q-2.324,0-2.324,1.36a1.151,1.151,0,0,0,.4.93A1.524,1.524,0,0,0,22.909,12.036Zm8.723-5.3a3.79,3.79,0,0,0-.622-.048,1.667,1.667,0,0,0-1.688,1.06V13H28.057V5.6h1.23l.021.854a1.969,1.969,0,0,1,1.764-.991,1.292,1.292,0,0,1,.561.1ZM37.087,13a2.657,2.657,0,0,1-.178-.779,2.822,2.822,0,0,1-2.105.916,2.611,2.611,0,0,1-1.794-.619,2,2,0,0,1-.7-1.569,2.091,2.091,0,0,1,.878-1.794,4.142,4.142,0,0,1,2.471-.639h1.23V7.935a1.42,1.42,0,0,0-.4-1.056,1.593,1.593,0,0,0-1.169-.393,1.844,1.844,0,0,0-1.135.342,1.007,1.007,0,0,0-.458.827H32.459a1.745,1.745,0,0,1,.393-1.07,2.683,2.683,0,0,1,1.066-.817,3.588,3.588,0,0,1,1.48-.3,2.924,2.924,0,0,1,2,.639,2.306,2.306,0,0,1,.752,1.76v3.4a4.162,4.162,0,0,0,.26,1.62V13Zm-2.1-.964a2.223,2.223,0,0,0,1.128-.308,1.861,1.861,0,0,0,.772-.8V9.411H35.9q-2.324,0-2.324,1.36a1.151,1.151,0,0,0,.4.93A1.524,1.524,0,0,0,34.988,12.036ZM43.1,12.1a1.822,1.822,0,0,0,1.183-.41,1.443,1.443,0,0,0,.561-1.025h1.2a2.293,2.293,0,0,1-.437,1.21,2.881,2.881,0,0,1-1.077.916,3.107,3.107,0,0,1-1.425.342,3.047,3.047,0,0,1-2.4-1.008,4.016,4.016,0,0,1-.892-2.758V9.158a4.453,4.453,0,0,1,.4-1.921,3.02,3.02,0,0,1,1.138-1.306A3.233,3.233,0,0,1,43.1,5.467a2.966,2.966,0,0,1,2.068.745,2.663,2.663,0,0,1,.878,1.935h-1.2A1.743,1.743,0,0,0,44.3,6.967,1.691,1.691,0,0,0,43.1,6.506,1.77,1.77,0,0,0,41.6,7.2a3.259,3.259,0,0,0-.53,2.006v.239a3.194,3.194,0,0,0,.526,1.969A1.779,1.779,0,0,0,43.1,12.1ZM49.18,3.813V5.6h1.381v.978H49.18v4.593a1.027,1.027,0,0,0,.185.667.777.777,0,0,0,.629.222,3.062,3.062,0,0,0,.6-.082V13a3.688,3.688,0,0,1-.971.136,1.575,1.575,0,0,1-1.278-.513,2.2,2.2,0,0,1-.431-1.456V6.581H46.568V5.6h1.347V3.813Zm6.433,2.926a3.79,3.79,0,0,0-.622-.048A1.667,1.667,0,0,0,53.3,7.75V13H52.037V5.6h1.23l.021.854a1.969,1.969,0,0,1,1.764-.991,1.292,1.292,0,0,1,.561.1ZM58.148,13H56.877V5.6h1.271Zm.014-10.493h1.531l-1.832,2.01-1.019,0Zm6.378,8.531a.931.931,0,0,0-.386-.8,3.718,3.718,0,0,0-1.347-.489,6.367,6.367,0,0,1-1.524-.492,2.169,2.169,0,0,1-.834-.684,1.635,1.635,0,0,1-.27-.943A1.919,1.919,0,0,1,60.948,6.1a3,3,0,0,1,1.965-.629,3.091,3.091,0,0,1,2.041.649,2.063,2.063,0,0,1,.783,1.661H64.465a1.142,1.142,0,0,0-.441-.9,1.652,1.652,0,0,0-1.111-.376,1.729,1.729,0,0,0-1.08.3.947.947,0,0,0-.39.786.767.767,0,0,0,.362.69,4.458,4.458,0,0,0,1.309.444,6.821,6.821,0,0,1,1.535.506,2.239,2.239,0,0,1,.872.708,1.74,1.74,0,0,1,.284,1.008,1.893,1.893,0,0,1-.793,1.589,3.326,3.326,0,0,1-2.058.6,3.725,3.725,0,0,1-1.572-.314,2.557,2.557,0,0,1-1.07-.878,2.117,2.117,0,0,1-.386-1.22H61.19a1.309,1.309,0,0,0,.509,1.008,1.976,1.976,0,0,0,1.254.373,2.039,2.039,0,0,0,1.152-.291A.893.893,0,0,0,64.54,11.038Zm4.628-7.226V5.6h1.381v.978H69.168v4.593a1.027,1.027,0,0,0,.185.667.777.777,0,0,0,.629.222,3.062,3.062,0,0,0,.6-.082V13a3.688,3.688,0,0,1-.971.136,1.575,1.575,0,0,1-1.278-.513,2.2,2.2,0,0,1-.431-1.456V6.581H66.557V5.6H67.9V3.813ZM73.4,13H72.135V5.6H73.4ZM72.032,3.642a.755.755,0,0,1,.188-.52.706.706,0,0,1,.557-.212.717.717,0,0,1,.561.212.747.747,0,0,1,.191.52.722.722,0,0,1-.191.513.73.73,0,0,1-.561.205.718.718,0,0,1-.557-.205A.73.73,0,0,1,72.032,3.642ZM78.39,12.1a1.822,1.822,0,0,0,1.183-.41,1.443,1.443,0,0,0,.561-1.025h1.2a2.293,2.293,0,0,1-.437,1.21,2.882,2.882,0,0,1-1.077.916,3.107,3.107,0,0,1-1.425.342,3.047,3.047,0,0,1-2.4-1.008,4.016,4.016,0,0,1-.892-2.758V9.158a4.453,4.453,0,0,1,.4-1.921,3.02,3.02,0,0,1,1.138-1.306,3.233,3.233,0,0,1,1.753-.465,2.966,2.966,0,0,1,2.068.745,2.663,2.663,0,0,1,.878,1.935h-1.2a1.743,1.743,0,0,0-.543-1.179,1.691,1.691,0,0,0-1.207-.461,1.77,1.77,0,0,0-1.494.694,3.259,3.259,0,0,0-.53,2.006v.239a3.194,3.194,0,0,0,.526,1.969A1.779,1.779,0,0,0,78.39,12.1Zm8.928.9a2.657,2.657,0,0,1-.178-.779,2.822,2.822,0,0,1-2.105.916,2.611,2.611,0,0,1-1.794-.619,2,2,0,0,1-.7-1.569,2.091,2.091,0,0,1,.878-1.794,4.141,4.141,0,0,1,2.471-.639h1.23V7.935a1.42,1.42,0,0,0-.4-1.056,1.593,1.593,0,0,0-1.169-.393,1.844,1.844,0,0,0-1.135.342,1.007,1.007,0,0,0-.458.827H82.689a1.745,1.745,0,0,1,.393-1.07,2.683,2.683,0,0,1,1.066-.817,3.588,3.588,0,0,1,1.48-.3,2.924,2.924,0,0,1,2,.639,2.306,2.306,0,0,1,.752,1.76v3.4a4.162,4.162,0,0,0,.26,1.62V13Zm-2.1-.964a2.223,2.223,0,0,0,1.128-.308,1.861,1.861,0,0,0,.772-.8V9.411h-.991q-2.324,0-2.324,1.36a1.151,1.151,0,0,0,.4.93A1.524,1.524,0,0,0,85.219,12.036Zm9.454-1a.931.931,0,0,0-.386-.8,3.718,3.718,0,0,0-1.347-.489,6.367,6.367,0,0,1-1.524-.492,2.169,2.169,0,0,1-.834-.684,1.635,1.635,0,0,1-.27-.943A1.919,1.919,0,0,1,91.081,6.1a3,3,0,0,1,1.965-.629,3.091,3.091,0,0,1,2.041.649,2.063,2.063,0,0,1,.783,1.661H94.6a1.142,1.142,0,0,0-.441-.9,1.652,1.652,0,0,0-1.111-.376,1.729,1.729,0,0,0-1.08.3.947.947,0,0,0-.39.786.767.767,0,0,0,.362.69,4.458,4.458,0,0,0,1.309.444,6.821,6.821,0,0,1,1.535.506,2.239,2.239,0,0,1,.872.708,1.74,1.74,0,0,1,.284,1.008,1.893,1.893,0,0,1-.793,1.589,3.326,3.326,0,0,1-2.058.6,3.725,3.725,0,0,1-1.572-.314,2.557,2.557,0,0,1-1.07-.878,2.117,2.117,0,0,1-.386-1.22h1.265a1.309,1.309,0,0,0,.509,1.008,1.976,1.976,0,0,0,1.254.373,2.039,2.039,0,0,0,1.152-.291A.893.893,0,0,0,94.673,11.038ZM34.53,29V22.581H33.361V21.6H34.53v-.759a2.519,2.519,0,0,1,.636-1.839,2.4,2.4,0,0,1,1.8-.649,3.339,3.339,0,0,1,.868.115l-.068,1.019a3.632,3.632,0,0,0-.684-.062,1.234,1.234,0,0,0-.95.36,1.46,1.46,0,0,0-.335,1.032V21.6h1.579v.978H35.795V29Zm5.612,0H38.871V21.6h1.271Zm.014-10.493h1.531l-1.832,2.01-1.019,0Zm6.378,8.531a.931.931,0,0,0-.386-.8,3.718,3.718,0,0,0-1.347-.489,6.367,6.367,0,0,1-1.524-.492,2.169,2.169,0,0,1-.834-.684,1.635,1.635,0,0,1-.27-.943,1.919,1.919,0,0,1,.769-1.538,3,3,0,0,1,1.965-.629,3.091,3.091,0,0,1,2.041.649,2.063,2.063,0,0,1,.783,1.661H46.459a1.142,1.142,0,0,0-.441-.9,1.652,1.652,0,0,0-1.111-.376,1.729,1.729,0,0,0-1.08.3.947.947,0,0,0-.39.786.767.767,0,0,0,.362.69,4.458,4.458,0,0,0,1.309.444,6.821,6.821,0,0,1,1.535.506,2.239,2.239,0,0,1,.872.708,1.74,1.74,0,0,1,.284,1.008,1.893,1.893,0,0,1-.793,1.589,3.326,3.326,0,0,1-2.058.6,3.725,3.725,0,0,1-1.572-.314,2.557,2.557,0,0,1-1.07-.878,2.117,2.117,0,0,1-.386-1.22h1.265a1.309,1.309,0,0,0,.509,1.008,1.976,1.976,0,0,0,1.254.373,2.039,2.039,0,0,0,1.152-.291A.893.893,0,0,0,46.534,27.038ZM50.82,29H49.556V21.6H50.82Zm-1.367-9.358a.755.755,0,0,1,.188-.52.706.706,0,0,1,.557-.212.717.717,0,0,1,.561.212.747.747,0,0,1,.191.52.722.722,0,0,1-.191.513.73.73,0,0,1-.561.205.718.718,0,0,1-.557-.205A.73.73,0,0,1,49.453,19.642ZM55.811,28.1a1.822,1.822,0,0,0,1.183-.41,1.443,1.443,0,0,0,.561-1.025h1.2a2.293,2.293,0,0,1-.437,1.21,2.881,2.881,0,0,1-1.077.916,3.107,3.107,0,0,1-1.425.342,3.047,3.047,0,0,1-2.4-1.008,4.016,4.016,0,0,1-.892-2.758v-.212a4.453,4.453,0,0,1,.4-1.921,3.02,3.02,0,0,1,1.138-1.306,3.233,3.233,0,0,1,1.753-.465,2.966,2.966,0,0,1,2.068.745,2.663,2.663,0,0,1,.878,1.935h-1.2a1.743,1.743,0,0,0-.543-1.179,1.691,1.691,0,0,0-1.207-.461,1.77,1.77,0,0,0-1.494.694,3.259,3.259,0,0,0-.53,2.006v.239a3.194,3.194,0,0,0,.526,1.969A1.779,1.779,0,0,0,55.811,28.1Zm8.928.9a2.657,2.657,0,0,1-.178-.779,2.822,2.822,0,0,1-2.105.916,2.611,2.611,0,0,1-1.794-.619,2,2,0,0,1-.7-1.569,2.091,2.091,0,0,1,.878-1.794,4.142,4.142,0,0,1,2.471-.639h1.23v-.581a1.42,1.42,0,0,0-.4-1.056,1.593,1.593,0,0,0-1.169-.393,1.844,1.844,0,0,0-1.135.342,1.007,1.007,0,0,0-.458.827H60.11a1.745,1.745,0,0,1,.393-1.07,2.683,2.683,0,0,1,1.066-.817,3.588,3.588,0,0,1,1.48-.3,2.924,2.924,0,0,1,2,.639,2.306,2.306,0,0,1,.752,1.76v3.4a4.162,4.162,0,0,0,.26,1.62V29Zm-2.1-.964a2.223,2.223,0,0,0,1.128-.308,1.861,1.861,0,0,0,.772-.8V25.411h-.991q-2.324,0-2.324,1.36a1.151,1.151,0,0,0,.4.93A1.524,1.524,0,0,0,62.64,28.036Zm9.454-1a.931.931,0,0,0-.386-.8,3.718,3.718,0,0,0-1.347-.489,6.367,6.367,0,0,1-1.524-.492A2.169,2.169,0,0,1,68,24.577a1.635,1.635,0,0,1-.27-.943A1.919,1.919,0,0,1,68.5,22.1a3,3,0,0,1,1.965-.629,3.091,3.091,0,0,1,2.041.649,2.063,2.063,0,0,1,.783,1.661H72.019a1.142,1.142,0,0,0-.441-.9,1.652,1.652,0,0,0-1.111-.376,1.729,1.729,0,0,0-1.08.3.947.947,0,0,0-.39.786.767.767,0,0,0,.362.69,4.458,4.458,0,0,0,1.309.444,6.821,6.821,0,0,1,1.535.506,2.239,2.239,0,0,1,.872.708,1.74,1.74,0,0,1,.284,1.008,1.893,1.893,0,0,1-.793,1.589,3.326,3.326,0,0,1-2.058.6,3.725,3.725,0,0,1-1.572-.314,2.557,2.557,0,0,1-1.07-.878,2.117,2.117,0,0,1-.386-1.22h1.265a1.309,1.309,0,0,0,.509,1.008,1.976,1.976,0,0,0,1.254.373,2.039,2.039,0,0,0,1.152-.291A.893.893,0,0,0,72.094,27.038Z" transform="translate(542 7060)" fill="#12263f"/>
    <path id="Trazado_721355" data-name="Trazado 721355" d="M27.517,8.974H25.179V13H23.859V3.047h3.295a3.9,3.9,0,0,1,2.587.766,2.755,2.755,0,0,1,.906,2.229,2.68,2.68,0,0,1-.5,1.62,3,3,0,0,1-1.4,1.032l2.338,4.225V13H29.677ZM25.179,7.9H27.2a2.275,2.275,0,0,0,1.555-.507,1.714,1.714,0,0,0,.578-1.356,1.8,1.8,0,0,0-.55-1.418,2.33,2.33,0,0,0-1.589-.5h-2.01ZM36.854,13a2.657,2.657,0,0,1-.178-.779,2.822,2.822,0,0,1-2.105.916,2.611,2.611,0,0,1-1.794-.619,2,2,0,0,1-.7-1.569,2.091,2.091,0,0,1,.878-1.794,4.142,4.142,0,0,1,2.471-.639h1.23V7.935a1.42,1.42,0,0,0-.4-1.056,1.593,1.593,0,0,0-1.169-.393,1.844,1.844,0,0,0-1.135.342,1.007,1.007,0,0,0-.458.827H32.227a1.745,1.745,0,0,1,.393-1.07,2.683,2.683,0,0,1,1.066-.817,3.588,3.588,0,0,1,1.48-.3,2.924,2.924,0,0,1,2,.639,2.306,2.306,0,0,1,.752,1.76v3.4a4.162,4.162,0,0,0,.26,1.62V13Zm-2.1-.964a2.223,2.223,0,0,0,1.128-.308,1.861,1.861,0,0,0,.772-.8V9.411h-.991q-2.324,0-2.324,1.36a1.151,1.151,0,0,0,.4.93A1.524,1.524,0,0,0,34.756,12.036Zm4.84-2.8A4.333,4.333,0,0,1,40.4,6.5a2.745,2.745,0,0,1,4.17-.147V2.5h1.265V13H44.675l-.062-.793a2.575,2.575,0,0,1-2.112.93,2.526,2.526,0,0,1-2.1-1.053,4.382,4.382,0,0,1-.81-2.748Zm1.265.144a3.281,3.281,0,0,0,.52,1.969,1.68,1.68,0,0,0,1.436.711,1.845,1.845,0,0,0,1.757-1.08v-3.4A1.859,1.859,0,0,0,42.829,6.54a1.687,1.687,0,0,0-1.449.718A3.612,3.612,0,0,0,40.86,9.384ZM49.173,13H47.908V5.6h1.265ZM47.806,3.642a.755.755,0,0,1,.188-.52.706.706,0,0,1,.557-.212.717.717,0,0,1,.561.212.747.747,0,0,1,.191.52.722.722,0,0,1-.191.513.73.73,0,0,1-.561.205.718.718,0,0,1-.557-.205A.73.73,0,0,1,47.806,3.642ZM55.763,13a2.657,2.657,0,0,1-.178-.779,2.822,2.822,0,0,1-2.105.916,2.611,2.611,0,0,1-1.794-.619,2,2,0,0,1-.7-1.569,2.091,2.091,0,0,1,.878-1.794,4.142,4.142,0,0,1,2.471-.639h1.23V7.935a1.42,1.42,0,0,0-.4-1.056A1.593,1.593,0,0,0,54,6.485a1.844,1.844,0,0,0-1.135.342,1.007,1.007,0,0,0-.458.827H51.135a1.745,1.745,0,0,1,.393-1.07,2.683,2.683,0,0,1,1.066-.817,3.588,3.588,0,0,1,1.48-.3,2.924,2.924,0,0,1,2,.639,2.306,2.306,0,0,1,.752,1.76v3.4a4.162,4.162,0,0,0,.26,1.62V13Zm-2.1-.964a2.223,2.223,0,0,0,1.128-.308,1.861,1.861,0,0,0,.772-.8V9.411h-.991q-2.324,0-2.324,1.36a1.151,1.151,0,0,0,.4.93A1.524,1.524,0,0,0,53.664,12.036Zm8.114.068a1.822,1.822,0,0,0,1.183-.41,1.443,1.443,0,0,0,.561-1.025h1.2a2.293,2.293,0,0,1-.437,1.21,2.881,2.881,0,0,1-1.077.916,3.107,3.107,0,0,1-1.425.342,3.047,3.047,0,0,1-2.4-1.008,4.016,4.016,0,0,1-.892-2.758V9.158a4.453,4.453,0,0,1,.4-1.921,3.02,3.02,0,0,1,1.138-1.306,3.233,3.233,0,0,1,1.753-.465,2.966,2.966,0,0,1,2.068.745,2.663,2.663,0,0,1,.878,1.935h-1.2a1.743,1.743,0,0,0-.543-1.179,1.691,1.691,0,0,0-1.207-.461,1.77,1.77,0,0,0-1.494.694,3.259,3.259,0,0,0-.53,2.006v.239a3.194,3.194,0,0,0,.526,1.969A1.779,1.779,0,0,0,61.778,12.1Zm5.735.9H66.249V5.6h1.265ZM66.146,3.642a.755.755,0,0,1,.188-.52.706.706,0,0,1,.557-.212.717.717,0,0,1,.561.212.747.747,0,0,1,.191.52.722.722,0,0,1-.191.513.73.73,0,0,1-.561.205.718.718,0,0,1-.557-.205A.73.73,0,0,1,66.146,3.642ZM69.2,9.233a4.369,4.369,0,0,1,.427-1.955,3.187,3.187,0,0,1,1.189-1.34,3.238,3.238,0,0,1,1.74-.472A3.119,3.119,0,0,1,75,6.513a4.024,4.024,0,0,1,.933,2.782v.089a4.407,4.407,0,0,1-.414,1.938,3.14,3.14,0,0,1-1.183,1.336,3.275,3.275,0,0,1-1.767.479,3.111,3.111,0,0,1-2.437-1.046A4,4,0,0,1,69.2,9.322Zm1.271.15a3.164,3.164,0,0,0,.571,1.976,1.934,1.934,0,0,0,3.059-.01,3.46,3.46,0,0,0,.567-2.116,3.159,3.159,0,0,0-.578-1.972,1.836,1.836,0,0,0-1.535-.755,1.816,1.816,0,0,0-1.511.745A3.435,3.435,0,0,0,70.474,9.384ZM73.133,2.5h1.531L72.832,4.51l-1.019,0Zm5.585,3.1.041.93a2.7,2.7,0,0,1,2.215-1.066q2.345,0,2.365,2.646V13H82.074V8.105a1.7,1.7,0,0,0-.366-1.183,1.466,1.466,0,0,0-1.118-.383,1.825,1.825,0,0,0-1.08.328,2.228,2.228,0,0,0-.725.861V13H77.521V5.6ZM43.287,27.038a.931.931,0,0,0-.386-.8,3.718,3.718,0,0,0-1.347-.489,6.367,6.367,0,0,1-1.524-.492,2.169,2.169,0,0,1-.834-.684,1.635,1.635,0,0,1-.27-.943,1.919,1.919,0,0,1,.769-1.538,3,3,0,0,1,1.965-.629,3.091,3.091,0,0,1,2.041.649,2.063,2.063,0,0,1,.783,1.661H43.212a1.142,1.142,0,0,0-.441-.9,1.652,1.652,0,0,0-1.111-.376,1.729,1.729,0,0,0-1.08.3.947.947,0,0,0-.39.786.767.767,0,0,0,.362.69,4.458,4.458,0,0,0,1.309.444,6.821,6.821,0,0,1,1.535.506,2.239,2.239,0,0,1,.872.708,1.74,1.74,0,0,1,.284,1.008,1.893,1.893,0,0,1-.793,1.589,3.326,3.326,0,0,1-2.058.6,3.725,3.725,0,0,1-1.572-.314,2.557,2.557,0,0,1-1.07-.878,2.117,2.117,0,0,1-.386-1.22h1.265a1.309,1.309,0,0,0,.509,1.008A1.976,1.976,0,0,0,41.7,28.1a2.039,2.039,0,0,0,1.152-.291A.893.893,0,0,0,43.287,27.038Zm2.577-1.8a4.369,4.369,0,0,1,.427-1.955,3.187,3.187,0,0,1,1.189-1.34,3.238,3.238,0,0,1,1.74-.472,3.119,3.119,0,0,1,2.444,1.046,4.024,4.024,0,0,1,.933,2.782v.089a4.407,4.407,0,0,1-.414,1.938A3.14,3.14,0,0,1,51,28.658a3.275,3.275,0,0,1-1.767.479A3.111,3.111,0,0,1,46.8,28.091a4,4,0,0,1-.933-2.769Zm1.271.15a3.164,3.164,0,0,0,.571,1.976,1.934,1.934,0,0,0,3.059-.01,3.46,3.46,0,0,0,.567-2.116,3.159,3.159,0,0,0-.578-1.972,1.836,1.836,0,0,0-1.535-.755,1.816,1.816,0,0,0-1.511.745A3.434,3.434,0,0,0,47.136,25.384ZM55.558,29H54.293V18.5h1.265Zm6.59,0a2.657,2.657,0,0,1-.178-.779,2.822,2.822,0,0,1-2.105.916,2.611,2.611,0,0,1-1.794-.619,2,2,0,0,1-.7-1.569,2.091,2.091,0,0,1,.878-1.794,4.142,4.142,0,0,1,2.471-.639h1.23v-.581a1.42,1.42,0,0,0-.4-1.056,1.593,1.593,0,0,0-1.169-.393,1.844,1.844,0,0,0-1.135.342,1.007,1.007,0,0,0-.458.827H57.52a1.745,1.745,0,0,1,.393-1.07,2.683,2.683,0,0,1,1.066-.817,3.588,3.588,0,0,1,1.48-.3,2.924,2.924,0,0,1,2,.639,2.306,2.306,0,0,1,.752,1.76v3.4a4.162,4.162,0,0,0,.26,1.62V29Zm-2.1-.964a2.223,2.223,0,0,0,1.128-.308,1.861,1.861,0,0,0,.772-.8V25.411h-.991q-2.324,0-2.324,1.36a1.151,1.151,0,0,0,.4.93A1.524,1.524,0,0,0,60.049,28.036Zm8.723-5.3a3.79,3.79,0,0,0-.622-.048,1.667,1.667,0,0,0-1.688,1.06V29H65.2V21.6h1.23l.021.854a1.969,1.969,0,0,1,1.764-.991,1.292,1.292,0,0,1,.561.1Z" transform="translate(900 6858)" fill="#12263f"/>
    <path id="Trazado_721343" data-name="Trazado 721343" d="M15.14,9.842a3.662,3.662,0,0,1-1.166,2.437,3.82,3.82,0,0,1-2.608.858A3.507,3.507,0,0,1,8.54,11.872,5.088,5.088,0,0,1,7.477,8.488V7.531a5.671,5.671,0,0,1,.5-2.44,3.7,3.7,0,0,1,1.4-1.617,3.911,3.911,0,0,1,2.105-.564,3.6,3.6,0,0,1,2.543.885A3.706,3.706,0,0,1,15.14,6.246H13.821a2.86,2.86,0,0,0-.742-1.728,2.244,2.244,0,0,0-1.6-.535,2.348,2.348,0,0,0-1.972.93A4.271,4.271,0,0,0,8.8,7.562v.965a4.391,4.391,0,0,0,.677,2.579,2.187,2.187,0,0,0,1.894.958,2.526,2.526,0,0,0,1.678-.5,2.75,2.75,0,0,0,.776-1.726ZM21.3,13a2.657,2.657,0,0,1-.178-.779,2.822,2.822,0,0,1-2.105.916,2.611,2.611,0,0,1-1.794-.619,2,2,0,0,1-.7-1.569A2.091,2.091,0,0,1,17.4,9.155a4.142,4.142,0,0,1,2.471-.639H21.1V7.935a1.42,1.42,0,0,0-.4-1.056,1.593,1.593,0,0,0-1.169-.393,1.844,1.844,0,0,0-1.135.342,1.007,1.007,0,0,0-.458.827H16.671a1.745,1.745,0,0,1,.393-1.07,2.683,2.683,0,0,1,1.066-.817,3.588,3.588,0,0,1,1.48-.3,2.924,2.924,0,0,1,2,.639,2.306,2.306,0,0,1,.752,1.76v3.4a4.162,4.162,0,0,0,.26,1.62V13Zm-2.1-.964a2.223,2.223,0,0,0,1.128-.308,1.861,1.861,0,0,0,.772-.8V9.411H20.11q-2.324,0-2.324,1.36a1.151,1.151,0,0,0,.4.93A1.524,1.524,0,0,0,19.2,12.036Zm8.723-5.3A3.79,3.79,0,0,0,27.3,6.69a1.667,1.667,0,0,0-1.688,1.06V13H24.348V5.6h1.23l.021.854a1.969,1.969,0,0,1,1.764-.991,1.292,1.292,0,0,1,.561.1ZM33.378,13a2.657,2.657,0,0,1-.178-.779,2.822,2.822,0,0,1-2.105.916,2.611,2.611,0,0,1-1.794-.619,2,2,0,0,1-.7-1.569,2.091,2.091,0,0,1,.878-1.794,4.142,4.142,0,0,1,2.471-.639h1.23V7.935a1.42,1.42,0,0,0-.4-1.056,1.593,1.593,0,0,0-1.169-.393,1.844,1.844,0,0,0-1.135.342,1.007,1.007,0,0,0-.458.827H28.75a1.745,1.745,0,0,1,.393-1.07,2.683,2.683,0,0,1,1.066-.817,3.588,3.588,0,0,1,1.48-.3,2.924,2.924,0,0,1,2,.639,2.306,2.306,0,0,1,.752,1.76v3.4a4.162,4.162,0,0,0,.26,1.62V13Zm-2.1-.964a2.223,2.223,0,0,0,1.128-.308,1.861,1.861,0,0,0,.772-.8V9.411h-.991q-2.324,0-2.324,1.36a1.151,1.151,0,0,0,.4.93A1.524,1.524,0,0,0,31.28,12.036Zm8.114.068a1.822,1.822,0,0,0,1.183-.41,1.443,1.443,0,0,0,.561-1.025h1.2a2.293,2.293,0,0,1-.437,1.21,2.881,2.881,0,0,1-1.077.916,3.107,3.107,0,0,1-1.425.342,3.047,3.047,0,0,1-2.4-1.008A4.016,4.016,0,0,1,36.1,9.37V9.158a4.453,4.453,0,0,1,.4-1.921,3.02,3.02,0,0,1,1.138-1.306,3.233,3.233,0,0,1,1.753-.465,2.966,2.966,0,0,1,2.068.745,2.663,2.663,0,0,1,.878,1.935h-1.2a1.743,1.743,0,0,0-.543-1.179,1.691,1.691,0,0,0-1.207-.461,1.77,1.77,0,0,0-1.494.694,3.259,3.259,0,0,0-.53,2.006v.239a3.194,3.194,0,0,0,.526,1.969A1.779,1.779,0,0,0,39.394,12.1Zm6.077-8.292V5.6h1.381v.978H45.471v4.593a1.027,1.027,0,0,0,.185.667.777.777,0,0,0,.629.222,3.062,3.062,0,0,0,.6-.082V13a3.688,3.688,0,0,1-.971.136,1.575,1.575,0,0,1-1.278-.513,2.2,2.2,0,0,1-.431-1.456V6.581H42.86V5.6h1.347V3.813ZM51.4,13.137a3.232,3.232,0,0,1-2.447-.988,3.666,3.666,0,0,1-.943-2.642V9.274a4.438,4.438,0,0,1,.42-1.965A3.28,3.28,0,0,1,49.6,5.956a2.956,2.956,0,0,1,1.637-.489,2.77,2.77,0,0,1,2.242.95,4.114,4.114,0,0,1,.8,2.721v.526H49.272a2.629,2.629,0,0,0,.639,1.767,2.009,2.009,0,0,0,1.555.673,2.2,2.2,0,0,0,1.135-.273,2.851,2.851,0,0,0,.813-.725l.772.6A3.106,3.106,0,0,1,51.4,13.137Zm-.157-6.631a1.687,1.687,0,0,0-1.285.557,2.708,2.708,0,0,0-.643,1.562h3.705v-.1a2.409,2.409,0,0,0-.52-1.494A1.588,1.588,0,0,0,51.241,6.506Zm8.08.232A3.79,3.79,0,0,0,58.7,6.69,1.667,1.667,0,0,0,57.01,7.75V13H55.746V5.6h1.23L57,6.458a1.969,1.969,0,0,1,1.764-.991,1.292,1.292,0,0,1,.561.1ZM61.857,13H60.585V5.6h1.271Zm.014-10.493H63.4L61.57,4.517l-1.019,0Zm6.378,8.531a.931.931,0,0,0-.386-.8,3.718,3.718,0,0,0-1.347-.489,6.367,6.367,0,0,1-1.524-.492,2.169,2.169,0,0,1-.834-.684,1.635,1.635,0,0,1-.27-.943A1.919,1.919,0,0,1,64.656,6.1a3,3,0,0,1,1.965-.629,3.091,3.091,0,0,1,2.041.649,2.063,2.063,0,0,1,.783,1.661H68.173a1.142,1.142,0,0,0-.441-.9,1.652,1.652,0,0,0-1.111-.376,1.729,1.729,0,0,0-1.08.3.947.947,0,0,0-.39.786.767.767,0,0,0,.362.69,4.458,4.458,0,0,0,1.309.444,6.821,6.821,0,0,1,1.535.506,2.239,2.239,0,0,1,.872.708,1.74,1.74,0,0,1,.284,1.008,1.893,1.893,0,0,1-.793,1.589,3.326,3.326,0,0,1-2.058.6,3.725,3.725,0,0,1-1.572-.314,2.557,2.557,0,0,1-1.07-.878,2.117,2.117,0,0,1-.386-1.22H64.9a1.309,1.309,0,0,0,.509,1.008,1.976,1.976,0,0,0,1.254.373,2.039,2.039,0,0,0,1.152-.291A.893.893,0,0,0,68.249,11.038Zm4.628-7.226V5.6h1.381v.978H72.876v4.593a1.027,1.027,0,0,0,.185.667.777.777,0,0,0,.629.222,3.062,3.062,0,0,0,.6-.082V13a3.688,3.688,0,0,1-.971.136,1.575,1.575,0,0,1-1.278-.513,2.2,2.2,0,0,1-.431-1.456V6.581H70.265V5.6h1.347V3.813ZM77.108,13H75.843V5.6h1.265ZM75.741,3.642a.755.755,0,0,1,.188-.52.706.706,0,0,1,.557-.212.717.717,0,0,1,.561.212.747.747,0,0,1,.191.52.722.722,0,0,1-.191.513.73.73,0,0,1-.561.205.718.718,0,0,1-.557-.205A.73.73,0,0,1,75.741,3.642ZM82.1,12.1a1.822,1.822,0,0,0,1.183-.41,1.443,1.443,0,0,0,.561-1.025h1.2a2.293,2.293,0,0,1-.437,1.21,2.882,2.882,0,0,1-1.077.916,3.107,3.107,0,0,1-1.425.342,3.047,3.047,0,0,1-2.4-1.008A4.016,4.016,0,0,1,78.8,9.37V9.158a4.453,4.453,0,0,1,.4-1.921,3.02,3.02,0,0,1,1.138-1.306,3.233,3.233,0,0,1,1.753-.465,2.966,2.966,0,0,1,2.068.745,2.663,2.663,0,0,1,.878,1.935h-1.2A1.743,1.743,0,0,0,83.3,6.967a1.691,1.691,0,0,0-1.207-.461A1.77,1.77,0,0,0,80.6,7.2a3.259,3.259,0,0,0-.53,2.006v.239a3.194,3.194,0,0,0,.526,1.969A1.779,1.779,0,0,0,82.1,12.1Zm8.928.9a2.657,2.657,0,0,1-.178-.779,2.822,2.822,0,0,1-2.105.916,2.611,2.611,0,0,1-1.794-.619,2,2,0,0,1-.7-1.569,2.091,2.091,0,0,1,.878-1.794A4.141,4.141,0,0,1,89.6,8.516h1.23V7.935a1.42,1.42,0,0,0-.4-1.056,1.593,1.593,0,0,0-1.169-.393,1.844,1.844,0,0,0-1.135.342,1.007,1.007,0,0,0-.458.827H86.4a1.745,1.745,0,0,1,.393-1.07,2.683,2.683,0,0,1,1.066-.817,3.588,3.588,0,0,1,1.48-.3,2.924,2.924,0,0,1,2,.639,2.306,2.306,0,0,1,.752,1.76v3.4a4.162,4.162,0,0,0,.26,1.62V13Zm-2.1-.964a2.223,2.223,0,0,0,1.128-.308,1.861,1.861,0,0,0,.772-.8V9.411h-.991q-2.324,0-2.324,1.36a1.151,1.151,0,0,0,.4.93A1.524,1.524,0,0,0,88.927,12.036Zm9.454-1a.931.931,0,0,0-.386-.8,3.718,3.718,0,0,0-1.347-.489,6.367,6.367,0,0,1-1.524-.492,2.169,2.169,0,0,1-.834-.684,1.635,1.635,0,0,1-.27-.943A1.919,1.919,0,0,1,94.789,6.1a3,3,0,0,1,1.965-.629,3.091,3.091,0,0,1,2.041.649,2.063,2.063,0,0,1,.783,1.661H98.306a1.142,1.142,0,0,0-.441-.9,1.652,1.652,0,0,0-1.111-.376,1.729,1.729,0,0,0-1.08.3.947.947,0,0,0-.39.786.767.767,0,0,0,.362.69,4.458,4.458,0,0,0,1.309.444,6.821,6.821,0,0,1,1.535.506,2.239,2.239,0,0,1,.872.708,1.74,1.74,0,0,1,.284,1.008,1.893,1.893,0,0,1-.793,1.589,3.326,3.326,0,0,1-2.058.6,3.725,3.725,0,0,1-1.572-.314,2.557,2.557,0,0,1-1.07-.878,2.117,2.117,0,0,1-.386-1.22h1.265a1.309,1.309,0,0,0,.509,1.008A1.976,1.976,0,0,0,96.8,12.1a2.039,2.039,0,0,0,1.152-.291A.893.893,0,0,0,98.381,11.038ZM25.667,25.24a4.341,4.341,0,0,1,.8-2.758,2.823,2.823,0,0,1,4.218-.133l.055-.745H31.9v10.24H30.637V28.316a2.654,2.654,0,0,1-2.037.82,2.551,2.551,0,0,1-2.136-1.042,4.438,4.438,0,0,1-.8-2.765Zm1.265.144a3.291,3.291,0,0,0,.537,2,1.707,1.707,0,0,0,1.446.725,1.894,1.894,0,0,0,1.723-1V23.483a1.9,1.9,0,0,0-1.709-.978,1.72,1.72,0,0,0-1.456.728A3.583,3.583,0,0,0,26.932,25.384ZM38.5,28.269a2.686,2.686,0,0,1-2.167.868,2.3,2.3,0,0,1-1.8-.687,2.974,2.974,0,0,1-.625-2.034V21.6h1.265v4.778q0,1.682,1.367,1.682a1.893,1.893,0,0,0,1.928-1.08V21.6h1.265V29h-1.2ZM43.024,29H41.752V21.6h1.271Zm.014-10.493h1.531l-1.832,2.01-1.019,0ZM46.3,21.6l.034.82a2.732,2.732,0,0,1,2.194-.957,2.115,2.115,0,0,1,2.112,1.189,2.8,2.8,0,0,1,.96-.861,2.837,2.837,0,0,1,1.4-.328q2.434,0,2.475,2.577V29H54.208V24.119a1.7,1.7,0,0,0-.362-1.186,1.6,1.6,0,0,0-1.217-.393,1.677,1.677,0,0,0-1.169.42,1.706,1.706,0,0,0-.54,1.131V29H49.648V24.153a1.411,1.411,0,0,0-1.579-1.613,1.692,1.692,0,0,0-1.7,1.06V29H45.1V21.6ZM58.753,29H57.489V21.6h1.265Zm-1.367-9.358a.755.755,0,0,1,.188-.52.706.706,0,0,1,.557-.212.717.717,0,0,1,.561.212.747.747,0,0,1,.191.52.722.722,0,0,1-.191.513.73.73,0,0,1-.561.205.718.718,0,0,1-.557-.205A.73.73,0,0,1,57.386,19.642ZM63.744,28.1a1.822,1.822,0,0,0,1.183-.41,1.443,1.443,0,0,0,.561-1.025h1.2a2.293,2.293,0,0,1-.437,1.21,2.882,2.882,0,0,1-1.077.916,3.107,3.107,0,0,1-1.425.342,3.047,3.047,0,0,1-2.4-1.008,4.016,4.016,0,0,1-.892-2.758v-.212a4.453,4.453,0,0,1,.4-1.921,3.02,3.02,0,0,1,1.138-1.306,3.233,3.233,0,0,1,1.753-.465,2.966,2.966,0,0,1,2.068.745,2.663,2.663,0,0,1,.878,1.935h-1.2a1.743,1.743,0,0,0-.543-1.179,1.691,1.691,0,0,0-1.207-.461,1.77,1.77,0,0,0-1.494.694,3.259,3.259,0,0,0-.53,2.006v.239a3.194,3.194,0,0,0,.526,1.969A1.779,1.779,0,0,0,63.744,28.1Zm8.928.9a2.657,2.657,0,0,1-.178-.779,2.822,2.822,0,0,1-2.105.916,2.611,2.611,0,0,1-1.794-.619,2,2,0,0,1-.7-1.569,2.091,2.091,0,0,1,.878-1.794,4.141,4.141,0,0,1,2.471-.639h1.23v-.581a1.42,1.42,0,0,0-.4-1.056,1.593,1.593,0,0,0-1.169-.393,1.844,1.844,0,0,0-1.135.342,1.007,1.007,0,0,0-.458.827H68.043a1.745,1.745,0,0,1,.393-1.07,2.683,2.683,0,0,1,1.066-.817,3.588,3.588,0,0,1,1.48-.3,2.924,2.924,0,0,1,2,.639,2.306,2.306,0,0,1,.752,1.76v3.4a4.162,4.162,0,0,0,.26,1.62V29Zm-2.1-.964a2.223,2.223,0,0,0,1.128-.308,1.861,1.861,0,0,0,.772-.8V25.411h-.991q-2.324,0-2.324,1.36a1.151,1.151,0,0,0,.4.93A1.524,1.524,0,0,0,70.573,28.036Zm9.454-1a.931.931,0,0,0-.386-.8,3.718,3.718,0,0,0-1.347-.489,6.367,6.367,0,0,1-1.524-.492,2.169,2.169,0,0,1-.834-.684,1.635,1.635,0,0,1-.27-.943,1.919,1.919,0,0,1,.769-1.538,3,3,0,0,1,1.965-.629,3.091,3.091,0,0,1,2.041.649,2.063,2.063,0,0,1,.783,1.661H79.952a1.142,1.142,0,0,0-.441-.9,1.652,1.652,0,0,0-1.111-.376,1.729,1.729,0,0,0-1.08.3.947.947,0,0,0-.39.786.767.767,0,0,0,.362.69,4.458,4.458,0,0,0,1.309.444,6.821,6.821,0,0,1,1.535.506,2.239,2.239,0,0,1,.872.708,1.74,1.74,0,0,1,.284,1.008,1.893,1.893,0,0,1-.793,1.589,3.326,3.326,0,0,1-2.058.6,3.725,3.725,0,0,1-1.572-.314,2.557,2.557,0,0,1-1.07-.878,2.117,2.117,0,0,1-.386-1.22h1.265a1.309,1.309,0,0,0,.509,1.008,1.976,1.976,0,0,0,1.254.373,2.039,2.039,0,0,0,1.152-.291A.893.893,0,0,0,80.027,27.038Z" transform="translate(720 7060)" fill="#12263f"/>
    <path id="Trazado_721356" data-name="Trazado 721356" d="M29.123,9.842a3.662,3.662,0,0,1-1.166,2.437,3.82,3.82,0,0,1-2.608.858,3.507,3.507,0,0,1-2.827-1.265A5.088,5.088,0,0,1,21.46,8.488V7.531a5.671,5.671,0,0,1,.5-2.44,3.7,3.7,0,0,1,1.4-1.617,3.911,3.911,0,0,1,2.105-.564,3.6,3.6,0,0,1,2.543.885,3.706,3.706,0,0,1,1.114,2.451H27.8a2.86,2.86,0,0,0-.742-1.728,2.244,2.244,0,0,0-1.6-.535,2.348,2.348,0,0,0-1.972.93,4.272,4.272,0,0,0-.714,2.648v.965a4.391,4.391,0,0,0,.677,2.579,2.187,2.187,0,0,0,1.894.958,2.526,2.526,0,0,0,1.678-.5A2.75,2.75,0,0,0,27.8,9.842ZM35.282,13a2.657,2.657,0,0,1-.178-.779A2.822,2.822,0,0,1,33,13.137a2.611,2.611,0,0,1-1.794-.619,2,2,0,0,1-.7-1.569,2.091,2.091,0,0,1,.878-1.794,4.142,4.142,0,0,1,2.471-.639h1.23V7.935a1.42,1.42,0,0,0-.4-1.056,1.593,1.593,0,0,0-1.169-.393,1.844,1.844,0,0,0-1.135.342,1.007,1.007,0,0,0-.458.827H30.654a1.745,1.745,0,0,1,.393-1.07,2.683,2.683,0,0,1,1.066-.817,3.588,3.588,0,0,1,1.48-.3,2.924,2.924,0,0,1,2,.639,2.306,2.306,0,0,1,.752,1.76v3.4a4.162,4.162,0,0,0,.26,1.62V13Zm-2.1-.964a2.223,2.223,0,0,0,1.128-.308,1.861,1.861,0,0,0,.772-.8V9.411h-.991q-2.324,0-2.324,1.36a1.151,1.151,0,0,0,.4.93A1.524,1.524,0,0,0,33.184,12.036ZM39.705,13H38.44V2.5h1.265Zm3.4,0H41.838V5.6H43.1ZM41.735,3.642a.755.755,0,0,1,.188-.52.706.706,0,0,1,.557-.212.717.717,0,0,1,.561.212.747.747,0,0,1,.191.52.722.722,0,0,1-.191.513.73.73,0,0,1-.561.205.718.718,0,0,1-.557-.205A.73.73,0,0,1,41.735,3.642Zm3.083,5.6A4.333,4.333,0,0,1,45.625,6.5a2.745,2.745,0,0,1,4.17-.147V2.5H51.06V13H49.9l-.062-.793a2.575,2.575,0,0,1-2.112.93,2.526,2.526,0,0,1-2.1-1.053,4.382,4.382,0,0,1-.81-2.748Zm1.265.144a3.281,3.281,0,0,0,.52,1.969,1.68,1.68,0,0,0,1.436.711,1.845,1.845,0,0,0,1.757-1.08v-3.4A1.859,1.859,0,0,0,48.052,6.54a1.687,1.687,0,0,0-1.449.718A3.612,3.612,0,0,0,46.083,9.384ZM57.588,13a2.657,2.657,0,0,1-.178-.779,2.822,2.822,0,0,1-2.105.916,2.611,2.611,0,0,1-1.794-.619,2,2,0,0,1-.7-1.569,2.091,2.091,0,0,1,.878-1.794,4.142,4.142,0,0,1,2.471-.639h1.23V7.935a1.42,1.42,0,0,0-.4-1.056,1.593,1.593,0,0,0-1.169-.393,1.844,1.844,0,0,0-1.135.342,1.007,1.007,0,0,0-.458.827H52.96a1.745,1.745,0,0,1,.393-1.07,2.683,2.683,0,0,1,1.066-.817,3.588,3.588,0,0,1,1.48-.3,2.924,2.924,0,0,1,2,.639,2.306,2.306,0,0,1,.752,1.76v3.4a4.162,4.162,0,0,0,.26,1.62V13Zm-2.1-.964a2.223,2.223,0,0,0,1.128-.308,1.861,1.861,0,0,0,.772-.8V9.411H56.4q-2.324,0-2.324,1.36a1.151,1.151,0,0,0,.4.93A1.524,1.524,0,0,0,55.489,12.036Zm4.84-2.8A4.333,4.333,0,0,1,61.136,6.5a2.745,2.745,0,0,1,4.17-.147V2.5H66.57V13H65.408l-.062-.793a2.575,2.575,0,0,1-2.112.93,2.526,2.526,0,0,1-2.1-1.053,4.382,4.382,0,0,1-.81-2.748Zm1.265.144a3.281,3.281,0,0,0,.52,1.969,1.68,1.68,0,0,0,1.436.711,1.845,1.845,0,0,0,1.757-1.08v-3.4A1.859,1.859,0,0,0,63.563,6.54a1.687,1.687,0,0,0-1.449.718A3.612,3.612,0,0,0,61.594,9.384Zm10.1-.144A4.333,4.333,0,0,1,72.5,6.5a2.745,2.745,0,0,1,4.17-.147V2.5h1.265V13H76.77l-.062-.793a2.575,2.575,0,0,1-2.112.93,2.526,2.526,0,0,1-2.1-1.053,4.382,4.382,0,0,1-.81-2.748Zm1.265.144a3.281,3.281,0,0,0,.52,1.969,1.68,1.68,0,0,0,1.436.711,1.845,1.845,0,0,0,1.757-1.08v-3.4A1.859,1.859,0,0,0,74.924,6.54a1.687,1.687,0,0,0-1.449.718A3.612,3.612,0,0,0,72.955,9.384Zm10.008,3.753a3.232,3.232,0,0,1-2.447-.988,3.666,3.666,0,0,1-.943-2.642V9.274a4.438,4.438,0,0,1,.42-1.965,3.28,3.28,0,0,1,1.176-1.354,2.956,2.956,0,0,1,1.637-.489,2.77,2.77,0,0,1,2.242.95,4.114,4.114,0,0,1,.8,2.721v.526H80.837a2.629,2.629,0,0,0,.639,1.767,2.009,2.009,0,0,0,1.555.673,2.2,2.2,0,0,0,1.135-.273,2.851,2.851,0,0,0,.813-.725l.772.6A3.106,3.106,0,0,1,82.963,13.137Zm-.157-6.631a1.687,1.687,0,0,0-1.285.557,2.708,2.708,0,0,0-.643,1.562h3.705v-.1a2.409,2.409,0,0,0-.52-1.494A1.588,1.588,0,0,0,82.806,6.506ZM39.565,29H38.3V18.5h1.265Zm6.59,0a2.657,2.657,0,0,1-.178-.779,2.822,2.822,0,0,1-2.105.916,2.611,2.611,0,0,1-1.794-.619,2,2,0,0,1-.7-1.569,2.091,2.091,0,0,1,.878-1.794,4.142,4.142,0,0,1,2.471-.639h1.23v-.581a1.42,1.42,0,0,0-.4-1.056,1.593,1.593,0,0,0-1.169-.393,1.844,1.844,0,0,0-1.135.342,1.007,1.007,0,0,0-.458.827H41.527a1.745,1.745,0,0,1,.393-1.07,2.683,2.683,0,0,1,1.066-.817,3.588,3.588,0,0,1,1.48-.3,2.924,2.924,0,0,1,2,.639,2.306,2.306,0,0,1,.752,1.76v3.4a4.162,4.162,0,0,0,.26,1.62V29Zm-2.1-.964a2.223,2.223,0,0,0,1.128-.308,1.861,1.861,0,0,0,.772-.8V25.411h-.991q-2.324,0-2.324,1.36a1.151,1.151,0,0,0,.4.93A1.524,1.524,0,0,0,44.056,28.036ZM54.043,29H52.779V18.5h1.265Zm6.59-.731a2.686,2.686,0,0,1-2.167.868,2.3,2.3,0,0,1-1.8-.687,2.974,2.974,0,0,1-.625-2.034V21.6H57.3v4.778q0,1.682,1.367,1.682a1.893,1.893,0,0,0,1.928-1.08V21.6h1.265V29h-1.2Zm4.341-.3H69.3V29H63.429v-.93l4.081-5.421h-4.02V21.6H69.1v.9Z" transform="translate(1074 6858)" fill="#12263f"/>
    <path id="Trazado_721341" data-name="Trazado 721341" d="M31.56,8.4H27.247v3.527h5.011V13H25.934V3.047h6.255V4.12H27.247V7.326H31.56ZM35,5.6v8.251q0,2.133-1.935,2.133a2.36,2.36,0,0,1-.772-.122V14.859a2.445,2.445,0,0,0,.574.055.859.859,0,0,0,.646-.229,1.133,1.133,0,0,0,.222-.8V5.6ZM33.6,3.642a.758.758,0,0,1,.188-.516.691.691,0,0,1,.55-.215.717.717,0,0,1,.561.212.747.747,0,0,1,.191.52.722.722,0,0,1-.191.513.73.73,0,0,1-.561.205.707.707,0,0,1-.554-.205A.738.738,0,0,1,33.6,3.642Zm6.5,9.5a3.232,3.232,0,0,1-2.447-.988,3.666,3.666,0,0,1-.943-2.642V9.274a4.438,4.438,0,0,1,.42-1.965,3.28,3.28,0,0,1,1.176-1.354,2.956,2.956,0,0,1,1.637-.489,2.77,2.77,0,0,1,2.242.95,4.114,4.114,0,0,1,.8,2.721v.526H37.979a2.629,2.629,0,0,0,.639,1.767,2.009,2.009,0,0,0,1.555.673,2.2,2.2,0,0,0,1.135-.273,2.851,2.851,0,0,0,.813-.725l.772.6A3.106,3.106,0,0,1,40.1,13.137Zm-.157-6.631a1.687,1.687,0,0,0-1.285.557,2.708,2.708,0,0,0-.643,1.562h3.705v-.1a2.409,2.409,0,0,0-.52-1.494A1.588,1.588,0,0,0,39.948,6.506Zm5.694-.9.034.82a2.732,2.732,0,0,1,2.194-.957,2.115,2.115,0,0,1,2.112,1.189,2.8,2.8,0,0,1,.96-.861,2.837,2.837,0,0,1,1.4-.328q2.434,0,2.475,2.577V13H53.551V8.119a1.7,1.7,0,0,0-.362-1.186,1.6,1.6,0,0,0-1.217-.393,1.677,1.677,0,0,0-1.169.42,1.706,1.706,0,0,0-.54,1.131V13H48.992V8.153A1.411,1.411,0,0,0,47.413,6.54a1.692,1.692,0,0,0-1.7,1.06V13H44.446V5.6Zm17.329,3.78A4.429,4.429,0,0,1,62.2,12.1a2.476,2.476,0,0,1-2.092,1.032,2.713,2.713,0,0,1-2.119-.854v3.562H56.723V5.6h1.155l.062.82a2.605,2.605,0,0,1,2.146-.957,2.522,2.522,0,0,1,2.109,1,4.477,4.477,0,0,1,.776,2.8ZM61.707,9.24a3.268,3.268,0,0,0-.533-1.976A1.718,1.718,0,0,0,59.71,6.54a1.859,1.859,0,0,0-1.723,1.019v3.534A1.863,1.863,0,0,0,59.724,12.1a1.71,1.71,0,0,0,1.446-.721A3.567,3.567,0,0,0,61.707,9.24ZM65.952,13H64.687V2.5h1.265ZM67.64,9.233a4.369,4.369,0,0,1,.427-1.955,3.187,3.187,0,0,1,1.189-1.34A3.238,3.238,0,0,1,71,5.467,3.119,3.119,0,0,1,73.44,6.513a4.024,4.024,0,0,1,.933,2.782v.089a4.407,4.407,0,0,1-.414,1.938,3.14,3.14,0,0,1-1.183,1.336,3.275,3.275,0,0,1-1.767.479,3.111,3.111,0,0,1-2.437-1.046,4,4,0,0,1-.933-2.769Zm1.271.15a3.164,3.164,0,0,0,.571,1.976,1.934,1.934,0,0,0,3.059-.01,3.46,3.46,0,0,0,.567-2.116,3.159,3.159,0,0,0-.578-1.972A1.836,1.836,0,0,0,71,6.506a1.816,1.816,0,0,0-1.511.745A3.435,3.435,0,0,0,68.912,9.384Zm11.354,1.654a.931.931,0,0,0-.386-.8,3.718,3.718,0,0,0-1.347-.489,6.367,6.367,0,0,1-1.524-.492,2.169,2.169,0,0,1-.834-.684,1.635,1.635,0,0,1-.27-.943A1.919,1.919,0,0,1,76.674,6.1a3,3,0,0,1,1.965-.629,3.091,3.091,0,0,1,2.041.649,2.063,2.063,0,0,1,.783,1.661H80.191a1.142,1.142,0,0,0-.441-.9,1.652,1.652,0,0,0-1.111-.376,1.729,1.729,0,0,0-1.08.3.947.947,0,0,0-.39.786.767.767,0,0,0,.362.69,4.458,4.458,0,0,0,1.309.444,6.821,6.821,0,0,1,1.535.506,2.239,2.239,0,0,1,.872.708,1.74,1.74,0,0,1,.284,1.008,1.893,1.893,0,0,1-.793,1.589,3.326,3.326,0,0,1-2.058.6,3.725,3.725,0,0,1-1.572-.314,2.557,2.557,0,0,1-1.07-.878,2.117,2.117,0,0,1-.386-1.22h1.265a1.309,1.309,0,0,0,.509,1.008,1.976,1.976,0,0,0,1.254.373,2.039,2.039,0,0,0,1.152-.291A.893.893,0,0,0,80.266,11.038Z" transform="translate(894 7068)" fill="#12263f"/>
    <path id="Trazado_721359" data-name="Trazado 721359" d="M35.169,8.4H30.856v3.527h5.011V13H29.543V3.047H35.8V4.12H30.856V7.326h4.313Zm3.438-2.8v8.251q0,2.133-1.935,2.133a2.36,2.36,0,0,1-.772-.122V14.859a2.445,2.445,0,0,0,.574.055.859.859,0,0,0,.646-.229,1.133,1.133,0,0,0,.222-.8V5.6ZM37.213,3.642a.758.758,0,0,1,.188-.516.691.691,0,0,1,.55-.215.717.717,0,0,1,.561.212.747.747,0,0,1,.191.52.722.722,0,0,1-.191.513.73.73,0,0,1-.561.205.707.707,0,0,1-.554-.205A.738.738,0,0,1,37.213,3.642Zm6.5,9.5a3.232,3.232,0,0,1-2.447-.988,3.666,3.666,0,0,1-.943-2.642V9.274a4.438,4.438,0,0,1,.42-1.965A3.28,3.28,0,0,1,41.92,5.956a2.956,2.956,0,0,1,1.637-.489,2.77,2.77,0,0,1,2.242.95,4.114,4.114,0,0,1,.8,2.721v.526H41.588a2.629,2.629,0,0,0,.639,1.767,2.009,2.009,0,0,0,1.555.673,2.2,2.2,0,0,0,1.135-.273,2.851,2.851,0,0,0,.813-.725l.772.6A3.106,3.106,0,0,1,43.714,13.137Zm-.157-6.631a1.687,1.687,0,0,0-1.285.557,2.708,2.708,0,0,0-.643,1.562h3.705v-.1a2.409,2.409,0,0,0-.52-1.494A1.588,1.588,0,0,0,43.557,6.506Zm5.694-.9.034.82a2.732,2.732,0,0,1,2.194-.957,2.115,2.115,0,0,1,2.112,1.189,2.8,2.8,0,0,1,.96-.861,2.837,2.837,0,0,1,1.4-.328q2.434,0,2.475,2.577V13H57.161V8.119A1.7,1.7,0,0,0,56.8,6.933a1.6,1.6,0,0,0-1.217-.393,1.677,1.677,0,0,0-1.169.42,1.706,1.706,0,0,0-.54,1.131V13H52.6V8.153A1.411,1.411,0,0,0,51.022,6.54a1.692,1.692,0,0,0-1.7,1.06V13H48.055V5.6Zm17.329,3.78a4.429,4.429,0,0,1-.772,2.721,2.476,2.476,0,0,1-2.092,1.032,2.713,2.713,0,0,1-2.119-.854v3.562H60.333V5.6h1.155l.062.82A2.605,2.605,0,0,1,63.7,5.467a2.522,2.522,0,0,1,2.109,1,4.477,4.477,0,0,1,.776,2.8ZM65.316,9.24a3.268,3.268,0,0,0-.533-1.976A1.718,1.718,0,0,0,63.32,6.54,1.859,1.859,0,0,0,61.6,7.559v3.534A1.863,1.863,0,0,0,63.333,12.1a1.71,1.71,0,0,0,1.446-.721A3.567,3.567,0,0,0,65.316,9.24ZM69.561,13H68.3V2.5h1.265ZM71.25,9.233a4.369,4.369,0,0,1,.427-1.955,3.187,3.187,0,0,1,1.189-1.34,3.238,3.238,0,0,1,1.74-.472A3.119,3.119,0,0,1,77.05,6.513a4.024,4.024,0,0,1,.933,2.782v.089a4.407,4.407,0,0,1-.414,1.938,3.14,3.14,0,0,1-1.183,1.336,3.275,3.275,0,0,1-1.767.479,3.111,3.111,0,0,1-2.437-1.046,4,4,0,0,1-.933-2.769Zm1.271.15a3.164,3.164,0,0,0,.571,1.976,1.934,1.934,0,0,0,3.059-.01,3.46,3.46,0,0,0,.567-2.116,3.159,3.159,0,0,0-.578-1.972,1.836,1.836,0,0,0-1.535-.755,1.816,1.816,0,0,0-1.511.745A3.435,3.435,0,0,0,72.521,9.384Z" transform="translate(1253 6864)" fill="#12263f"/>
    <g transform="matrix(1, 0, 0, 1, 525, 6725)" filter="url(#Trazado_721363)">
      <g id="Trazado_721363-2" data-name="Trazado 721363" transform="translate(348 7)" fill="#81d4fa">
        <path d="M 157 54 L 12 54 C 9.06180477142334 54 6.299456596374512 52.85580444335938 4.221826076507568 50.77817535400391 C 2.144195556640625 48.70054244995117 1 45.93819427490234 1 43 L 1 12 C 1 9.06180477142334 2.144195556640625 6.299456596374512 4.221826076507568 4.221826076507568 C 6.299456596374512 2.144195556640625 9.06180477142334 1 12 1 L 157 1 C 159.9382019042969 1 162.7005462646484 2.144195556640625 164.7781677246094 4.221826076507568 C 166.8558044433594 6.299456596374512 168 9.06180477142334 168 12 L 168 43 C 168 45.93819427490234 166.8558044433594 48.70054244995117 164.7781677246094 50.77817535400391 C 162.7005462646484 52.85580444335938 159.9382019042969 54 157 54 Z" stroke="none"/>
        <path d="M 12 2 C 6.485977172851562 2 2 6.485977172851562 2 12 L 2 43 C 2 48.51402282714844 6.485977172851562 53 12 53 L 157 53 C 162.5140228271484 53 167 48.51402282714844 167 43 L 167 12 C 167 6.485977172851562 162.5140228271484 2 157 2 L 12 2 M 12 0 L 157 0 C 163.6274108886719 0 169 5.372589111328125 169 12 L 169 43 C 169 49.62741088867188 163.6274108886719 55 157 55 L 12 55 C 5.372589111328125 55 0 49.62741088867188 0 43 L 0 12 C 0 5.372589111328125 5.372589111328125 0 12 0 Z" stroke="none" fill="#fff"/>
      </g>
    </g>
    <g transform="matrix(1, 0, 0, 1, 525, 6725)" filter="url(#Trazado_721345)">
      <g id="Trazado_721345-2" data-name="Trazado 721345" transform="translate(168 211)" fill="#88f2ff">
        <path d="M 157 54 L 12 54 C 9.06180477142334 54 6.299456596374512 52.85580444335938 4.221826076507568 50.77817535400391 C 2.144195556640625 48.70054244995117 1 45.93819427490234 1 43 L 1 12 C 1 9.06180477142334 2.144195556640625 6.299456596374512 4.221826076507568 4.221826076507568 C 6.299456596374512 2.144195556640625 9.06180477142334 1 12 1 L 157 1 C 159.9382019042969 1 162.7005462646484 2.144195556640625 164.7781677246094 4.221826076507568 C 166.8558044433594 6.299456596374512 168 9.06180477142334 168 12 L 168 43 C 168 45.93819427490234 166.8558044433594 48.70054244995117 164.7781677246094 50.77817535400391 C 162.7005462646484 52.85580444335938 159.9382019042969 54 157 54 Z" stroke="none"/>
        <path d="M 12 2 C 6.485977172851562 2 2 6.485977172851562 2 12 L 2 43 C 2 48.51402282714844 6.485977172851562 53 12 53 L 157 53 C 162.5140228271484 53 167 48.51402282714844 167 43 L 167 12 C 167 6.485977172851562 162.5140228271484 2 157 2 L 12 2 M 12 0 L 157 0 C 163.6274108886719 0 169 5.372589111328125 169 12 L 169 43 C 169 49.62741088867188 163.6274108886719 55 157 55 L 12 55 C 5.372589111328125 55 0 49.62741088867188 0 43 L 0 12 C 0 5.372589111328125 5.372589111328125 0 12 0 Z" stroke="none" fill="#fff"/>
      </g>
    </g>
    <g transform="matrix(1, 0, 0, 1, 525, 6725)" filter="url(#Trazado_720574)">
      <g id="Trazado_720574-2" data-name="Trazado 720574" transform="translate(562 211)" fill="#cbbff4">
        <path d="M 157 54 L 12 54 C 9.06180477142334 54 6.299456596374512 52.85580444335938 4.221826076507568 50.77817535400391 C 2.144195556640625 48.70054244995117 1 45.93819427490234 1 43 L 1 12 C 1 9.06180477142334 2.144195556640625 6.299456596374512 4.221826076507568 4.221826076507568 C 6.299456596374512 2.144195556640625 9.06180477142334 1 12 1 L 157 1 C 159.9382019042969 1 162.7005462646484 2.144195556640625 164.7781677246094 4.221826076507568 C 166.8558044433594 6.299456596374512 168 9.06180477142334 168 12 L 168 43 C 168 45.93819427490234 166.8558044433594 48.70054244995117 164.7781677246094 50.77817535400391 C 162.7005462646484 52.85580444335938 159.9382019042969 54 157 54 Z" stroke="none"/>
        <path d="M 12 2 C 6.485977172851562 2 2 6.485977172851562 2 12 L 2 43 C 2 48.51402282714844 6.485977172851562 53 12 53 L 157 53 C 162.5140228271484 53 167 48.51402282714844 167 43 L 167 12 C 167 6.485977172851562 162.5140228271484 2 157 2 L 12 2 M 12 0 L 157 0 C 163.6274108886719 0 169 5.372589111328125 169 12 L 169 43 C 169 49.62741088867188 163.6274108886719 55 157 55 L 12 55 C 5.372589111328125 55 0 49.62741088867188 0 43 L 0 12 C 0 5.372589111328125 5.372589111328125 0 12 0 Z" stroke="none" fill="#fff"/>
      </g>
    </g>
    <path id="Trazado_721364" data-name="Trazado 721364" d="M53.121,11.211A4.025,4.025,0,0,1,51.766,14.1a4.76,4.76,0,0,1-3.223,1.055A4.281,4.281,0,0,1,45.1,13.684a6.038,6.038,0,0,1-1.254-4.043v-.7a6.819,6.819,0,0,1,.578-2.891,4.332,4.332,0,0,1,1.652-1.918,5.164,5.164,0,0,1,5.668.387,4.326,4.326,0,0,1,1.391,2.961H50.793a2.376,2.376,0,0,0-.613-1.6,2.271,2.271,0,0,0-1.605-.5,1.991,1.991,0,0,0-1.754.84,4.707,4.707,0,0,0-.6,2.605V9.7a5.038,5.038,0,0,0,.559,2.7,1.954,1.954,0,0,0,1.762.852,2.314,2.314,0,0,0,1.621-.5,2.241,2.241,0,0,0,.613-1.535ZM56.895,15H54.629V3h2.266Zm4.242,0H58.871V6.547h2.266Zm-2.4-10.641a1.112,1.112,0,0,1,.34-.836,1.465,1.465,0,0,1,1.848,0,1.105,1.105,0,0,1,.344.836,1.108,1.108,0,0,1-.348.844,1.448,1.448,0,0,1-1.836,0A1.108,1.108,0,0,1,58.738,4.359Zm6.375,2.188.07.945a2.971,2.971,0,0,1,2.43-1.1A2.255,2.255,0,0,1,69.855,7.68a2.9,2.9,0,0,1,2.539-1.289,2.521,2.521,0,0,1,2.047.8,3.681,3.681,0,0,1,.672,2.41V15H72.848V9.609a1.61,1.61,0,0,0-.281-1.051,1.246,1.246,0,0,0-.992-.332,1.409,1.409,0,0,0-1.406.969l.008,5.8H67.918V9.617a1.59,1.59,0,0,0-.289-1.062,1.259,1.259,0,0,0-.984-.328,1.463,1.463,0,0,0-1.391.8V15H63V6.547ZM81.746,15a2.507,2.507,0,0,1-.227-.758,2.732,2.732,0,0,1-2.133.914,3,3,0,0,1-2.059-.719,2.312,2.312,0,0,1-.816-1.812,2.389,2.389,0,0,1,1-2.062,4.915,4.915,0,0,1,2.879-.727h1.039V9.352a1.393,1.393,0,0,0-.3-.937,1.183,1.183,0,0,0-.949-.352,1.345,1.345,0,0,0-.895.273.929.929,0,0,0-.324.75H76.7a2.268,2.268,0,0,1,.453-1.359,3,3,0,0,1,1.281-.98,4.669,4.669,0,0,1,1.859-.355,3.689,3.689,0,0,1,2.48.785,2.747,2.747,0,0,1,.918,2.207v3.664a4.041,4.041,0,0,0,.336,1.82V15Zm-1.867-1.57a1.945,1.945,0,0,0,.922-.223,1.462,1.462,0,0,0,.625-.6V11.156h-.844q-1.7,0-1.8,1.172l-.008.133a.9.9,0,0,0,.3.7A1.153,1.153,0,0,0,79.879,13.43ZM80.738,3H83.2L81.035,5.422H79.2Zm7.391,1.469V6.547h1.445V8.2H88.129v4.219a1.007,1.007,0,0,0,.18.672.9.9,0,0,0,.688.2,3.6,3.6,0,0,0,.664-.055v1.711a4.648,4.648,0,0,1-1.367.2,2.156,2.156,0,0,1-2.422-2.4V8.2H84.637V6.547h1.234V4.469ZM93.215,15H90.949V6.547h2.266Zm-2.4-10.641a1.112,1.112,0,0,1,.34-.836,1.465,1.465,0,0,1,1.848,0,1.105,1.105,0,0,1,.344.836A1.108,1.108,0,0,1,93,5.2a1.448,1.448,0,0,1-1.836,0A1.108,1.108,0,0,1,90.816,4.359Zm7.773,8.977a1.481,1.481,0,0,0,1.016-.344,1.2,1.2,0,0,0,.406-.914h2.117a2.9,2.9,0,0,1-.469,1.574,3.093,3.093,0,0,1-1.262,1.109,3.949,3.949,0,0,1-1.77.395A3.67,3.67,0,0,1,95.77,14a4.56,4.56,0,0,1-1.047-3.184v-.148a4.508,4.508,0,0,1,1.039-3.117,3.627,3.627,0,0,1,2.852-1.164,3.555,3.555,0,0,1,2.543.9,3.2,3.2,0,0,1,.973,2.4h-2.117a1.551,1.551,0,0,0-.406-1.072,1.51,1.51,0,0,0-2.223.163,3.333,3.333,0,0,0-.4,1.866v.235a3.375,3.375,0,0,0,.4,1.878A1.377,1.377,0,0,0,98.59,13.336Zm4.477-2.641a5.013,5.013,0,0,1,.484-2.242,3.546,3.546,0,0,1,1.395-1.523,4.069,4.069,0,0,1,2.113-.539,3.849,3.849,0,0,1,2.793,1.047,4.2,4.2,0,0,1,1.207,2.844l.016.578a4.418,4.418,0,0,1-1.086,3.121,4.209,4.209,0,0,1-5.832,0,4.5,4.5,0,0,1-1.09-3.187Zm2.258.16a3.16,3.16,0,0,0,.453,1.843,1.628,1.628,0,0,0,2.578.008,3.457,3.457,0,0,0,.461-2.015,3.128,3.128,0,0,0-.461-1.831,1.5,1.5,0,0,0-1.3-.649,1.474,1.474,0,0,0-1.281.646A3.516,3.516,0,0,0,105.324,10.856Zm11.719,1.808a.727.727,0,0,0-.41-.652,4.659,4.659,0,0,0-1.316-.426q-3.016-.633-3.016-2.562a2.323,2.323,0,0,1,.934-1.879,3.766,3.766,0,0,1,2.441-.754,4.053,4.053,0,0,1,2.574.758,2.388,2.388,0,0,1,.965,1.969h-2.258a1.092,1.092,0,0,0-.312-.8A1.322,1.322,0,0,0,115.668,8a1.351,1.351,0,0,0-.883.258.814.814,0,0,0-.312.656.7.7,0,0,0,.355.605,3.657,3.657,0,0,0,1.2.4,9.8,9.8,0,0,1,1.422.379,2.336,2.336,0,0,1,1.789,2.273,2.2,2.2,0,0,1-.992,1.871,4.28,4.28,0,0,1-2.562.715,4.47,4.47,0,0,1-1.887-.379,3.166,3.166,0,0,1-1.293-1.039,2.414,2.414,0,0,1-.469-1.426h2.141a1.179,1.179,0,0,0,.445.922,1.766,1.766,0,0,0,1.109.32,1.635,1.635,0,0,0,.98-.246A.766.766,0,0,0,117.043,12.664Z" transform="translate(876 6750)" fill="#12263f"/>
    <path id="Trazado_721346" data-name="Trazado 721346" d="M58.461,10.07h-4.5v3.047h5.281V15H51.617V3.625h7.609v1.9H53.961V8.234h4.5Zm1.508.641a5.094,5.094,0,0,1,.887-3.148,2.877,2.877,0,0,1,2.426-1.172,2.589,2.589,0,0,1,2.039.922V3h2.266V15H65.547l-.109-.9a2.657,2.657,0,0,1-2.172,1.055,2.869,2.869,0,0,1-2.395-1.176A5.258,5.258,0,0,1,59.969,10.711Zm2.258.168a3.337,3.337,0,0,0,.414,1.823,1.349,1.349,0,0,0,1.2.634,1.511,1.511,0,0,0,1.477-.884V9.111a1.489,1.489,0,0,0-1.461-.884Q62.227,8.227,62.227,10.879ZM74.234,15a2.507,2.507,0,0,1-.227-.758,2.732,2.732,0,0,1-2.133.914,3,3,0,0,1-2.059-.719A2.312,2.312,0,0,1,69,12.625a2.389,2.389,0,0,1,1-2.062,4.915,4.915,0,0,1,2.879-.727h1.039V9.352a1.393,1.393,0,0,0-.3-.937,1.183,1.183,0,0,0-.949-.352,1.345,1.345,0,0,0-.895.273.929.929,0,0,0-.324.75H69.188a2.268,2.268,0,0,1,.453-1.359,3,3,0,0,1,1.281-.98,4.669,4.669,0,0,1,1.859-.355,3.689,3.689,0,0,1,2.48.785,2.747,2.747,0,0,1,.918,2.207v3.664a4.041,4.041,0,0,0,.336,1.82V15Zm-1.867-1.57a1.945,1.945,0,0,0,.922-.223,1.462,1.462,0,0,0,.625-.6V11.156H73.07q-1.7,0-1.8,1.172l-.008.133a.9.9,0,0,0,.3.7A1.153,1.153,0,0,0,72.367,13.43ZM73.227,3h2.461L73.523,5.422H71.688Zm5.234,12V8.2H77.2V6.547h1.258V6.156a3.17,3.17,0,0,1,.98-2.457,3.945,3.945,0,0,1,2.723-.863,9.031,9.031,0,0,1,2.563.461L84.4,5.164a10,10,0,0,0-1.187-.293A5.835,5.835,0,0,0,82.3,4.8q-1.578,0-1.578,1.4v.344h1.664V8.2H80.727V15Zm7.32,0H83.516V6.547h2.266Zm5.383-1.664a1.481,1.481,0,0,0,1.016-.344,1.2,1.2,0,0,0,.406-.914H94.7a2.9,2.9,0,0,1-.469,1.574,3.093,3.093,0,0,1-1.262,1.109,3.949,3.949,0,0,1-1.77.395A3.67,3.67,0,0,1,88.344,14,4.56,4.56,0,0,1,87.3,10.82v-.148a4.508,4.508,0,0,1,1.039-3.117,3.627,3.627,0,0,1,2.852-1.164,3.555,3.555,0,0,1,2.543.9A3.2,3.2,0,0,1,94.7,9.7H92.586a1.551,1.551,0,0,0-.406-1.072,1.51,1.51,0,0,0-2.223.163,3.333,3.333,0,0,0-.4,1.866v.235a3.375,3.375,0,0,0,.4,1.878A1.377,1.377,0,0,0,91.164,13.336ZM95.641,10.7a5.013,5.013,0,0,1,.484-2.242A3.546,3.546,0,0,1,97.52,6.93a4.069,4.069,0,0,1,2.113-.539,3.849,3.849,0,0,1,2.793,1.047,4.2,4.2,0,0,1,1.207,2.844l.016.578a4.418,4.418,0,0,1-1.086,3.121,4.209,4.209,0,0,1-5.832,0,4.5,4.5,0,0,1-1.09-3.187Zm2.258.16a3.16,3.16,0,0,0,.453,1.843,1.628,1.628,0,0,0,2.578.008,3.457,3.457,0,0,0,.461-2.015,3.128,3.128,0,0,0-.461-1.831,1.5,1.5,0,0,0-1.3-.649,1.474,1.474,0,0,0-1.281.646A3.516,3.516,0,0,0,97.9,10.856Zm11.719,1.808a.727.727,0,0,0-.41-.652,4.659,4.659,0,0,0-1.316-.426q-3.016-.633-3.016-2.562a2.323,2.323,0,0,1,.934-1.879,3.766,3.766,0,0,1,2.441-.754,4.053,4.053,0,0,1,2.574.758,2.388,2.388,0,0,1,.965,1.969h-2.258a1.092,1.092,0,0,0-.312-.8A1.322,1.322,0,0,0,108.242,8a1.351,1.351,0,0,0-.883.258.814.814,0,0,0-.312.656.7.7,0,0,0,.355.605,3.657,3.657,0,0,0,1.2.4,9.8,9.8,0,0,1,1.422.379,2.336,2.336,0,0,1,1.789,2.273,2.2,2.2,0,0,1-.992,1.871,4.28,4.28,0,0,1-2.562.715,4.47,4.47,0,0,1-1.887-.379,3.166,3.166,0,0,1-1.293-1.039,2.414,2.414,0,0,1-.469-1.426h2.141a1.179,1.179,0,0,0,.445.922,1.766,1.766,0,0,0,1.109.32,1.635,1.635,0,0,0,.98-.246A.766.766,0,0,0,109.617,12.664Z" transform="translate(696 6954)" fill="#12263f"/>
    <path id="Trazado_721347" data-name="Trazado 721347" d="M44.059,5.523H40.574V15H38.23V5.523H34.793v-1.9h9.266ZM43.27,10.7a5.013,5.013,0,0,1,.484-2.242A3.546,3.546,0,0,1,45.148,6.93a4.069,4.069,0,0,1,2.113-.539,3.849,3.849,0,0,1,2.793,1.047,4.2,4.2,0,0,1,1.207,2.844l.016.578a4.418,4.418,0,0,1-1.086,3.121,4.209,4.209,0,0,1-5.832,0A4.5,4.5,0,0,1,43.27,10.8Zm2.258.16A3.16,3.16,0,0,0,45.98,12.7a1.628,1.628,0,0,0,2.578.008,3.457,3.457,0,0,0,.461-2.015,3.128,3.128,0,0,0-.461-1.831,1.5,1.5,0,0,0-1.3-.649,1.474,1.474,0,0,0-1.281.646A3.516,3.516,0,0,0,45.527,10.856Zm14.75,0a5.07,5.07,0,0,1-.887,3.129A2.843,2.843,0,0,1,57,15.156a2.633,2.633,0,0,1-2.07-.891V18.25H52.668V6.547h2.094l.078.828a2.654,2.654,0,0,1,2.141-.984,2.862,2.862,0,0,1,2.43,1.156,5.207,5.207,0,0,1,.867,3.188Zm-2.258-.164a3.327,3.327,0,0,0-.418-1.82,1.361,1.361,0,0,0-1.215-.641,1.479,1.479,0,0,0-1.461.813V12.5a1.5,1.5,0,0,0,1.477.836Q58.02,13.336,58.02,10.688Zm3.3.008a5.013,5.013,0,0,1,.484-2.242A3.546,3.546,0,0,1,63.2,6.93a4.069,4.069,0,0,1,2.113-.539,3.849,3.849,0,0,1,2.793,1.047,4.2,4.2,0,0,1,1.207,2.844l.016.578a4.418,4.418,0,0,1-1.086,3.121,4.209,4.209,0,0,1-5.832,0,4.5,4.5,0,0,1-1.09-3.187Zm2.258.16a3.16,3.16,0,0,0,.453,1.843,1.628,1.628,0,0,0,2.578.008,3.457,3.457,0,0,0,.461-2.015,3.128,3.128,0,0,0-.461-1.831,1.5,1.5,0,0,0-1.3-.649,1.474,1.474,0,0,0-1.281.646A3.516,3.516,0,0,0,63.582,10.856Zm6.813-.145a4.954,4.954,0,0,1,.926-3.133,3,3,0,0,1,2.5-1.187,2.631,2.631,0,0,1,2.164.953l.094-.8h2.047v8.172a3.613,3.613,0,0,1-.5,1.93A3.236,3.236,0,0,1,76.2,17.9a4.985,4.985,0,0,1-2.141.43,4.635,4.635,0,0,1-1.812-.371A3.217,3.217,0,0,1,70.91,17l1-1.375a2.645,2.645,0,0,0,2.047.945,1.936,1.936,0,0,0,1.4-.48,1.8,1.8,0,0,0,.5-1.363v-.453a2.612,2.612,0,0,1-2.055.883,2.992,2.992,0,0,1-2.465-1.191,4.953,4.953,0,0,1-.941-3.16Zm2.258.168a3.085,3.085,0,0,0,.461,1.8,1.466,1.466,0,0,0,1.266.653,1.568,1.568,0,0,0,1.477-.775V9a1.564,1.564,0,0,0-1.461-.775,1.476,1.476,0,0,0-1.277.665A3.477,3.477,0,0,0,72.652,10.879ZM84.605,8.664a6.134,6.134,0,0,0-.812-.062,1.654,1.654,0,0,0-1.68.867V15H79.855V6.547h2.133l.063,1.008a2.092,2.092,0,0,1,1.883-1.164,2.366,2.366,0,0,1,.7.1ZM90.355,15a2.507,2.507,0,0,1-.227-.758A2.732,2.732,0,0,1,88,15.156a3,3,0,0,1-2.059-.719,2.312,2.312,0,0,1-.816-1.812,2.389,2.389,0,0,1,1-2.062A4.915,4.915,0,0,1,89,9.836h1.039V9.352a1.393,1.393,0,0,0-.3-.937,1.183,1.183,0,0,0-.949-.352,1.345,1.345,0,0,0-.895.273.929.929,0,0,0-.324.75H85.309a2.268,2.268,0,0,1,.453-1.359,3,3,0,0,1,1.281-.98A4.669,4.669,0,0,1,88.9,6.391a3.689,3.689,0,0,1,2.48.785A2.747,2.747,0,0,1,92.3,9.383v3.664a4.041,4.041,0,0,0,.336,1.82V15Zm-1.867-1.57a1.945,1.945,0,0,0,.922-.223,1.462,1.462,0,0,0,.625-.6V11.156h-.844q-1.7,0-1.8,1.172l-.008.133a.9.9,0,0,0,.3.7A1.153,1.153,0,0,0,88.488,13.43ZM89.348,3h2.461L89.645,5.422H87.809Zm5.234,12V8.2H93.324V6.547h1.258V6.156a3.17,3.17,0,0,1,.98-2.457,3.945,3.945,0,0,1,2.723-.863,9.031,9.031,0,0,1,2.563.461l-.328,1.867a10,10,0,0,0-1.187-.293,5.835,5.835,0,0,0-.906-.066q-1.578,0-1.578,1.4v.344h1.664V8.2H96.848V15Zm7.32,0H99.637V6.547H101.9Zm5.383-1.664a1.481,1.481,0,0,0,1.016-.344,1.2,1.2,0,0,0,.406-.914h2.117a2.9,2.9,0,0,1-.469,1.574,3.093,3.093,0,0,1-1.262,1.109,3.949,3.949,0,0,1-1.77.395A3.67,3.67,0,0,1,104.465,14a4.56,4.56,0,0,1-1.047-3.184v-.148a4.508,4.508,0,0,1,1.039-3.117,3.627,3.627,0,0,1,2.852-1.164,3.555,3.555,0,0,1,2.543.9,3.2,3.2,0,0,1,.973,2.4h-2.117a1.551,1.551,0,0,0-.406-1.072,1.51,1.51,0,0,0-2.223.163,3.333,3.333,0,0,0-.4,1.866v.235a3.375,3.375,0,0,0,.4,1.878A1.377,1.377,0,0,0,107.285,13.336Zm4.477-2.641a5.013,5.013,0,0,1,.484-2.242,3.546,3.546,0,0,1,1.395-1.523,4.069,4.069,0,0,1,2.113-.539,3.849,3.849,0,0,1,2.793,1.047,4.2,4.2,0,0,1,1.207,2.844l.016.578a4.418,4.418,0,0,1-1.086,3.121,4.209,4.209,0,0,1-5.832,0,4.5,4.5,0,0,1-1.09-3.187Zm2.258.16a3.16,3.16,0,0,0,.453,1.843,1.628,1.628,0,0,0,2.578.008,3.457,3.457,0,0,0,.461-2.015,3.128,3.128,0,0,0-.461-1.831,1.5,1.5,0,0,0-1.3-.649,1.474,1.474,0,0,0-1.281.646A3.516,3.516,0,0,0,114.02,10.856Zm11.719,1.808a.727.727,0,0,0-.41-.652,4.659,4.659,0,0,0-1.316-.426Q121,10.953,121,9.023a2.323,2.323,0,0,1,.934-1.879,3.766,3.766,0,0,1,2.441-.754,4.053,4.053,0,0,1,2.574.758,2.388,2.388,0,0,1,.965,1.969h-2.258a1.092,1.092,0,0,0-.312-.8A1.322,1.322,0,0,0,124.363,8a1.351,1.351,0,0,0-.883.258.814.814,0,0,0-.312.656.7.7,0,0,0,.355.605,3.657,3.657,0,0,0,1.2.4,9.8,9.8,0,0,1,1.422.379,2.336,2.336,0,0,1,1.789,2.273,2.2,2.2,0,0,1-.992,1.871,4.28,4.28,0,0,1-2.562.715,4.47,4.47,0,0,1-1.887-.379,3.166,3.166,0,0,1-1.293-1.039,2.414,2.414,0,0,1-.469-1.426h2.141a1.179,1.179,0,0,0,.445.922,1.766,1.766,0,0,0,1.109.32,1.635,1.635,0,0,0,.98-.246A.766.766,0,0,0,125.738,12.664Z" transform="translate(1090 6954)" fill="#12263f"/>
  </g>
</svg>
