<svg xmlns="http://www.w3.org/2000/svg" width="135" height="136" viewBox="0 0 135 136">
  <g id="Grupo_1008840" data-name="Grupo 1008840" transform="translate(-990.667 -3773)">
    <g id="Grupo_1008448" data-name="Grupo 1008448">
      <ellipse id="Elipse_154" data-name="Elipse 154" cx="57.5" cy="58" rx="57.5" ry="58" transform="translate(1000.667 3783)" fill="#fff"/>
      <g id="Elipse_157" data-name="Elipse 157" transform="translate(1000.667 3783)" fill="none" stroke="#fff" stroke-linejoin="round" stroke-width="10" opacity="0.25">
        <ellipse cx="57.5" cy="58" rx="57.5" ry="58" stroke="none"/>
        <ellipse cx="57.5" cy="58" rx="62.5" ry="63" fill="none"/>
      </g>
      <g id="_048-herbalism" data-name="048-herbalism" transform="translate(1033.667 3804)">
        <g id="Grupo_1008445" data-name="Grupo 1008445" transform="translate(2.856 1.244)">
          <g id="Grupo_1008409" data-name="Grupo 1008409">
            <g id="Grupo_1008383" data-name="Grupo 1008383" transform="translate(28.093 15.766)">
              <g id="Grupo_1008382" data-name="Grupo 1008382">
                <g id="Grupo_1008381" data-name="Grupo 1008381">
                  <g id="Grupo_1008380" data-name="Grupo 1008380">
                    <g id="Grupo_1008379" data-name="Grupo 1008379">
                      <path id="Trazado_720610" data-name="Trazado 720610" d="M316.843,120.994a14.482,14.482,0,0,0-.43-2.273,14.482,14.482,0,0,0-2.273-.43,10.927,10.927,0,0,0-9.058,2.92c-2.852,2.852-3.63,7.122-2.49,11.331,4.209,1.14,8.478.362,11.331-2.49A10.927,10.927,0,0,0,316.843,120.994Z" transform="translate(-302.088 -118.216)" fill="#c3f839"/>
                    </g>
                  </g>
                </g>
              </g>
            </g>
            <g id="Grupo_1008388" data-name="Grupo 1008388" transform="translate(0 15.771)">
              <g id="Grupo_1008387" data-name="Grupo 1008387">
                <g id="Grupo_1008386" data-name="Grupo 1008386">
                  <g id="Grupo_1008385" data-name="Grupo 1008385">
                    <g id="Grupo_1008384" data-name="Grupo 1008384">
                      <path id="Trazado_720611" data-name="Trazado 720611" d="M106.92,121.029a14.482,14.482,0,0,1,.43-2.273,14.484,14.484,0,0,1,2.273-.43,10.927,10.927,0,0,1,9.058,2.92c2.852,2.852,3.63,7.122,2.49,11.331-4.209,1.14-8.478.362-11.331-2.49a10.927,10.927,0,0,1-2.92-9.058Z" transform="translate(-106.844 -118.251)" fill="#c3f839"/>
                    </g>
                  </g>
                </g>
              </g>
            </g>
            <g id="Grupo_1008393" data-name="Grupo 1008393" transform="translate(28.093 15.766)">
              <g id="Grupo_1008392" data-name="Grupo 1008392">
                <g id="Grupo_1008391" data-name="Grupo 1008391">
                  <g id="Grupo_1008390" data-name="Grupo 1008390">
                    <g id="Grupo_1008389" data-name="Grupo 1008389">
                      <path id="Trazado_720612" data-name="Trazado 720612" d="M309.189,121.211c-2.853,2.852-3.63,7.121-2.49,11.329a14.612,14.612,0,0,0,1.6.34,13.417,13.417,0,0,1-5.7-.34c-1.14-4.208-.363-8.478,2.49-11.329a10.919,10.919,0,0,1,9.058-2.921c.223.025.448.053.672.089a10.227,10.227,0,0,0-5.623,2.832Z" transform="translate(-302.088 -118.214)" fill="#54e072"/>
                    </g>
                  </g>
                </g>
              </g>
            </g>
            <g id="Grupo_1008398" data-name="Grupo 1008398" transform="translate(0 15.772)">
              <g id="Grupo_1008397" data-name="Grupo 1008397">
                <g id="Grupo_1008396" data-name="Grupo 1008396">
                  <g id="Grupo_1008395" data-name="Grupo 1008395">
                    <g id="Grupo_1008394" data-name="Grupo 1008394">
                      <path id="Trazado_720613" data-name="Trazado 720613" d="M119.574,132.921a11.088,11.088,0,0,1-9.736-2.83,10.923,10.923,0,0,1-2.919-9.058,14.5,14.5,0,0,1,.429-2.272,14.521,14.521,0,0,1,2.273-.43,12.788,12.788,0,0,1,3.433.089,14.609,14.609,0,0,0-1.6.342,14.5,14.5,0,0,0-.429,2.272,10.923,10.923,0,0,0,2.919,9.058,10.219,10.219,0,0,0,5.629,2.83Z" transform="translate(-106.843 -118.256)" fill="#54e072"/>
                    </g>
                  </g>
                </g>
              </g>
            </g>
            <g id="Grupo_1008403" data-name="Grupo 1008403" transform="translate(15.211)">
              <g id="Grupo_1008402" data-name="Grupo 1008402">
                <g id="Grupo_1008401" data-name="Grupo 1008401">
                  <g id="Grupo_1008400" data-name="Grupo 1008400">
                    <g id="Grupo_1008399" data-name="Grupo 1008399">
                      <path id="Trazado_720614" data-name="Trazado 720614" d="M220.719,9.945a14.472,14.472,0,0,0-1.911-1.3,14.492,14.492,0,0,0-1.911,1.3,10.927,10.927,0,0,0-4.34,8.47c0,4.034,2.469,7.6,6.251,9.773,3.782-2.17,6.251-5.739,6.251-9.773a10.927,10.927,0,0,0-4.34-8.47Z" transform="translate(-212.557 -8.642)" fill="#c3f839"/>
                    </g>
                  </g>
                </g>
              </g>
            </g>
            <g id="Grupo_1008408" data-name="Grupo 1008408" transform="translate(15.211 0.891)">
              <g id="Grupo_1008407" data-name="Grupo 1008407">
                <g id="Grupo_1008406" data-name="Grupo 1008406">
                  <g id="Grupo_1008405" data-name="Grupo 1008405">
                    <g id="Grupo_1008404" data-name="Grupo 1008404">
                      <path id="Trazado_720615" data-name="Trazado 720615" d="M215.464,20.813c0,4.034,2.468,7.6,6.25,9.772a14.63,14.63,0,0,0,1.368-.887,13.418,13.418,0,0,1-4.272,3.791c-3.782-2.17-6.251-5.738-6.25-9.772a10.919,10.919,0,0,1,4.34-8.47c.175-.141.354-.28.538-.412A10.229,10.229,0,0,0,215.464,20.813Z" transform="translate(-212.56 -14.835)" fill="#54e072"/>
                    </g>
                  </g>
                </g>
              </g>
            </g>
          </g>
          <g id="Grupo_1008432" data-name="Grupo 1008432" transform="translate(0.479 62.01)">
            <g id="Grupo_1008420" data-name="Grupo 1008420">
              <g id="Grupo_1008414" data-name="Grupo 1008414">
                <g id="Grupo_1008413" data-name="Grupo 1008413">
                  <g id="Grupo_1008412" data-name="Grupo 1008412">
                    <g id="Grupo_1008411" data-name="Grupo 1008411">
                      <g id="Grupo_1008410" data-name="Grupo 1008410">
                        <path id="Trazado_720616" data-name="Trazado 720616" d="M131.157,444.274a4.671,4.671,0,0,1-4.67,4.67H114.844a4.669,4.669,0,1,1,0-9.337h11.644A4.668,4.668,0,0,1,131.157,444.274Z" transform="translate(-110.174 -439.606)" fill="#e3edf6"/>
                      </g>
                    </g>
                  </g>
                </g>
              </g>
              <g id="Grupo_1008419" data-name="Grupo 1008419" transform="translate(10.492)">
                <g id="Grupo_1008418" data-name="Grupo 1008418">
                  <g id="Grupo_1008417" data-name="Grupo 1008417">
                    <g id="Grupo_1008416" data-name="Grupo 1008416">
                      <g id="Grupo_1008415" data-name="Grupo 1008415">
                        <path id="Trazado_720617" data-name="Trazado 720617" d="M193.581,444.274a4.671,4.671,0,0,1-4.67,4.67h-5.822v-9.337h5.822A4.668,4.668,0,0,1,193.581,444.274Z" transform="translate(-183.089 -439.606)" fill="#f05475"/>
                      </g>
                    </g>
                  </g>
                </g>
              </g>
            </g>
            <g id="Grupo_1008431" data-name="Grupo 1008431" transform="translate(20.982)">
              <g id="Grupo_1008425" data-name="Grupo 1008425">
                <g id="Grupo_1008424" data-name="Grupo 1008424">
                  <g id="Grupo_1008423" data-name="Grupo 1008423">
                    <g id="Grupo_1008422" data-name="Grupo 1008422">
                      <g id="Grupo_1008421" data-name="Grupo 1008421">
                        <path id="Trazado_720618" data-name="Trazado 720618" d="M276.98,444.274a4.671,4.671,0,0,1-4.67,4.67H260.667a4.669,4.669,0,1,1,0-9.337h11.644A4.668,4.668,0,0,1,276.98,444.274Z" transform="translate(-255.997 -439.606)" fill="#e3edf6"/>
                      </g>
                    </g>
                  </g>
                </g>
              </g>
              <g id="Grupo_1008430" data-name="Grupo 1008430" transform="translate(10.491)">
                <g id="Grupo_1008429" data-name="Grupo 1008429">
                  <g id="Grupo_1008428" data-name="Grupo 1008428">
                    <g id="Grupo_1008427" data-name="Grupo 1008427">
                      <g id="Grupo_1008426" data-name="Grupo 1008426">
                        <path id="Trazado_720619" data-name="Trazado 720619" d="M339.4,444.274a4.671,4.671,0,0,1-4.67,4.67h-5.822v-9.337h5.822A4.668,4.668,0,0,1,339.4,444.274Z" transform="translate(-328.911 -439.606)" fill="#f05475"/>
                      </g>
                    </g>
                  </g>
                </g>
              </g>
            </g>
          </g>
          <g id="Grupo_1008443" data-name="Grupo 1008443" transform="translate(10.97 52.671)">
            <g id="Grupo_1008437" data-name="Grupo 1008437">
              <g id="Grupo_1008436" data-name="Grupo 1008436">
                <g id="Grupo_1008435" data-name="Grupo 1008435">
                  <g id="Grupo_1008434" data-name="Grupo 1008434">
                    <g id="Grupo_1008433" data-name="Grupo 1008433">
                      <path id="Trazado_720620" data-name="Trazado 720620" d="M204.068,379.369a4.671,4.671,0,0,1-4.67,4.67H187.755a4.67,4.67,0,0,1,0-9.339H199.4a4.67,4.67,0,0,1,4.67,4.67Z" transform="translate(-183.085 -374.699)" fill="#e3edf6"/>
                    </g>
                  </g>
                </g>
              </g>
            </g>
            <g id="Grupo_1008442" data-name="Grupo 1008442" transform="translate(10.492 0)">
              <g id="Grupo_1008441" data-name="Grupo 1008441">
                <g id="Grupo_1008440" data-name="Grupo 1008440">
                  <g id="Grupo_1008439" data-name="Grupo 1008439">
                    <g id="Grupo_1008438" data-name="Grupo 1008438">
                      <path id="Trazado_720621" data-name="Trazado 720621" d="M266.492,379.369a4.671,4.671,0,0,1-4.67,4.67H256V374.7h5.822A4.67,4.67,0,0,1,266.492,379.369Z" transform="translate(-256 -374.7)" fill="#f05475"/>
                    </g>
                  </g>
                </g>
              </g>
            </g>
          </g>
          <g id="Grupo_1008444" data-name="Grupo 1008444" transform="translate(0.482 52.586)">
            <path id="Trazado_720622" data-name="Trazado 720622" d="M118.456,448.347h-3.6a4.668,4.668,0,1,1,0-9.337h3.6a4.668,4.668,0,1,0,0,9.337Z" transform="translate(-110.19 -429.672)" fill="#c5d9ec"/>
            <path id="Trazado_720623" data-name="Trazado 720623" d="M264.266,448.347h-3.6a4.668,4.668,0,1,1,0-9.337h3.6a4.668,4.668,0,1,0,0,9.337Z" transform="translate(-235.02 -429.672)" fill="#c5d9ec"/>
            <path id="Trazado_720624" data-name="Trazado 720624" d="M191.356,383.448h-3.6a4.669,4.669,0,0,1,0-9.338h3.6a4.669,4.669,0,0,0,0,9.338Z" transform="translate(-172.601 -374.11)" fill="#c5d9ec"/>
          </g>
        </g>
        <g id="Grupo_1008447" data-name="Grupo 1008447" transform="translate(0 0)">
          <g id="Grupo_1008446" data-name="Grupo 1008446">
            <path id="Trazado_720625" data-name="Trazado 720625" d="M105.412,31.623l.981-1.923a8.774,8.774,0,0,1-2.221-1.612c-2.52-2.52-3.148-6.171-2.363-9.677,3.507-.785,7.157-.157,9.677,2.363a9.8,9.8,0,0,1,2.646,7.723l-6.5-5.785L106.2,24.323l7.022,6.251a11.565,11.565,0,0,1-5-.174l-.565,2.083a13.009,13.009,0,0,0,3.4.441,15.214,15.214,0,0,0,3.968-.541l.176-.048,6.674,5.941,6.679-5.946a14.284,14.284,0,0,0,4.129.587,11.309,11.309,0,0,0,10.7-6.639L141.41,25.4c-1.852,4.186-6.267,5.965-10.879,5.164l7.023-6.252L136.118,22.7l-6.5,5.785c-.477-7.039,5.095-11.7,12.323-10.084a11.958,11.958,0,0,1,.067,5.158l2.108.463a14.559,14.559,0,0,0-.405-7.391c-.173,0-7.6-2.766-12.973,2.607a12.267,12.267,0,0,0-3.078,10.991l-4.705,4.189V21.4a12.594,12.594,0,0,0,6.2-9.318l-2.148-.211a10.094,10.094,0,0,1-4.051,6.9V9.723H120.8v9.041C115,14.212,115.363,6.635,121.876,2.5A11.865,11.865,0,0,1,125.7,6.318L127.551,5.2a13.478,13.478,0,0,0-3.086-3.493A17.73,17.73,0,0,0,121.876,0l-.536.307c-8.9,5.092-9.02,15.775-.543,21.092v13.03l-4.705-4.189a12.267,12.267,0,0,0-3.078-10.992,11.933,11.933,0,0,0-9.935-3.23,17.727,17.727,0,0,0-3.038.623,17.748,17.748,0,0,0-.624,3.038,11.937,11.937,0,0,0,3.23,9.935A10.934,10.934,0,0,0,105.412,31.623Z" transform="translate(-97.558 0)"/>
            <path id="Trazado_720626" data-name="Trazado 720626" d="M288.815,53.558l2.142-.268a11.018,11.018,0,0,0-.555-2.33l-2.034.725A8.837,8.837,0,0,1,288.815,53.558Z" transform="translate(-259.393 -43.627)"/>
            <path id="Trazado_720627" data-name="Trazado 720627" d="M98.028,282.606l-1.685-1.349-2.752,3.436v-8.064H91.433v8.064l-2.752-3.436L87,282.606l5.516,6.888Z" transform="translate(-86.996 -236.825)"/>
            <path id="Trazado_720628" data-name="Trazado 720628" d="M354.93,276.629h-2.158v8.064l-2.752-3.436-1.685,1.349,5.516,6.888,5.516-6.888-1.685-1.349-2.752,3.436Z" transform="translate(-310.732 -236.825)"/>
            <path id="Trazado_720629" data-name="Trazado 720629" d="M141.055,376.539h-6.007a5.753,5.753,0,0,0-4.485-9.338H118.919a5.753,5.753,0,0,0-4.485,9.338h-6.006a5.748,5.748,0,1,0,0,11.5h11.644a5.744,5.744,0,0,0,4.669-2.4,5.744,5.744,0,0,0,4.669,2.4h11.644a5.748,5.748,0,0,0,0-11.5Zm-6.9-3.59a3.594,3.594,0,0,1-3.59,3.59H125.82v-7.18h4.743A3.594,3.594,0,0,1,134.153,372.949Zm-18.824,0a3.594,3.594,0,0,1,3.59-3.59h4.743v7.18h-4.743A3.594,3.594,0,0,1,115.329,372.949Zm-10.49,9.338a3.594,3.594,0,0,1,3.59-3.59h4.743v7.18h-4.743A3.594,3.594,0,0,1,104.839,382.287Zm15.234,3.59H115.33V378.7h4.743a3.59,3.59,0,0,1,0,7.18Zm5.748-3.59a3.594,3.594,0,0,1,3.59-3.59h4.743v7.18H129.41A3.594,3.594,0,0,1,125.821,382.287Zm15.234,3.59h-4.743V378.7h4.743a3.59,3.59,0,0,1,0,7.18Z" transform="translate(-100.423 -314.365)"/>
          </g>
        </g>
      </g>
    </g>
  </g>
</svg>
