<svg xmlns="http://www.w3.org/2000/svg" width="90" height="90" viewBox="0 0 90 90">
  <g id="Grupo_1008790" data-name="Grupo 1008790" transform="translate(-600 -4779)">
    <rect id="Rectángulo_346077" data-name="Rectángulo 346077" width="90" height="90" transform="translate(600 4779)" fill="none"/>
    <g id="_029-beaker" data-name="029-beaker" transform="translate(618 4788)">
      <g id="Grupo_1008702" data-name="Grupo 1008702" transform="translate(1.846 1.063)">
        <path id="Trazado_720979" data-name="Trazado 720979" d="M130.112,96.82V150.3a4.25,4.25,0,0,1-4.25,4.25H89.841a4.25,4.25,0,0,1-4.25-4.25V107.7L79.278,96.82Z" transform="translate(-79.278 -84.166)" fill="#e3edf6"/>
        <path id="Trazado_720980" data-name="Trazado 720980" d="M93.383,154.555H89.841a4.25,4.25,0,0,1-4.25-4.25V107.7L79.278,96.82H82.82l6.313,10.88v42.6A4.25,4.25,0,0,0,93.383,154.555Z" transform="translate(-79.278 -84.166)" fill="#c5d9ec"/>
        <path id="Trazado_720981" data-name="Trazado 720981" d="M168.359,281.031v20.752a4.25,4.25,0,0,1-4.25,4.25H128.088a4.25,4.25,0,0,1-4.25-4.25V273.3h14.076a12.542,12.542,0,0,1,9.051,3.865,12.53,12.53,0,0,0,9.051,3.866Z" transform="translate(-117.525 -235.644)" fill="#2ec2f1"/>
        <path id="Trazado_720982" data-name="Trazado 720982" d="M131.63,306.033h-3.542a4.25,4.25,0,0,1-4.25-4.25V273.3h3.542v28.483a4.25,4.25,0,0,0,4.25,4.25Z" transform="translate(-117.525 -235.644)" fill="#00adeb"/>
        <g id="Grupo_1008701" data-name="Grupo 1008701" transform="translate(38.427 45.387)">
          <path id="Trazado_720983" data-name="Trazado 720983" d="M350.522,327.869h5.959" transform="translate(-350.522 -327.869)" fill="#e3edf6"/>
        </g>
        <path id="Trazado_720984" data-name="Trazado 720984" d="M206.746,71.461a2.591,2.591,0,0,1-2.591-2.591V10.091a2.591,2.591,0,1,1,5.183,0V68.87A2.591,2.591,0,0,1,206.746,71.461Z" transform="translate(-186.464 -7.5)" fill="#f05475"/>
        <path id="Trazado_720985" data-name="Trazado 720985" d="M206.855,273.3h-2.7v23.714a2.591,2.591,0,1,0,5.182,0V273.549A12.519,12.519,0,0,0,206.855,273.3Z" transform="translate(-186.466 -235.644)" fill="#e21743"/>
      </g>
      <g id="Grupo_1008704" data-name="Grupo 1008704" transform="translate(0 0)">
        <path id="Trazado_720986" data-name="Trazado 720986" d="M102.282,12.654v2.125h15.586V45.387H107.586V39.781h4.9V37.656h-4.9V32.05h4.9V29.925h-4.9V24.319h4.9V22.194h-7.021V45.33A11.53,11.53,0,0,1,98.3,41.849a13.649,13.649,0,0,0-6.271-3.716V14.779h8.094V12.654H92.033v-9a3.654,3.654,0,0,0-7.308,0v9H66.251l7.1,12.229V45.125h2.125V39.781h9.253V62.432a3.654,3.654,0,0,0,7.308,0V51.665H89.908V62.432a1.529,1.529,0,0,1-3.058,0V39.781a23.507,23.507,0,0,1,3.058.094v9.619h2.125V40.351a11.5,11.5,0,0,1,4.736,2.968,13.666,13.666,0,0,0,8.692,4.145v15.51h7.021V60.849h-4.9V55.243h4.9V53.118h-4.9V47.512h10.282V67.2a3.191,3.191,0,0,1-3.188,3.188H78.66A3.191,3.191,0,0,1,75.472,67.2V51.539H73.347V67.2a5.319,5.319,0,0,0,5.313,5.313h36.02a5.319,5.319,0,0,0,5.313-5.313V12.654Zm-17.557,25H75.472V24.311l-5.531-9.532H84.725V37.656Zm5.183.076a28.57,28.57,0,0,0-3.058-.076V14.779h3.058Zm0-25.078H86.85v-9a1.529,1.529,0,0,1,3.058,0Z" transform="translate(-66.251 0)"/>
        <path id="Trazado_720987" data-name="Trazado 720987" d="M116.34,333.852h2.125v2.121H116.34Z" transform="translate(-109.244 -286.555)"/>
        <g id="Grupo_1008703" data-name="Grupo 1008703" transform="translate(11.942 59.242)">
          <path id="Trazado_720988" data-name="Trazado 720988" d="M150.546,418.165h2.125v2.092h-2.125Z" transform="translate(-150.546 -418.165)" fill="#fff"/>
          <path id="Trazado_720989" data-name="Trazado 720989" d="M150.546,448.147h2.125v2.092h-2.125Z" transform="translate(-150.546 -443.899)" fill="#fff"/>
        </g>
      </g>
    </g>
  </g>
</svg>
