<svg xmlns="http://www.w3.org/2000/svg" width="90" height="90" viewBox="0 0 90 90">
  <g id="Grupo_1008817" data-name="Grupo 1008817" transform="translate(3241 7617.153)">
    <rect id="Rectángulo_351185" data-name="Rectángulo 351185" width="90" height="90" transform="translate(-3241 -7617.153)" fill="none"/>
    <g id="Grupo_1008803" data-name="Grupo 1008803" transform="translate(43.008 663.978)">
      <path id="Trazado_721056" data-name="Trazado 721056" d="M217.138,7.5v7.76h-3.9v6.42h-9.013v-6.42h-3.9V7.5Z" transform="translate(-3448.227 -8281.125)" fill="#e3edf6"/>
      <path id="Trazado_721057" data-name="Trazado 721057" d="M217.138,12.233v3.03h-9.516v6.42h-3.4v-6.42h-3.9V7.5h3.373v4.73Z" transform="translate(-3448.227 -8281.125)" fill="#c5d9ec"/>
      <path id="Trazado_721058" data-name="Trazado 721058" d="M181.4,122.161a16.133,16.133,0,1,1-21.2-15.318c.187-.062.375-.121.565-.175V101.5h9.013v5.173A16.138,16.138,0,0,1,181.4,122.161Z" transform="translate(-3404.764 -8360.937)" fill="#88f2ff"/>
      <path id="Trazado_721059" data-name="Trazado 721059" d="M166.965,138.2a16.135,16.135,0,0,1-6.772-31.361c.187-.062.375-.121.565-.175V101.5h3.4v5.173c-.19.054-.378.113-.565.175a16.135,16.135,0,0,0,3.372,31.361Z" transform="translate(-3404.763 -8360.937)" fill="#00bcd4"/>
      <path id="Trazado_721060" data-name="Trazado 721060" d="M207.785,321.281l-8.63-14.36-8.63,14.36a10.135,10.135,0,1,0,17.26,0Z" transform="translate(-3438.662 -8535.369)" fill="#ff9d00"/>
      <path id="Trazado_721061" data-name="Trazado 721061" d="M230.476,407.506l-4.569-7.6-4.569,7.6a5.365,5.365,0,1,0,9.137,0Z" transform="translate(-3465.415 -8614.324)" fill="#f05475"/>
      <path id="Trazado_721062" data-name="Trazado 721062" d="M201.033,336.56a10.55,10.55,0,0,1-2.207.164,10.178,10.178,0,0,1-8.3-15.445l8.63-14.36,1.886,3.138L194.3,321.28A10.205,10.205,0,0,0,201.033,336.56Z" transform="translate(-3438.663 -8535.368)" fill="#ff9d00"/>
      <path id="Trazado_721063" data-name="Trazado 721063" d="M227.789,415.346a5.374,5.374,0,0,1-6.453-7.844l4.568-7.6,1.886,3.138-2.682,4.464A5.42,5.42,0,0,0,227.789,415.346Z" transform="translate(-3465.413 -8614.32)" fill="#e21743"/>
      <g id="Grupo_1008801" data-name="Grupo 1008801" transform="translate(-3262.785 -8274.754)">
        <path id="Trazado_721064" data-name="Trazado 721064" d="M316.7,309.283l1.381,1.793a17.341,17.341,0,0,0,1.835-1.634l-1.621-1.579A15.071,15.071,0,0,1,316.7,309.283Z" transform="translate(-284.264 -261.414)"/>
        <path id="Trazado_721065" data-name="Trazado 721065" d="M310.948,207.562h2.493v2.263h-2.493Z" transform="translate(-279.381 -176.247)" fill="#fff"/>
        <path id="Trazado_721066" data-name="Trazado 721066" d="M296.14,177.876h2.493v2.263H296.14Z" transform="translate(-266.807 -151.04)" fill="#fff"/>
        <path id="Trazado_721067" data-name="Trazado 721067" d="M148.269,77.246c-6.658-45.253-6-38.982-6-41.268a17.266,17.266,0,0,0-11.626-16.32V10.024h3.9V0H115.46V10.024h3.9v9.634a17.2,17.2,0,0,0-4.247,2.167l1.3,1.854a15.547,15.547,0,0,1,5.213-2.34v-4.9h6.75v4.891l.816.237A15.069,15.069,0,0,1,140,35.817H110A15.052,15.052,0,0,1,114.784,25l-1.542-1.657a17.315,17.315,0,0,0-5.488,13.411l-6.039,40.5h2.238l5.187-34.467a17.321,17.321,0,0,0,10.816,9.713l-4.562,7.591a11.266,11.266,0,1,0,19.2,0l-4.56-7.588a17.105,17.105,0,0,0,3.4-1.448l-1.108-1.973a14.85,14.85,0,0,1-3.5,1.412l-3.833-6.377-3.83,6.374a15.038,15.038,0,0,1-11.014-12.4h29.705a14.929,14.929,0,0,1-2.749,6.761l1.825,1.338a17.238,17.238,0,0,0,1.921-3.354l5.18,34.421ZM117.723,2.263H132.28v5.5H117.723Zm3.9,11.918V10.024h6.75v4.157Zm11.027,47.068a9.154,9.154,0,0,1-1.419,11.2,6.555,6.555,0,0,0-.7-5.1l-.34-.567-1.94,1.165.34.567a4.234,4.234,0,1,1-7.2,0l3.6-5.988,2.107,3.506,1.94-1.166-4.047-6.734-5.538,9.216a6.485,6.485,0,0,0-.707,5.093,9.11,9.11,0,0,1-1.414-11.2l7.66-12.746Z" transform="translate(-101.715 0)"/>
      </g>
    </g>
  </g>
</svg>
