<svg xmlns="http://www.w3.org/2000/svg" width="90" height="90" viewBox="0 0 90 90">
  <g id="Grupo_1008812" data-name="Grupo 1008812" transform="translate(2828 7617)">
    <g id="Grupo_1008808" data-name="Grupo 1008808">
      <rect id="Rectángulo_351186" data-name="Rectángulo 351186" width="90" height="90" transform="translate(-2828 -7617)" fill="none"/>
    </g>
    <g id="Grupo_1008804" data-name="Grupo 1008804" transform="translate(-197.785 206.15)">
      <path id="Trazado_721068" data-name="Trazado 721068" d="M5.843,0H17.429a5.843,5.843,0,0,1,5.843,5.843V30.387a1.6,1.6,0,0,1-1.6,1.6H1.6a1.6,1.6,0,0,1-1.6-1.6V5.843A5.843,5.843,0,0,1,5.843,0Z" transform="translate(-2543.002 -7752.148) rotate(180)" fill="#8290ad"/>
      <path id="Trazado_721069" data-name="Trazado 721069" d="M284.486,150.448h-3.938v24.833a7.483,7.483,0,0,1-.69,3.2c-.86,1.818-2.784,3.957-7.076,3.957h7.465a5.843,5.843,0,0,0,5.843-5.842V152.052A1.6,1.6,0,0,0,284.486,150.448Z" transform="translate(-2829.091 -7934.588)" fill="#404a66"/>
      <path id="Trazado_721070" data-name="Trazado 721070" d="M75,193.944h56.68a.436.436,0,0,0,.2-.823c-2.466-1.251-6.959-4.216-11.788-10.775-5.179-7.034-9.365-12.247-12.479-14.656a5.511,5.511,0,0,0-6.009-.5c-2.079,1.138-3.931,2.164-7.721,8.879,0,0-6.479,13.062-18.991,17.185a.355.355,0,0,0,.108.694Z" transform="translate(-2687.302 -7946.093)" fill="#afd182"/>
      <path id="Trazado_721071" data-name="Trazado 721071" d="M21.3,173.529a18.462,18.462,0,0,0-.637,8.4,10.564,10.564,0,0,0,7.233,8.4,18.4,18.4,0,0,0,5.674.776s-.1-10.856-11.455-17.871a.549.549,0,0,0-.815.293Z" transform="translate(-2648.515 -7950.835)" fill="#afd182"/>
      <path id="Trazado_721072" data-name="Trazado 721072" d="M75.774,153.774s-5.418-3.208-2.687-10.652a32.86,32.86,0,0,1,7.418-11.57.547.547,0,0,1,.827.063c.927,1.262,3.122,5.046,2.235,11.7a13.781,13.781,0,0,1-4.3,8.421,8.588,8.588,0,0,1-3.5,2.042Z" transform="translate(-2685.638 -7920.952)" fill="#afd182"/>
      <path id="Trazado_721073" data-name="Trazado 721073" d="M161.77,190.579c-2.435,1.632-6.538,3.526-12.893,4.082H184.8a.436.436,0,0,0,.2-.823c-2.466-1.251-6.959-4.216-11.788-10.775-5.179-7.034-9.365-12.247-12.479-14.656a5.586,5.586,0,0,0-1.659-.882c2.6,2.613,7.663,8.832,6.551,16.841a8.924,8.924,0,0,1-3.857,6.213Z" transform="translate(-2740.424 -7946.809)" fill="#76933e"/>
      <g id="Grupo_1008802" data-name="Grupo 1008802" transform="translate(-2629.215 -7790.953)">
        <path id="Trazado_721074" data-name="Trazado 721074" d="M63.416,178.465a1.138,1.138,0,0,0,.238,2.25h65.905a7.2,7.2,0,0,0,6.911-5.029,6.838,6.838,0,0,0,.289-1.952V147.586a1.138,1.138,0,0,0-1.138-1.138H112.35a1.138,1.138,0,0,0-1.138,1.138v13.935a1.138,1.138,0,0,0,2.275,0v-12.8h21v25.012a4.558,4.558,0,0,1-.194,1.3,4.91,4.91,0,0,1-4.731,3.4h-4.218c-.9-.3-6.66-2.507-13.012-11.135-6.065-8.238-9.863-12.688-12.7-14.881a6.644,6.644,0,0,0-7.25-.6c-2.161,1.182-4.2,2.3-8.166,9.317-.01.018-.02.036-.028.054-.071.142-7.277,14.386-20.77,17.271ZM86.21,162.232c3.634-6.431,5.315-7.351,7.262-8.415a4.369,4.369,0,0,1,4.767.406c3.344,2.586,8.073,8.746,12.259,14.43a39.545,39.545,0,0,0,9.906,9.786H70.27C80.484,173.337,85.809,163.031,86.21,162.232Z" transform="translate(-49.408 -140.773)"/>
        <path id="Trazado_721075" data-name="Trazado 721075" d="M24.682,158.028a19.467,19.467,0,0,0,5.739.945,13.508,13.508,0,0,0,5.414,1.254c.318,0,.512-.018.56-.022a1.138,1.138,0,0,0,.878-1.686c-2.394-4.292.18-11.721.206-11.795,0-.012.008-.024.012-.036a59.131,59.131,0,0,0,1.721-6.845,1.138,1.138,0,1,0-2.24-.4,57.992,57.992,0,0,1-1.643,6.536c-.051.146-.276.808-.528,1.793-1.072-1.454-2.038-3.971-.644-7.77a32.03,32.03,0,0,1,6.656-10.645c.921,1.5,2.353,4.824,1.631,10.27a12.766,12.766,0,0,1-3.144,6.957,1.138,1.138,0,1,0,1.685,1.528A15.032,15.032,0,0,0,44.7,139.93c1.162-8.772-2.772-12.922-2.941-13.094a1.138,1.138,0,0,0-1.569-.057,33.245,33.245,0,0,0-8.169,12.445c-2.3,6.252.613,9.874,2.222,11.3a17.032,17.032,0,0,0,.291,7.321c-2.337-.354-6.781-1.832-10.619-7.727a1.138,1.138,0,0,0-1.905,1.241,23.224,23.224,0,0,0,3.945,4.672c-.212-.06-.414-.119-.6-.176a9.493,9.493,0,0,1-6.456-7.546,17.4,17.4,0,0,1,.39-7.081,22.527,22.527,0,0,1,9.51,12.408,1.138,1.138,0,1,0,2.178-.657,25.015,25.015,0,0,0-11.751-14.467,1.138,1.138,0,0,0-1.625.543,19.161,19.161,0,0,0-.949,9.612,11.784,11.784,0,0,0,8.025,9.359Z" transform="translate(-16.424 -126.493)"/>
        <path id="Trazado_721076" data-name="Trazado 721076" d="M158.5,206.679a.979.979,0,0,0,.222-.023,1.083,1.083,0,0,0,.213-.063,1.3,1.3,0,0,0,.2-.105,1.184,1.184,0,0,0,.173-.142,1.138,1.138,0,0,0,0-1.607,1.025,1.025,0,0,0-.173-.142,1.147,1.147,0,0,0-.41-.171,1.164,1.164,0,0,0-.444,0,1.147,1.147,0,0,0-.41.171,1.026,1.026,0,0,0-.173.142,1.138,1.138,0,0,0,.8,1.94Z" transform="translate(-117.282 -182.248)"/>
        <path id="Trazado_721077" data-name="Trazado 721077" d="M165.678,223.772a1.089,1.089,0,0,0,.105.2,1.113,1.113,0,0,0,.944.506,1.146,1.146,0,0,0,.8-.333,1.4,1.4,0,0,0,.142-.173,1.3,1.3,0,0,0,.105-.2,1.211,1.211,0,0,0,.063-.213.98.98,0,0,0,.023-.222,1.138,1.138,0,1,0-2.275,0,1.175,1.175,0,0,0,.023.222A1.224,1.224,0,0,0,165.678,223.772Z" transform="translate(-123.169 -194.981)"/>
        <path id="Trazado_721078" data-name="Trazado 721078" d="M144.965,223.773a1.074,1.074,0,0,0,.1.2,1.192,1.192,0,0,0,.142.171.924.924,0,0,0,.173.142,1.144,1.144,0,0,0,.631.193,1.173,1.173,0,0,0,.222-.023,1.147,1.147,0,0,0,.41-.171,1.025,1.025,0,0,0,.173-.142,1.014,1.014,0,0,0,.139-.171,1.09,1.09,0,0,0,.105-.2,1.154,1.154,0,0,0,.065-.213,1.175,1.175,0,0,0,.023-.222,1.146,1.146,0,0,0-.333-.8,1.184,1.184,0,0,0-.173-.142,1.3,1.3,0,0,0-.2-.105,1.084,1.084,0,0,0-.213-.063,1.06,1.06,0,0,0-.444,0,1.084,1.084,0,0,0-.213.063,1.3,1.3,0,0,0-.2.105,1.05,1.05,0,0,0-.173.142,1.133,1.133,0,0,0-.245,1.24Z" transform="translate(-108.346 -194.982)"/>
      </g>
      <path id="Trazado_721079" data-name="Trazado 721079" d="M242.248,88.617a1.138,1.138,0,1,0,2.123.818l.865-2.245a6.185,6.185,0,0,0-.951-6.086,3.91,3.91,0,0,1-.472-4.136l1.1-2.28a1.137,1.137,0,1,0-2.048-.991l-1.1,2.28a6.194,6.194,0,0,0,.748,6.554,3.9,3.9,0,0,1,.6,3.839Z" transform="translate(-2806.458 -7879.206)" fill="#b0c0d2"/>
      <path id="Trazado_721080" data-name="Trazado 721080" d="M270.2,88.638a1.138,1.138,0,0,0,2.123.818l.865-2.245a6.185,6.185,0,0,0-.951-6.086,3.909,3.909,0,0,1-.471-4.137l1.1-2.271a1.137,1.137,0,1,0-2.048-.991L269.72,76a6.194,6.194,0,0,0,.748,6.555,3.9,3.9,0,0,1,.6,3.839Z" transform="translate(-2826.464 -7879.227)" fill="#b0c0d2"/>
      <path id="Trazado_721081" data-name="Trazado 721081" d="M298.156,88.617a1.138,1.138,0,1,0,2.123.818l.865-2.245a6.184,6.184,0,0,0-.951-6.086,3.91,3.91,0,0,1-.472-4.137l1.1-2.279a1.137,1.137,0,1,0-2.048-.991l-1.1,2.279a6.194,6.194,0,0,0,.748,6.555,3.9,3.9,0,0,1,.6,3.839Z" transform="translate(-2846.467 -7879.206)" fill="#b0c0d2"/>
    </g>
  </g>
</svg>
