<svg xmlns="http://www.w3.org/2000/svg" width="90" height="90" viewBox="0 0 90 90">
  <g id="Grupo_1008789" data-name="Grupo 1008789" transform="translate(-290 -4779)">
    <rect id="Rectángulo_346076" data-name="Rectángulo 346076" width="90" height="90" transform="translate(290 4779)" fill="none"/>
    <g id="_026-mortar" data-name="026-mortar" transform="translate(303 4788)">
      <g id="Grupo_1008685" data-name="Grupo 1008685" transform="translate(1.062 1.061)">
        <g id="Grupo_1008623" data-name="Grupo 1008623" transform="translate(9.639 1.243)">
          <g id="Grupo_1008622" data-name="Grupo 1008622">
            <g id="Grupo_1008621" data-name="Grupo 1008621">
              <g id="Grupo_1008620" data-name="Grupo 1008620">
                <g id="Grupo_1008619" data-name="Grupo 1008619">
                  <path id="Trazado_720960" data-name="Trazado 720960" d="M111.52,17.7a15.972,15.972,0,0,0-2.1-1.436,15.946,15.946,0,0,0-2.1,1.436,12.033,12.033,0,0,0-4.779,9.327c0,4.442,2.719,8.372,6.884,10.762,4.165-2.39,6.884-6.32,6.884-10.762A12.033,12.033,0,0,0,111.52,17.7Z" transform="translate(-102.532 -16.262)" fill="#c3f839"/>
                </g>
              </g>
            </g>
          </g>
        </g>
        <path id="Trazado_720961" data-name="Trazado 720961" d="M114.47,66.608a14.593,14.593,0,0,1-5.046,4.678c-4.165-2.39-6.884-6.32-6.884-10.761a11.018,11.018,0,0,1,1.336-5.235,11.462,11.462,0,0,1,7.3,3.254A11.617,11.617,0,0,1,114.47,66.608Z" transform="translate(-92.9 -48.518)" fill="#54e072"/>
        <g id="Grupo_1008628" data-name="Grupo 1008628" transform="translate(0 23.057)">
          <g id="Grupo_1008627" data-name="Grupo 1008627">
            <g id="Grupo_1008626" data-name="Grupo 1008626">
              <g id="Grupo_1008625" data-name="Grupo 1008625">
                <g id="Grupo_1008624" data-name="Grupo 1008624">
                  <path id="Trazado_720962" data-name="Trazado 720962" d="M34.492,170.243h3.542v6.581H34.492Z" transform="translate(-34.492 -170.243)" fill="#57758d"/>
                </g>
              </g>
            </g>
          </g>
        </g>
        <g id="Grupo_1008674" data-name="Grupo 1008674" transform="translate(0.001)">
          <g id="Grupo_1008633" data-name="Grupo 1008633" transform="translate(25.121 5.713)">
            <g id="Grupo_1008632" data-name="Grupo 1008632">
              <g id="Grupo_1008631" data-name="Grupo 1008631">
                <g id="Grupo_1008630" data-name="Grupo 1008630">
                  <g id="Grupo_1008629" data-name="Grupo 1008629">
                    <path id="Trazado_720963" data-name="Trazado 720963" d="M226.367,79.741,211.815,65.19l26.116-17.376,5.811,5.811Z" transform="translate(-211.815 -47.814)" fill="#e3edf6"/>
                  </g>
                </g>
              </g>
            </g>
          </g>
          <g id="Grupo_1008638" data-name="Grupo 1008638" transform="translate(50.273)">
            <g id="Grupo_1008637" data-name="Grupo 1008637">
              <g id="Grupo_1008636" data-name="Grupo 1008636">
                <g id="Grupo_1008635" data-name="Grupo 1008635">
                  <g id="Grupo_1008634" data-name="Grupo 1008634">
                    <path id="Trazado_720964" data-name="Trazado 720964" d="M391.843,8.08l-1.895,1.895a2.018,2.018,0,0,0,0,2.854l6.557,6.557a2.018,2.018,0,0,0,2.854,0l1.895-1.895a2.018,2.018,0,0,0,0-2.854L394.7,8.08A2.018,2.018,0,0,0,391.843,8.08Z" transform="translate(-389.357 -7.489)" fill="#e3edf6"/>
                  </g>
                </g>
              </g>
            </g>
          </g>
          <g id="Grupo_1008643" data-name="Grupo 1008643" transform="translate(25.121 5.712)">
            <g id="Grupo_1008642" data-name="Grupo 1008642">
              <g id="Grupo_1008641" data-name="Grupo 1008641">
                <g id="Grupo_1008640" data-name="Grupo 1008640">
                  <g id="Grupo_1008639" data-name="Grupo 1008639">
                    <path id="Trazado_720965" data-name="Trazado 720965" d="M240.248,50.126,214.131,67.5l-2.315-2.315L237.932,47.81Z" transform="translate(-211.816 -47.81)" fill="#c5d9ec"/>
                  </g>
                </g>
              </g>
            </g>
          </g>
          <g id="Grupo_1008648" data-name="Grupo 1008648" transform="translate(50.274 0)">
            <g id="Grupo_1008647" data-name="Grupo 1008647">
              <g id="Grupo_1008646" data-name="Grupo 1008646">
                <g id="Grupo_1008645" data-name="Grupo 1008645">
                  <g id="Grupo_1008644" data-name="Grupo 1008644">
                    <path id="Trazado_720966" data-name="Trazado 720966" d="M396.327,9.708a2.324,2.324,0,0,0-2.141.628L392,12.522a2.313,2.313,0,0,0-.68,1.677l-1.37-1.37a2.018,2.018,0,0,1,0-2.853l1.894-1.9a2.02,2.02,0,0,1,2.855,0Z" transform="translate(-389.36 -7.49)" fill="#c5d9ec"/>
                  </g>
                </g>
              </g>
            </g>
          </g>
          <g id="Grupo_1008653" data-name="Grupo 1008653" transform="translate(21.42 60.814)">
            <g id="Grupo_1008652" data-name="Grupo 1008652">
              <g id="Grupo_1008651" data-name="Grupo 1008651">
                <g id="Grupo_1008650" data-name="Grupo 1008650">
                  <g id="Grupo_1008649" data-name="Grupo 1008649">
                    <path id="Trazado_720967" data-name="Trazado 720967" d="M185.7,436.755H204.73v9.6H185.7Z" transform="translate(-185.695 -436.755)" fill="#6987a0"/>
                  </g>
                </g>
              </g>
            </g>
          </g>
          <g id="Grupo_1008658" data-name="Grupo 1008658" transform="translate(21.42 60.815)">
            <g id="Grupo_1008657" data-name="Grupo 1008657">
              <g id="Grupo_1008656" data-name="Grupo 1008656">
                <g id="Grupo_1008655" data-name="Grupo 1008655">
                  <g id="Grupo_1008654" data-name="Grupo 1008654">
                    <path id="Trazado_720968" data-name="Trazado 720968" d="M185.7,436.758h3.542v9.6H185.7Z" transform="translate(-185.695 -436.758)" fill="#57758d"/>
                  </g>
                </g>
              </g>
            </g>
          </g>
          <g id="Grupo_1008663" data-name="Grupo 1008663" transform="translate(0 23.057)">
            <g id="Grupo_1008662" data-name="Grupo 1008662">
              <g id="Grupo_1008661" data-name="Grupo 1008661">
                <g id="Grupo_1008660" data-name="Grupo 1008660">
                  <g id="Grupo_1008659" data-name="Grupo 1008659">
                    <path id="Trazado_720969" data-name="Trazado 720969" d="M34.5,170.24H96.372v6.582H34.5Z" transform="translate(-34.496 -170.24)" fill="#6987a0"/>
                  </g>
                </g>
              </g>
            </g>
          </g>
          <g id="Grupo_1008668" data-name="Grupo 1008668" transform="translate(3.635 29.639)">
            <g id="Grupo_1008667" data-name="Grupo 1008667">
              <g id="Grupo_1008666" data-name="Grupo 1008666">
                <g id="Grupo_1008665" data-name="Grupo 1008665">
                  <g id="Grupo_1008664" data-name="Grupo 1008664">
                    <path id="Trazado_720970" data-name="Trazado 720970" d="M93.519,250.889H81.4a21.244,21.244,0,0,1-21.244-21.244V216.7h54.605v12.948A21.244,21.244,0,0,1,93.519,250.889Z" transform="translate(-60.157 -216.697)" fill="#6987a0"/>
                  </g>
                </g>
              </g>
            </g>
          </g>
          <g id="Grupo_1008673" data-name="Grupo 1008673" transform="translate(3.635 29.638)">
            <g id="Grupo_1008672" data-name="Grupo 1008672">
              <g id="Grupo_1008671" data-name="Grupo 1008671">
                <g id="Grupo_1008670" data-name="Grupo 1008670">
                  <g id="Grupo_1008669" data-name="Grupo 1008669">
                    <path id="Trazado_720971" data-name="Trazado 720971" d="M84.938,250.885H81.4a21.244,21.244,0,0,1-21.244-21.244V216.694h3.542v12.948A21.244,21.244,0,0,0,84.938,250.885Z" transform="translate(-60.152 -216.694)" fill="#57758d"/>
                  </g>
                </g>
              </g>
            </g>
          </g>
        </g>
        <g id="Grupo_1008679" data-name="Grupo 1008679" transform="translate(0.283 6.725)">
          <g id="Grupo_1008678" data-name="Grupo 1008678">
            <g id="Grupo_1008677" data-name="Grupo 1008677">
              <g id="Grupo_1008676" data-name="Grupo 1008676">
                <g id="Grupo_1008675" data-name="Grupo 1008675">
                  <path id="Trazado_720972" data-name="Trazado 720972" d="M39.551,55.044a15.952,15.952,0,0,0-2.5.473,15.95,15.95,0,0,0-.473,2.5,12.033,12.033,0,0,0,3.215,9.975c3.141,3.141,7.843,4,12.478,2.742,1.255-4.635.4-9.337-2.742-12.478A12.033,12.033,0,0,0,39.551,55.044Z" transform="translate(-36.492 -54.961)" fill="#c3f839"/>
                </g>
              </g>
            </g>
          </g>
        </g>
        <g id="Grupo_1008684" data-name="Grupo 1008684" transform="translate(0.283 9.045)">
          <g id="Grupo_1008683" data-name="Grupo 1008683">
            <g id="Grupo_1008682" data-name="Grupo 1008682">
              <g id="Grupo_1008681" data-name="Grupo 1008681">
                <g id="Grupo_1008680" data-name="Grupo 1008680">
                  <path id="Trazado_720973" data-name="Trazado 720973" d="M39.789,77.526c3.14,3.142,7.842,4,12.476,2.742a16.069,16.069,0,0,0,.374-1.756,14.777,14.777,0,0,1-.374,6.279c-4.634,1.255-9.336.4-12.476-2.742a12.025,12.025,0,0,1-3.216-9.974c.027-.246.058-.494.1-.74a11.264,11.264,0,0,0,3.119,6.192Z" transform="translate(-36.489 -71.334)" fill="#54e072"/>
                </g>
              </g>
            </g>
          </g>
        </g>
        <path id="Trazado_720974" data-name="Trazado 720974" d="M34.5,170.25h3.542v6.581H34.5Z" transform="translate(-34.498 -147.192)" fill="#57758d"/>
      </g>
      <g id="Grupo_1008700" data-name="Grupo 1008700" transform="translate(0 0)">
        <g id="Grupo_1008698" data-name="Grupo 1008698" transform="translate(49.253 34.213)">
          <g id="Grupo_1008691" data-name="Grupo 1008691" transform="translate(4.248)">
            <g id="Grupo_1008690" data-name="Grupo 1008690">
              <g id="Grupo_1008689" data-name="Grupo 1008689">
                <g id="Grupo_1008688" data-name="Grupo 1008688">
                  <g id="Grupo_1008687" data-name="Grupo 1008687">
                    <g id="Grupo_1008686" data-name="Grupo 1008686">
                      <path id="Trazado_720975" data-name="Trazado 720975" d="M404.64,241.494h2.092v2.125H404.64Z" transform="translate(-404.64 -241.494)" fill="#fff"/>
                    </g>
                  </g>
                </g>
              </g>
            </g>
          </g>
          <g id="Grupo_1008697" data-name="Grupo 1008697">
            <g id="Grupo_1008696" data-name="Grupo 1008696">
              <g id="Grupo_1008695" data-name="Grupo 1008695">
                <g id="Grupo_1008694" data-name="Grupo 1008694">
                  <g id="Grupo_1008693" data-name="Grupo 1008693">
                    <g id="Grupo_1008692" data-name="Grupo 1008692">
                      <path id="Trazado_720976" data-name="Trazado 720976" d="M374.657,241.494h2.092v2.125h-2.092Z" transform="translate(-374.657 -241.494)" fill="#fff"/>
                    </g>
                  </g>
                </g>
              </g>
            </g>
          </g>
        </g>
        <g id="Grupo_1008699" data-name="Grupo 1008699">
          <path id="Trazado_720977" data-name="Trazado 720977" d="M85.327,14.172a3.073,3.073,0,0,0,3.758-.463l1.895-1.895a3.081,3.081,0,0,0,0-4.357L84.423.9a3.085,3.085,0,0,0-4.357,0l-1.9,1.9a3.083,3.083,0,0,0-.463,3.757l-6.9,4.589,1.177,1.769L79.159,8.14l4.581,4.581L76.864,23.055H56.742l9.946-6.617-1.177-1.769L52.906,23.055H47.548a13.086,13.086,0,0,0,4.979-9.989c0-8.178-7.817-11.875-7.946-11.988a15.855,15.855,0,0,0-6.632,6.54,14.2,14.2,0,0,0-6.661-.806,19.026,19.026,0,0,0-3.257.664c-.011.173-2.945,8.293,2.857,14.094a11.746,11.746,0,0,0,1.82,1.484H27v8.707h3.635V43.647A22.345,22.345,0,0,0,48.416,65.492v7.042h21.16V65.493A22.233,22.233,0,0,0,82.35,57.735L80.7,56.392a20.117,20.117,0,0,1-15.648,7.436H52.938A20.2,20.2,0,0,1,32.756,43.647V31.762h8.279V29.637H29.121V25.18H88.872v4.457H43.207v2.125h42.03V43.647A20.092,20.092,0,0,1,81.9,54.766l1.772,1.172a22.21,22.21,0,0,0,3.689-12.291V31.762H91V23.055H79.416ZM79.674,4.3,81.569,2.4a.956.956,0,0,1,1.351,0L89.477,8.96a.955.955,0,0,1,0,1.351l-1.9,1.9a.955.955,0,0,1-1.345.006L79.669,5.644A.957.957,0,0,1,79.674,4.3ZM65.055,65.953a22.528,22.528,0,0,0,2.4-.129V70.41H50.541V65.824a22.465,22.465,0,0,0,2.4.129H65.055ZM44.581,3.542C47.995,5.685,50.4,9.068,50.4,13.066a11.183,11.183,0,0,1-4.855,8.86,13.3,13.3,0,0,0-3.421-11.593,11.958,11.958,0,0,0-2.27-1.779,12.916,12.916,0,0,1,4.724-5.013ZM29.773,9.218a14.789,14.789,0,0,1,1.739-.292,10.939,10.939,0,0,1,9.111,2.91,11.155,11.155,0,0,1,2.85,9.58l-7.221-7.222-1.5,1.5,7.221,7.221a11.155,11.155,0,0,1-9.58-2.85c-2.816-2.816-3.523-6.908-2.618-10.851Z" transform="translate(-26.996 0)"/>
          <path id="Trazado_720978" data-name="Trazado 720978" d="M0,0H2.164V2.125H0Z" transform="translate(40.238 13.54) rotate(-33.627)"/>
        </g>
      </g>
    </g>
  </g>
</svg>
