<svg xmlns="http://www.w3.org/2000/svg" width="90" height="90" viewBox="0 0 90 90">
  <g id="Grupo_1008791" data-name="Grupo 1008791" transform="translate(-910 -4779)">
    <rect id="Rectángulo_350966" data-name="Rectángulo 350966" width="90" height="90" transform="translate(910 4779)" fill="none"/>
    <g id="_013-flasks" data-name="013-flasks" transform="translate(919 4788)">
      <g id="Grupo_1008783" data-name="Grupo 1008783" transform="translate(1.679 20.313)">
        <g id="Grupo_1008759" data-name="Grupo 1008759" transform="translate(0 0)">
          <g id="Grupo_1008758" data-name="Grupo 1008758">
            <g id="Grupo_1008757" data-name="Grupo 1008757">
              <g id="Grupo_1008741" data-name="Grupo 1008741" transform="translate(7.061 0)">
                <g id="Grupo_1008740" data-name="Grupo 1008740">
                  <g id="Grupo_1008739" data-name="Grupo 1008739">
                    <g id="Grupo_1008738" data-name="Grupo 1008738">
                      <g id="Grupo_1008737" data-name="Grupo 1008737">
                        <path id="Trazado_721026" data-name="Trazado 721026" d="M87.281,179.6l-12.369,4.589-8.973-3.377L62.72,179.6l7.569-16.02v-13.35H66.126v-6.845H84.064v6.845H79.9v13.35Z" transform="translate(-62.72 -143.384)" fill="#e3edf6"/>
                      </g>
                    </g>
                  </g>
                </g>
              </g>
              <g id="Grupo_1008746" data-name="Grupo 1008746" transform="translate(7.061)">
                <g id="Grupo_1008745" data-name="Grupo 1008745">
                  <g id="Grupo_1008744" data-name="Grupo 1008744">
                    <g id="Grupo_1008743" data-name="Grupo 1008743">
                      <g id="Grupo_1008742" data-name="Grupo 1008742">
                        <path id="Trazado_721027" data-name="Trazado 721027" d="M84.064,147v3.232H73.8v14.707l-5.762,11.431-2.1,4.444L62.72,179.6l7.569-16.02v-13.35H66.126v-6.845h3.518V147Z" transform="translate(-62.72 -143.384)" fill="#c5d9ec"/>
                      </g>
                    </g>
                  </g>
                </g>
              </g>
              <g id="Grupo_1008751" data-name="Grupo 1008751" transform="translate(0 36.819)">
                <g id="Grupo_1008750" data-name="Grupo 1008750">
                  <g id="Grupo_1008749" data-name="Grupo 1008749">
                    <g id="Grupo_1008748" data-name="Grupo 1008748">
                      <g id="Grupo_1008747" data-name="Grupo 1008747">
                        <path id="Trazado_721028" data-name="Trazado 721028" d="M51.385,417.616H12.877l6.774-14.34H44.778Z" transform="translate(-12.877 -403.276)" fill="#c3f839"/>
                      </g>
                    </g>
                  </g>
                </g>
              </g>
              <g id="Grupo_1008756" data-name="Grupo 1008756" transform="translate(0 36.819)">
                <g id="Grupo_1008755" data-name="Grupo 1008755">
                  <g id="Grupo_1008754" data-name="Grupo 1008754">
                    <g id="Grupo_1008753" data-name="Grupo 1008753">
                      <g id="Grupo_1008752" data-name="Grupo 1008752">
                        <path id="Trazado_721029" data-name="Trazado 721029" d="M51.385,417.616H12.877l6.774-14.34h3.791l-5.249,11.109h31.7Z" transform="translate(-12.877 -403.276)" fill="#54e072"/>
                      </g>
                    </g>
                  </g>
                </g>
              </g>
            </g>
          </g>
        </g>
        <g id="Grupo_1008782" data-name="Grupo 1008782" transform="translate(30.399)">
          <g id="Grupo_1008781" data-name="Grupo 1008781">
            <g id="Grupo_1008780" data-name="Grupo 1008780">
              <g id="Grupo_1008764" data-name="Grupo 1008764" transform="translate(7.061)">
                <g id="Grupo_1008763" data-name="Grupo 1008763">
                  <g id="Grupo_1008762" data-name="Grupo 1008762">
                    <g id="Grupo_1008761" data-name="Grupo 1008761">
                      <g id="Grupo_1008760" data-name="Grupo 1008760">
                        <path id="Trazado_721030" data-name="Trazado 721030" d="M301.855,179.6l-12.369,4.589L277.294,179.6l7.569-16.02v-13.35H280.7v-6.845h17.938v6.845h-4.163v13.35Z" transform="translate(-277.294 -143.383)" fill="#e3edf6"/>
                      </g>
                    </g>
                  </g>
                </g>
              </g>
              <g id="Grupo_1008769" data-name="Grupo 1008769" transform="translate(7.061 0)">
                <g id="Grupo_1008768" data-name="Grupo 1008768">
                  <g id="Grupo_1008767" data-name="Grupo 1008767">
                    <g id="Grupo_1008766" data-name="Grupo 1008766">
                      <g id="Grupo_1008765" data-name="Grupo 1008765">
                        <path id="Trazado_721031" data-name="Trazado 721031" d="M298.638,147v3.232H288.374v14.707l-5.762,11.431-2.1,4.444-3.219-1.212,7.569-16.02v-13.35H280.7v-6.845h3.518V147Z" transform="translate(-277.294 -143.384)" fill="#c5d9ec"/>
                      </g>
                    </g>
                  </g>
                </g>
              </g>
              <g id="Grupo_1008774" data-name="Grupo 1008774" transform="translate(0 36.819)">
                <g id="Grupo_1008773" data-name="Grupo 1008773" transform="translate(0 0)">
                  <g id="Grupo_1008772" data-name="Grupo 1008772">
                    <g id="Grupo_1008771" data-name="Grupo 1008771">
                      <g id="Grupo_1008770" data-name="Grupo 1008770">
                        <path id="Trazado_721032" data-name="Trazado 721032" d="M265.959,417.616H227.451l6.774-14.34h25.126Z" transform="translate(-227.451 -403.276)" fill="#2ec2f1"/>
                      </g>
                    </g>
                  </g>
                </g>
              </g>
              <g id="Grupo_1008779" data-name="Grupo 1008779" transform="translate(0 36.819)">
                <g id="Grupo_1008778" data-name="Grupo 1008778" transform="translate(0 0)">
                  <g id="Grupo_1008777" data-name="Grupo 1008777">
                    <g id="Grupo_1008776" data-name="Grupo 1008776">
                      <g id="Grupo_1008775" data-name="Grupo 1008775">
                        <path id="Trazado_721033" data-name="Trazado 721033" d="M265.959,417.616H227.451l6.774-14.34h3.791l-5.249,11.109h31.7Z" transform="translate(-227.451 -403.276)" fill="#00adeb"/>
                      </g>
                    </g>
                  </g>
                </g>
              </g>
            </g>
          </g>
        </g>
      </g>
      <g id="Grupo_1008784" data-name="Grupo 1008784" transform="translate(0)">
        <path id="Trazado_721034" data-name="Trazado 721034" d="M206.366,448.659h2.125v2.125h-2.125Z" transform="translate(-177.276 -385.097)"/>
        <path id="Trazado_721035" data-name="Trazado 721035" d="M172.4,448.659h2.125v2.125H172.4Z" transform="translate(-148.125 -385.097)"/>
        <path id="Trazado_721036" data-name="Trazado 721036" d="M79.26,33.906h2.125V36H79.26Z" transform="translate(-68.177 -29.103)"/>
        <path id="Trazado_721037" data-name="Trazado 721037" d="M195.193,15.119h2.125v2.092h-2.125Z" transform="translate(-167.686 -12.977)"/>
        <path id="Trazado_721038" data-name="Trazado 721038" d="M163.351,41.288h2.125V43.38h-2.125Z" transform="translate(-140.355 -35.439)"/>
        <path id="Trazado_721039" data-name="Trazado 721039" d="M119.153,57.942h2.125v2.091h-2.125Z" transform="translate(-102.418 -49.733)"/>
        <path id="Trazado_721040" data-name="Trazado 721040" d="M152.3,99.934h2.125v2.092H152.3Z" transform="translate(-130.871 -85.776)"/>
        <path id="Trazado_721041" data-name="Trazado 721041" d="M107.146,0h2.092V2.125h-2.092Z" transform="translate(-92.112)"/>
        <path id="Trazado_721042" data-name="Trazado 721042" d="M298.322,72.706h2.125V74.8h-2.125Z" transform="translate(-256.204 -62.406)"/>
        <path id="Trazado_721043" data-name="Trazado 721043" d="M413.807,99.934h2.125v2.092h-2.125Z" transform="translate(-355.329 -85.776)"/>
        <path id="Trazado_721044" data-name="Trazado 721044" d="M271.707,102.31h2.125V104.4h-2.125Z" transform="translate(-233.36 -87.816)"/>
        <path id="Trazado_721045" data-name="Trazado 721045" d="M377.212,10.457h2.125v2.092h-2.125Z" transform="translate(-323.918 -8.976)"/>
        <path id="Trazado_721046" data-name="Trazado 721046" d="M359.154,99.252h2.125v2.091h-2.125Z" transform="translate(-308.418 -85.191)"/>
        <path id="Trazado_721047" data-name="Trazado 721047" d="M340.143,63.5h2.125v2.092h-2.125Z" transform="translate(-292.101 -54.506)"/>
        <path id="Trazado_721048" data-name="Trazado 721048" d="M317.876,26.406h2.092v2.125h-2.092Z" transform="translate(-272.988 -22.665)"/>
        <path id="Trazado_721049" data-name="Trazado 721049" d="M420.941,448.659h2.125v2.125h-2.125Z" transform="translate(-361.452 -385.097)"/>
        <path id="Trazado_721050" data-name="Trazado 721050" d="M386.978,448.659H389.1v2.125h-2.125Z" transform="translate(-332.3 -385.097)"/>
        <path id="Trazado_721051" data-name="Trazado 721051" d="M52,74.542l.59,1.359,1.949-.846-.59-1.359a5.767,5.767,0,0,0-7.578-2.989l.846,1.949A3.639,3.639,0,0,1,52,74.542Z" transform="translate(-39.949 -60.28)"/>
        <path id="Trazado_721052" data-name="Trazado 721052" d="M197.115,51.2a2.816,2.816,0,0,1,3.954-.494l1.3-1.677a4.94,4.94,0,0,0-6.936.867l-2.912,3.744,1.677,1.3Z" transform="translate(-165.396 -41.188)"/>
        <path id="Trazado_721053" data-name="Trazado 721053" d="M395.821,40.706a2.816,2.816,0,0,1,3.954-.494l1.3-1.677a4.94,4.94,0,0,0-6.936.867l-1.687,2.169,1.677,1.3Z" transform="translate(-337.003 -32.181)"/>
        <path id="Trazado_721054" data-name="Trazado 721054" d="M58.41,156.909V144.854h4.163v-8.97h-8.6v2.125h6.472v4.72H44.635v-4.72h7.187v-2.125H42.51v8.97h4.163V156.9l-9.45,20-9.211-19.994V144.854h4.162v-8.97H12.111v8.97h4.163V156.9L1.028,189.168H73.272Zm-44.174-14.18v-4.72H30.049v4.72ZM4.383,187.043l2.25-4.761h7.682v-2.125H7.636l2.518-5.33H24.476V172.7H11.159l3.09-6.538h6.513v-2.125H15.253l3.146-6.659V144.854h7.487v12.521L32.948,172.7H27.021v2.125h6.906l2.111,4.582-3.606,7.633Zm32.649-4.761h7.682v-2.125H38.035l2.518-5.33h5.754V172.7h-4.75l3.089-6.538H51.16v-2.125H45.651L48.8,157.38V144.854h7.487v12.521L63.347,172.7H52.7v2.125h11.63l5.628,12.216H34.782Z" transform="translate(-1.028 -116.633)"/>
        <path id="Trazado_721055" data-name="Trazado 721055" d="M335.792,395.776H337.9V397.9h-2.108Z" transform="translate(-288.366 -339.706)"/>
      </g>
    </g>
  </g>
</svg>
