<svg id="Grupo_1008331" data-name="Grupo 1008331" xmlns="http://www.w3.org/2000/svg" xmlns:xlink="http://www.w3.org/1999/xlink" width="46.312" height="45.179" viewBox="0 0 46.312 45.179">
  <defs>
    <clipPath id="clip-path">
      <rect id="Rectángulo_350937" data-name="Rectángulo 350937" width="46.312" height="45.179" fill="none"/>
    </clipPath>
  </defs>
  <g id="Grupo_1008330" data-name="Grupo 1008330" transform="translate(0 0)" clip-path="url(#clip-path)">
    <path id="Trazado_720518" data-name="Trazado 720518" d="M46.076,10.953A2.247,2.247,0,0,1,44,13.125v18.5a5.28,5.28,0,0,1-5.288,5.288,6.069,6.069,0,0,1-2.265-.473,14.239,14.239,0,0,1-26.06,0,4.663,4.663,0,0,1-2.267.473A5.28,5.28,0,0,1,2.831,31.63v-18.5A2.247,2.247,0,0,1,.755,10.953,2.137,2.137,0,0,1,2.926,8.781H13.313a2.137,2.137,0,0,1,2.171,2.172,2.18,2.18,0,0,1-2.076,2.172v7.458a13.452,13.452,0,0,1,3.209-2.36,3.668,3.668,0,0,0,1.983-3.21V5.1h-.378a2.136,2.136,0,0,1-2.171-2.172A2.136,2.136,0,0,1,18.222.756H28.608A2.136,2.136,0,0,1,30.78,2.927,2.136,2.136,0,0,1,28.608,5.1h-.377v9.913a3.668,3.668,0,0,0,1.983,3.21,13.486,13.486,0,0,1,3.21,2.36V13.125a2.247,2.247,0,0,1-2.078-2.172,2.137,2.137,0,0,1,2.172-2.172H43.9a2.137,2.137,0,0,1,2.171,2.172" transform="translate(0.236 0.236)" fill="#d4d6e8"/>
    <path id="Trazado_720519" data-name="Trazado 720519" d="M2.122,8.956V28.122A4.634,4.634,0,0,0,6.749,32.75,4.744,4.744,0,0,0,9.3,31.994l2.078-13.218V8.956Z" transform="translate(0.663 2.799)" fill="#fff"/>
    <path id="Trazado_720520" data-name="Trazado 720520" d="M2.122,20.178v4.438a4.634,4.634,0,0,0,4.627,4.627A4.744,4.744,0,0,0,9.3,28.486l1.322-8.214h-8.5Z" transform="translate(0.663 6.306)" fill="#ff9d00"/>
    <path id="Trazado_720521" data-name="Trazado 720521" d="M25.43,8.956v9.82l2.078,13.218a4.744,4.744,0,0,0,2.549.756,4.635,4.635,0,0,0,4.627-4.628V8.956Z" transform="translate(7.947 2.799)" fill="#fff"/>
    <path id="Trazado_720522" data-name="Trazado 720522" d="M26.077,20.25,27.4,28.464a4.744,4.744,0,0,0,2.549.756,4.634,4.634,0,0,0,4.625-4.627V20.25Z" transform="translate(8.149 6.328)" fill="#7e5ee3"/>
    <path id="Trazado_720523" data-name="Trazado 720523" d="M24.648,2.841V13.416a4.315,4.315,0,0,0,2.36,3.777,13.5,13.5,0,1,1-12.84,0,4.315,4.315,0,0,0,2.36-3.777V2.841" transform="translate(2.214 0.888)" fill="#fff"/>
    <path id="Trazado_720524" data-name="Trazado 720524" d="M33.648,11.475h-4.91m4.91,3.3h-4.91m4.91,3.3h-4.91" transform="translate(8.981 3.586)" fill="none" stroke="#191919" stroke-linecap="round" stroke-linejoin="round" stroke-width="1.079"/>
    <path id="Trazado_720525" data-name="Trazado 720525" d="M35.743,9.6H25.358a1.511,1.511,0,0,1,0-3.021H35.743a1.49,1.49,0,0,1,1.511,1.511A1.553,1.553,0,0,1,35.743,9.6" transform="translate(7.452 2.057)" fill="#fff"/>
    <path id="Trazado_720526" data-name="Trazado 720526" d="M2.05,9.6H12.435a1.511,1.511,0,0,0,0-3.021H2.05A1.49,1.49,0,0,0,.539,8.093,1.622,1.622,0,0,0,2.05,9.6" transform="translate(0.168 2.057)" fill="#fff"/>
    <path id="Trazado_720527" data-name="Trazado 720527" d="M24.089,3.56H13.7A1.491,1.491,0,0,1,12.193,2.05,1.49,1.49,0,0,1,13.7.539H24.089A1.49,1.49,0,0,1,25.6,2.05,1.622,1.622,0,0,1,24.089,3.56" transform="translate(3.81 0.168)" fill="#fff"/>
    <path id="Trazado_720528" data-name="Trazado 720528" d="M43.028,9.6H32.641a1.511,1.511,0,1,1,0-3.021H43.028a1.49,1.49,0,0,1,1.509,1.511A1.553,1.553,0,0,1,43.028,9.6Zm-9.82,9.913V9.7h9.159V28.864a4.633,4.633,0,0,1-4.627,4.627,4.744,4.744,0,0,1-2.549-.756m.566-8.119h6.7M2.616,13h4.91m-4.91,3.3h4.91m-4.91,3.3h4.91M2.051,9.6H12.436a1.511,1.511,0,1,0,0-3.021H2.051A1.49,1.49,0,0,0,.54,8.093,1.622,1.622,0,0,0,2.051,9.6Zm9.819,9.913V9.7H2.711V28.864a4.634,4.634,0,0,0,4.627,4.627,4.744,4.744,0,0,0,2.549-.756m-.566-8.119h-6.7" transform="translate(0.169 2.057)" fill="none" stroke="#191919" stroke-linecap="round" stroke-linejoin="round" stroke-width="1.079"/>
    <path id="Trazado_720529" data-name="Trazado 720529" d="M17.445,27.287a8.922,8.922,0,0,1,6.61-6.515l1.793-.377.378,1.793a8.853,8.853,0,0,1-6.7,10.575l-1.7.378" transform="translate(5.452 6.373)" fill="#00bcd4"/>
    <path id="Trazado_720530" data-name="Trazado 720530" d="M17.445,27.287a8.922,8.922,0,0,1,6.61-6.515l1.793-.377.378,1.793a8.853,8.853,0,0,1-6.7,10.575l-1.7.378" transform="translate(5.452 6.373)" fill="none" stroke="#191919" stroke-linecap="round" stroke-linejoin="round" stroke-width="1.079"/>
    <path id="Trazado_720531" data-name="Trazado 720531" d="M10.333,23.051l.189-1.794,1.794.189a8.82,8.82,0,0,1,8.026,9.631l-.189,1.793-1.794-.188a8.873,8.873,0,0,1-8.026-9.631" transform="translate(3.216 6.643)" fill="#00bcd4"/>
    <path id="Trazado_720532" data-name="Trazado 720532" d="M11.335,29.526l.189-1.794,1.793.189a8.818,8.818,0,0,1,8.026,9.631l-.189,1.794-1.793-.189A8.872,8.872,0,0,1,11.335,29.526Zm9.819,9.726v.095H21.06ZM24.648,3.56V14.135a4.315,4.315,0,0,0,2.36,3.777,13.5,13.5,0,1,1-12.84,0,4.313,4.313,0,0,0,2.361-3.777V3.56m8.119,3.3H20.209m4.439,3.3H20.209m4.439,3.3H20.209M25.686,3.56H15.3A1.489,1.489,0,0,1,13.791,2.05,1.49,1.49,0,0,1,15.3.539H25.686A1.491,1.491,0,0,1,27.2,2.05,1.621,1.621,0,0,1,25.686,3.56ZM25.4,32.547l-4.25,6.7L15.96,32.925" transform="translate(2.214 0.168)" fill="none" stroke="#191919" stroke-linecap="round" stroke-linejoin="round" stroke-width="1.079"/>
  </g>
</svg>
