<svg xmlns="http://www.w3.org/2000/svg" xmlns:xlink="http://www.w3.org/1999/xlink" width="90" height="90" viewBox="0 0 90 90">
  <defs>
    <clipPath id="clip-path">
      <rect id="Rect치ngulo_351302" data-name="Rect치ngulo 351302" width="78" height="77.55" transform="translate(0 0)" fill="none"/>
    </clipPath>
  </defs>
  <g id="Grupo_1008581" data-name="Grupo 1008581" transform="translate(-444 -1270)">
    <rect id="Rect치ngulo_346076" data-name="Rect치ngulo 346076" width="90" height="90" transform="translate(444 1270)" fill="none"/>
    <g id="Grupo_1008577" data-name="Grupo 1008577" transform="translate(450 1276)">
      <g id="Grupo_1008575" data-name="Grupo 1008575" clip-path="url(#clip-path)">
        <path id="Trazado_720824" data-name="Trazado 720824" d="M26.267,8.756H13.759a3.747,3.747,0,0,0-3.752,3.752,1.254,1.254,0,0,0,1.25,1.251H28.769a1.254,1.254,0,0,0,1.25-1.251,3.747,3.747,0,0,0-3.752-3.752" fill="#ccd1d9"/>
        <path id="Trazado_720825" data-name="Trazado 720825" d="M20.013,13.759h7.5v7.88a12.494,12.494,0,0,0,.7,4.128l1.389,3.977q-1.314-2.232-7.092-2.226c-2.565,0-5.454,1.651-7.668,3.252a18.563,18.563,0,0,0-3.915-2.5l.876-2.5a12.494,12.494,0,0,0,.7-4.128v-7.88Z" fill="#e6e9ed"/>
        <path id="Trazado_720826" data-name="Trazado 720826" d="M65.042,17.511H55.036a3.759,3.759,0,0,0-3.753,3.752,1.255,1.255,0,0,0,1.251,1.251h15.01a1.254,1.254,0,0,0,1.25-1.251,3.747,3.747,0,0,0-3.752-3.752" fill="#fff"/>
        <path id="Trazado_720827" data-name="Trazado 720827" d="M60.039,22.514h6.253V32.52a16.253,16.253,0,0,1,9.532,11.108c-1.189-1.564-4.579-2.352-9.532-2.352-3.639,0-6.979,1.764-9.456,3.577l-.012.013c-2.565-1.826-5-3.59-8.042-3.59a13.512,13.512,0,0,0-4,.65,16.271,16.271,0,0,1,9.007-9.406V22.514Z" fill="#fff"/>
        <path id="Trazado_720828" data-name="Trazado 720828" d="M38.775,56.286v2.5H1.251v-2.5a2.509,2.509,0,0,1,2.5-2.5h32.52A2.509,2.509,0,0,1,38.775,56.286Z" fill="#ccd1d9"/>
        <path id="Trazado_720829" data-name="Trazado 720829" d="M33.772,71.3v5H6.254v-5H33.772Z" fill="#ccd1d9"/>
        <path id="Trazado_720830" data-name="Trazado 720830" d="M20.013,67.543c0-6.254,5-6.254,5-6.254,0,5,3.753,3.752,3.753,10.006H11.257c0-6.254,3.753-5,3.753-10.006,0,0,5,0,5,6.254" fill="#ff9d00"/>
        <path id="Trazado_720831" data-name="Trazado 720831" d="M76.186,45.729c-.65,2.039-4.253,3.052-9.894,3.052-3.865,0-6.729-1.989-9.468-3.915-2.565-1.826-5-3.59-8.043-3.59a13.478,13.478,0,0,0-4,.651A16.257,16.257,0,1,0,76.3,47.53a14.217,14.217,0,0,0-.113-1.8" fill="#69d6f4"/>
        <path id="Trazado_720832" data-name="Trazado 720832" d="M29.994,30.845l6.279,17.936a9.056,9.056,0,0,1-8.093,5H11.845a9.059,9.059,0,0,1-4.753-1.351,9.243,9.243,0,0,1-3.34-3.653l7.18-20.513a18.563,18.563,0,0,1,3.915,2.5c2.589,2.026,4.94,4.253,7.667,4.253q7.5,0,7.5-3.753c0-.15-.013-.287-.025-.425" fill="#69d6f4"/>
        <path id="Trazado_720833" data-name="Trazado 720833" d="M29.994,30.845c.012.138.025.275.025.425q0,3.753-7.5,3.753c-2.727,0-5.078-2.227-7.667-4.253,2.214-1.6,5.1-3.252,7.667-3.252q5.78,0,7.092,2.226l.388,1.076Z" fill="#4fc1e9"/>
        <path id="Trazado_720834" data-name="Trazado 720834" d="M75.836,43.64a14.185,14.185,0,0,1,.35,2.089c-.65,2.039-4.253,3.052-9.894,3.052-3.865,0-6.729-1.989-9.468-3.914l.012-.013c2.477-1.813,5.817-3.577,9.456-3.577,4.954,0,8.343.788,9.531,2.351Z" fill="#4fc1e9"/>
        <path id="Trazado_720835" data-name="Trazado 720835" d="M51.283,46.28a2.5,2.5,0,1,1-2.5,2.5,2.5,2.5,0,0,1,2.5-2.5" fill="#4fc1e9"/>
        <path id="Trazado_720836" data-name="Trazado 720836" d="M22.514,40.026a2.5,2.5,0,1,1-2.5,2.5,2.5,2.5,0,0,1,2.5-2.5" fill="#4fc1e9"/>
        <path id="Trazado_720837" data-name="Trazado 720837" d="M12.508,43.778a2.5,2.5,0,1,1-2.5,2.5,2.5,2.5,0,0,1,2.5-2.5" fill="#4fc1e9"/>
        <path id="Trazado_720838" data-name="Trazado 720838" d="M12.508,42.528a3.752,3.752,0,1,0,3.752,3.751,3.755,3.755,0,0,0-3.752-3.751m0,5a1.251,1.251,0,1,1,1.251-1.251,1.252,1.252,0,0,1-1.251,1.251"/>
        <path id="Trazado_720839" data-name="Trazado 720839" d="M22.514,38.775a3.752,3.752,0,1,0,3.752,3.752,3.756,3.756,0,0,0-3.752-3.752m0,5a1.251,1.251,0,1,1,1.251-1.251,1.253,1.253,0,0,1-1.251,1.251"/>
        <path id="Trazado_720840" data-name="Trazado 720840" d="M72.469,59.848a17.495,17.495,0,0,0-4.926-28.139V23.765a2.5,2.5,0,0,0,2.5-2.5,5.008,5.008,0,0,0-5-5H61.289V6.255A6.262,6.262,0,0,0,55.035,0H25.016a6.263,6.263,0,0,0-6.254,6.256v1.25h-5a5.008,5.008,0,0,0-5,5,2.5,2.5,0,0,0,2.5,2.5V21.64a11.177,11.177,0,0,1-.633,3.718L2.4,48.867l.236.473a10.332,10.332,0,0,0,2.492,3.193H3.753A3.758,3.758,0,0,0,0,56.286V77.549H78Zm-1.505-4.813H49.113l-.641,2.05a14.988,14.988,0,0,1-2.728-14.132,11.756,11.756,0,0,1,3.037-.425c2.587,0,4.726,1.513,7.2,3.265,2.806,1.987,5.987,4.239,10.309,4.239,3.927,0,6.82-.488,8.7-1.436a14.937,14.937,0,0,1-3.388,8.489Zm-1.355,4.047a14.971,14.971,0,0,1-19.14,0l.483-1.546H69.124Zm5.074-14.854c.1.431.169.87.228,1.314-.568.96-3.087,1.988-8.618,1.988-2.827,0-5.055-1.186-7.242-2.655a14.176,14.176,0,0,1,7.242-2.347c5.94,0,7.826,1.146,8.39,1.7M65.811,33.674a14.989,14.989,0,0,1,7.678,7.194,25.224,25.224,0,0,0-7.2-.843,16.892,16.892,0,0,0-9.458,3.31c-2.406-1.69-4.928-3.31-8.054-3.31a13.527,13.527,0,0,0-1.826.137,14.994,14.994,0,0,1,7.31-6.487l.77-.321V23.765h3.753v5h2.5v-5h3.753v9.589ZM52.534,21.263a2.5,2.5,0,0,1,2.5-2.5h3.753v2.5Zm12.508-2.5a2.507,2.507,0,0,1,2.5,2.5H61.289v-2.5ZM11.257,12.508a2.5,2.5,0,0,1,2.5-2.5h5v2.5h-7.5Zm10.007,0v-2.5h5a2.5,2.5,0,0,1,2.5,2.5Zm-2.5,2.5v5h2.5v-5h5V21.64a13.725,13.725,0,0,0,.772,4.545l.224.639a17.718,17.718,0,0,0-4.747-.558c-2.193,0-4.759.991-7.639,2.947a20.466,20.466,0,0,0-2.4-1.57l.51-1.459a13.7,13.7,0,0,0,.773-4.544V15.009Zm9.96,15.985a1.651,1.651,0,0,1,.047.274c0,1.662-2.1,2.5-6.253,2.5-1.829,0-3.649-1.39-5.565-2.924a11.162,11.162,0,0,1,5.565-2.079c3.382,0,5.381.569,6.012,1.674ZM5.116,48.673l6.52-18.631a30.533,30.533,0,0,1,3.454,2.517c2.273,1.826,4.624,3.715,7.427,3.715,3.541,0,6-.634,7.4-1.875l5,14.275a7.754,7.754,0,0,1-6.733,3.859H11.848a7.75,7.75,0,0,1-6.732-3.86M3.753,55.035h32.52a1.252,1.252,0,0,1,1.251,1.251v1.25H2.5v-1.25a1.252,1.252,0,0,1,1.251-1.251M32.521,75.048H7.505v-2.5H32.521Zm-19.943-5a5.709,5.709,0,0,1,1.658-3.586,6.893,6.893,0,0,0,1.91-3.686c1.106.416,2.616,1.567,2.616,4.771h2.5c0-3.2,1.5-4.353,2.615-4.77a6.879,6.879,0,0,0,1.91,3.685,5.7,5.7,0,0,1,1.658,3.586Zm7.435-7.239a6.165,6.165,0,0,0-5-2.767H25.016a6.165,6.165,0,0,0-5,2.767M2.5,60.038H13.759v1.251a4.5,4.5,0,0,1-1.416,3.535,8.116,8.116,0,0,0-2.281,5.22H5v5H2.5Zm32.521,15.01v-5H29.964a8.116,8.116,0,0,0-2.281-5.22,4.5,4.5,0,0,1-1.416-3.535V60.038H37.524v15.01Zm5,0V56.286a3.758,3.758,0,0,0-3.753-3.753H34.9a10.317,10.317,0,0,0,2.492-3.193l.236-.473-6.46-18.456a3.958,3.958,0,0,0-.475-1.355l-1.3-3.7a11.251,11.251,0,0,1-.63-3.718V15.009a2.5,2.5,0,0,0,2.5-2.5,5.008,5.008,0,0,0-5-5h-5V6.255A3.757,3.757,0,0,1,25.016,2.5H55.035a3.758,3.758,0,0,1,3.753,3.753V16.26H55.035a5.008,5.008,0,0,0-5,5,2.5,2.5,0,0,0,2.5,2.5v7.944a17.495,17.495,0,0,0-4.926,28.139l-4.749,15.2Zm9.651-13.434a17.377,17.377,0,0,0,20.723,0l4.2,13.434H45.479Z"/>
        <path id="Trazado_720841" data-name="Trazado 720841" d="M51.283,45.029a3.753,3.753,0,1,0,3.752,3.752,3.756,3.756,0,0,0-3.752-3.752m0,5a1.251,1.251,0,1,1,1.251-1.251,1.253,1.253,0,0,1-1.251,1.251"/>
      </g>
    </g>
  </g>
</svg>
