<svg xmlns="http://www.w3.org/2000/svg" xmlns:xlink="http://www.w3.org/1999/xlink" width="90" height="90" viewBox="0 0 90 90">
  <defs>
    <clipPath id="clip-path">
      <rect id="Rectángulo_351307" data-name="Rectángulo 351307" width="78" height="78" fill="none"/>
    </clipPath>
  </defs>
  <g id="Grupo_1008582" data-name="Grupo 1008582" transform="translate(-1065 -1270)">
    <rect id="Rectángulo_351171" data-name="Rectángulo 351171" width="90" height="90" transform="translate(1065 1270)" fill="none"/>
    <g id="Grupo_1008579" data-name="Grupo 1008579" transform="translate(1071 1276)">
      <g id="Grupo_1008578" data-name="Grupo 1008578" clip-path="url(#clip-path)">
        <path id="Trazado_720842" data-name="Trazado 720842" d="M36.581,10.854a2.606,2.606,0,0,1-1.723,2.45,2.6,2.6,0,0,1,0,4.9,2.6,2.6,0,0,1,0,4.9,2.6,2.6,0,0,1,0,4.9,2.6,2.6,0,0,1-.884,5.056h10.05A2.605,2.605,0,0,1,43.14,28a2.6,2.6,0,0,1,0-4.9,2.6,2.6,0,0,1,0-4.9,2.6,2.6,0,0,1,0-4.9,2.605,2.605,0,0,1-1.722-2.45V7.386H36.669" fill="#ddd"/>
        <path id="Trazado_720843" data-name="Trazado 720843" d="M37.764,13.3a2.6,2.6,0,0,1,0,4.9,2.6,2.6,0,0,1,0,4.9,2.6,2.6,0,0,1,0,4.9,2.6,2.6,0,0,1-.884,5.056H33.975A2.6,2.6,0,0,0,34.859,28a2.6,2.6,0,0,0,0-4.9,2.6,2.6,0,0,0,0-4.9,2.6,2.6,0,0,0,0-4.9,2.607,2.607,0,0,0,1.723-2.45l.088-3.469h2.9l-.087,3.469a2.607,2.607,0,0,1-1.723,2.45" fill="#ccc"/>
        <path id="Trazado_720844" data-name="Trazado 720844" d="M41.418,10.854a2.608,2.608,0,0,0,1.723,2.451,2.6,2.6,0,0,0,0,4.9,2.6,2.6,0,0,0,0,4.9,2.6,2.6,0,0,0,0,4.9,2.6,2.6,0,0,0-1.345,3.8" fill="none" stroke="#000" stroke-linecap="round" stroke-linejoin="round" stroke-width="2.285"/>
        <path id="Trazado_720845" data-name="Trazado 720845" d="M36.581,10.854a2.608,2.608,0,0,1-1.723,2.451,2.6,2.6,0,0,1,0,4.9,2.6,2.6,0,0,1,0,4.9,2.6,2.6,0,0,1,0,4.9,2.6,2.6,0,0,1,1.344,3.8" fill="none" stroke="#000" stroke-linecap="round" stroke-linejoin="round" stroke-width="2.285"/>
        <path id="Trazado_720846" data-name="Trazado 720846" d="M10.486,51.536a4.773,4.773,0,0,1,7.852-3.649,4.774,4.774,0,0,1,8.056-1.878A4.775,4.775,0,0,1,34.9,45.37a4.775,4.775,0,0,1,8.19,0,4.775,4.775,0,0,1,8.511.639,4.773,4.773,0,0,1,8.055,1.878,4.774,4.774,0,0,1,7.853,3.649V70.67l-5.2,3.978H14.363l-3.536-3.536Z" fill="#69d6f4"/>
        <path id="Trazado_720847" data-name="Trazado 720847" d="M22.537,55.631a4.775,4.775,0,0,0,2.319,4.1,4.774,4.774,0,0,0,0,8.189,4.773,4.773,0,0,0-1.523,6.733H14.361l-3.535-3.537-.341-19.575a4.773,4.773,0,0,1,7.853-3.649,4.775,4.775,0,0,1,6.555-2.959,4.765,4.765,0,0,0,.6,6.286,4.777,4.777,0,0,0-2.959,4.417" fill="#00bcd4"/>
        <path id="Trazado_720848" data-name="Trazado 720848" d="M25.467,45.24a4.892,4.892,0,0,1,.926.769,4.775,4.775,0,0,1,8.51-.64,4.778,4.778,0,0,1,8.192,0,4.775,4.775,0,0,1,8.51.64,4.775,4.775,0,0,1,8.056,1.877,4.779,4.779,0,0,1,4.294-.967" fill="none" stroke="#000" stroke-linecap="round" stroke-linejoin="round" stroke-width="2.285"/>
        <path id="Trazado_720849" data-name="Trazado 720849" d="M14.043,46.919a4.781,4.781,0,0,1,4.295.967,4.788,4.788,0,0,1,2.011-2.646" fill="none" stroke="#000" stroke-linecap="round" stroke-linejoin="round" stroke-width="2.285"/>
        <path id="Trazado_720850" data-name="Trazado 720850" d="M43.1,65.587a4.775,4.775,0,0,0-8.19,0,4.775,4.775,0,0,0-8.511.639" fill="none" stroke="#000" stroke-linecap="round" stroke-linejoin="round" stroke-width="2.285"/>
        <path id="Trazado_720851" data-name="Trazado 720851" d="M57.545,58.538A4.773,4.773,0,0,0,49.49,56.66a4.775,4.775,0,0,0-8.511-.639" fill="none" stroke="#000" stroke-linecap="round" stroke-linejoin="round" stroke-width="2.285"/>
        <path id="Trazado_720852" data-name="Trazado 720852" d="M66.448,25.117a2.492,2.492,0,0,1,2.491,2.492V70.723a6.134,6.134,0,0,1-6.134,6.134H15.195A6.134,6.134,0,0,1,9.06,70.723V27.609a2.492,2.492,0,0,1,4.984,0V70.721a1.153,1.153,0,0,0,1.151,1.153h47.61a1.154,1.154,0,0,0,1.151-1.153V27.609a2.492,2.492,0,0,1,2.492-2.492" fill="#ccd1d9"/>
        <path id="Trazado_720853" data-name="Trazado 720853" d="M68.939,69.566v1.156a6.134,6.134,0,0,1-6.133,6.135H15.195A6.135,6.135,0,0,1,9.06,70.722V27.609a2.492,2.492,0,1,1,4.983,0V70.721a1.153,1.153,0,0,0,1.152,1.153H62.806a1.153,1.153,0,0,0,1.15-1.153V27.609a2.492,2.492,0,1,1,4.983,0V64.234" fill="none" stroke="#000" stroke-linecap="round" stroke-linejoin="round" stroke-width="2.285"/>
        <path id="Trazado_720854" data-name="Trazado 720854" d="M58.424,39.251H19.576a2.082,2.082,0,0,1-2.082-2.081V33.885A2.082,2.082,0,0,1,19.576,31.8H58.424a2.081,2.081,0,0,1,2.081,2.081V37.17a2.081,2.081,0,0,1-2.081,2.081" fill="#e8edf2"/>
        <path id="Trazado_720855" data-name="Trazado 720855" d="M28.694,39.251H19.575a2.082,2.082,0,0,1-2.081-2.081V33.885A2.081,2.081,0,0,1,19.575,31.8h9.119a2.08,2.08,0,0,0-2.081,2.081V37.17a2.081,2.081,0,0,0,2.081,2.081" fill="#dedbee"/>
        <path id="Rectángulo_351303" data-name="Rectángulo 351303" d="M2.081,0H40.929a2.082,2.082,0,0,1,2.082,2.082V5.366A2.081,2.081,0,0,1,40.93,7.447H2.081A2.081,2.081,0,0,1,0,5.366V2.081A2.081,2.081,0,0,1,2.081,0Z" transform="translate(17.494 31.804)" fill="none" stroke="#000" stroke-linecap="round" stroke-linejoin="round" stroke-width="2.285"/>
        <path id="Trazado_720856" data-name="Trazado 720856" d="M67.921,3.335H10.078a2.438,2.438,0,1,0,0,4.877H67.921a2.438,2.438,0,1,0,0-4.877" fill="#e8edf2"/>
        <line id="Línea_3054" data-name="Línea 3054" x1="16.246" transform="translate(16.42 3.335)" fill="none" stroke="#000" stroke-linecap="round" stroke-linejoin="round" stroke-width="2.285"/>
        <line id="Línea_3055" data-name="Línea 3055" x1="16.246" transform="translate(16.42 8.213)" fill="none" stroke="#000" stroke-linecap="round" stroke-linejoin="round" stroke-width="2.285"/>
        <line id="Línea_3056" data-name="Línea 3056" x1="6.12" transform="translate(45.333 3.335)" fill="none" stroke="#000" stroke-linecap="round" stroke-linejoin="round" stroke-width="2.285"/>
        <line id="Línea_3057" data-name="Línea 3057" x1="4.794" transform="translate(56.785 3.335)" fill="none" stroke="#000" stroke-linecap="round" stroke-linejoin="round" stroke-width="2.285"/>
        <line id="Línea_3058" data-name="Línea 3058" x1="16.246" transform="translate(45.333 8.213)" fill="none" stroke="#000" stroke-linecap="round" stroke-linejoin="round" stroke-width="2.285"/>
        <path id="Trazado_720857" data-name="Trazado 720857" d="M42.608,1.143H35.39A2.79,2.79,0,0,0,32.6,3.933V7.616A2.789,2.789,0,0,0,35.39,10.4h7.218A2.79,2.79,0,0,0,45.4,7.616V3.933a2.79,2.79,0,0,0-2.79-2.79" fill="#918291"/>
        <path id="Trazado_720858" data-name="Trazado 720858" d="M13.694,1.143H6.476a2.79,2.79,0,0,0-2.789,2.79V7.616A2.789,2.789,0,0,0,6.476,10.4h7.218a2.79,2.79,0,0,0,2.79-2.789V3.933a2.79,2.79,0,0,0-2.79-2.79" fill="#918291"/>
        <path id="Trazado_720859" data-name="Trazado 720859" d="M71.523,1.143H64.305a2.79,2.79,0,0,0-2.789,2.79V7.616A2.789,2.789,0,0,0,64.305,10.4h7.218a2.789,2.789,0,0,0,2.789-2.789V3.933a2.79,2.79,0,0,0-2.789-2.79" fill="#918291"/>
        <path id="Trazado_720860" data-name="Trazado 720860" d="M45.4,3.932V7.616A2.789,2.789,0,0,1,42.609,10.4H35.391A2.79,2.79,0,0,1,32.6,7.616V3.932a2.791,2.791,0,0,0,2.79,2.753h7.218A2.79,2.79,0,0,0,45.4,3.932" fill="#7a6d79"/>
        <path id="Trazado_720861" data-name="Trazado 720861" d="M16.484,3.932V7.616A2.789,2.789,0,0,1,13.695,10.4H6.477a2.79,2.79,0,0,1-2.79-2.789V3.932a2.791,2.791,0,0,0,2.79,2.753h7.218a2.79,2.79,0,0,0,2.789-2.753" fill="#7a6d79"/>
        <path id="Trazado_720862" data-name="Trazado 720862" d="M74.313,3.932V7.616A2.789,2.789,0,0,1,71.524,10.4H64.306a2.79,2.79,0,0,1-2.79-2.789V3.932a2.791,2.791,0,0,0,2.79,2.753h7.218a2.79,2.79,0,0,0,2.789-2.753" fill="#7a6d79"/>
        <path id="Rectángulo_351304" data-name="Rectángulo 351304" d="M2.79,0h7.218A2.789,2.789,0,0,1,12.8,2.789V6.473a2.789,2.789,0,0,1-2.789,2.789H2.79A2.79,2.79,0,0,1,0,6.472V2.79A2.79,2.79,0,0,1,2.79,0Z" transform="translate(32.601 1.143)" fill="none" stroke="#000" stroke-linecap="round" stroke-linejoin="round" stroke-width="2.285"/>
        <path id="Rectángulo_351305" data-name="Rectángulo 351305" d="M2.79,0h7.218A2.789,2.789,0,0,1,12.8,2.789V6.473a2.789,2.789,0,0,1-2.789,2.789H2.79A2.79,2.79,0,0,1,0,6.472V2.79A2.79,2.79,0,0,1,2.79,0Z" transform="translate(3.687 1.143)" fill="none" stroke="#000" stroke-linecap="round" stroke-linejoin="round" stroke-width="2.285"/>
        <path id="Rectángulo_351306" data-name="Rectángulo 351306" d="M2.79,0h7.217A2.789,2.789,0,0,1,12.8,2.789V6.473a2.789,2.789,0,0,1-2.789,2.789H2.789A2.789,2.789,0,0,1,0,6.473V2.79A2.79,2.79,0,0,1,2.79,0Z" transform="translate(61.516 1.143)" fill="none" stroke="#000" stroke-linecap="round" stroke-linejoin="round" stroke-width="2.285"/>
      </g>
    </g>
  </g>
</svg>
