<svg xmlns="http://www.w3.org/2000/svg" xmlns:xlink="http://www.w3.org/1999/xlink" width="443" height="749" viewBox="0 0 443 749">
  <defs>
    <filter id="mano-doctora-sosteniendo-paquete-ampollas-tabletas-diferentes-primer-plano-lugar-trabajo" x="0" y="0" width="443" height="749" filterUnits="userSpaceOnUse">
      <feOffset dx="3" dy="3" input="SourceAlpha"/>
      <feGaussianBlur stdDeviation="3" result="blur"/>
      <feFlood flood-opacity="0.161"/>
      <feComposite operator="in" in2="blur"/>
      <feComposite in="SourceGraphic"/>
    </filter>
    <clipPath id="clip-path">
      <rect id="Rectángulo_351317" data-name="Rectángulo 351317" width="231.469" height="616.32" fill="none"/>
    </clipPath>
    <clipPath id="clip-path-3">
      <rect id="Rectángulo_351308" data-name="Rectángulo 351308" width="42.86" height="93.147" transform="translate(89.979 325.968)" fill="none"/>
    </clipPath>
    <clipPath id="clip-path-4">
      <rect id="Rectángulo_351309" data-name="Rectángulo 351309" width="2.451" height="2.452" transform="translate(109.411 297.416)" fill="none"/>
    </clipPath>
    <clipPath id="clip-path-5">
      <rect id="Rectángulo_351310" data-name="Rectángulo 351310" width="2.451" height="2.451" transform="translate(109.411 311.392)" fill="none"/>
    </clipPath>
    <clipPath id="clip-path-6">
      <rect id="Rectángulo_351311" data-name="Rectángulo 351311" width="2.451" height="2.451" transform="translate(109.411 548.298)" fill="none"/>
    </clipPath>
    <clipPath id="clip-path-7">
      <rect id="Rectángulo_351312" data-name="Rectángulo 351312" width="2.451" height="2.451" transform="translate(109.411 532.758)" fill="none"/>
    </clipPath>
    <clipPath id="clip-path-8">
      <rect id="Rectángulo_351313" data-name="Rectángulo 351313" width="2.451" height="2.451" transform="translate(109.411 562.274)" fill="none"/>
    </clipPath>
    <clipPath id="clip-path-9">
      <rect id="Rectángulo_351319" data-name="Rectángulo 351319" width="74.398" height="43.062" transform="translate(0 0)" fill="none"/>
    </clipPath>
  </defs>
  <g id="Grupo_1008849" data-name="Grupo 1008849" transform="translate(-420 4577.153)">
    <g transform="matrix(1, 0, 0, 1, 420, -4577.15)" filter="url(#mano-doctora-sosteniendo-paquete-ampollas-tabletas-diferentes-primer-plano-lugar-trabajo)">
      <path id="mano-doctora-sosteniendo-paquete-ampollas-tabletas-diferentes-primer-plano-lugar-trabajo-2" data-name="mano-doctora-sosteniendo-paquete-ampollas-tabletas-diferentes-primer-plano-lugar-trabajo" d="M15,0H410a15,15,0,0,1,15,15V716a15,15,0,0,1-15,15H15A15,15,0,0,1,0,716V15A15,15,0,0,1,15,0Z" transform="translate(6 6)" fill="#fff"/>
    </g>
    <g id="Grupo_1008611" data-name="Grupo 1008611" transform="translate(551.531 -4522)" clip-path="url(#clip-path)">
      <g id="Grupo_1008610" data-name="Grupo 1008610">
        <g id="Grupo_1008609" data-name="Grupo 1008609" clip-path="url(#clip-path)">
          <path id="Trazado_720865" data-name="Trazado 720865" d="M143.244,423.846V317.175H81.519V423.846a9.023,9.023,0,0,0,1.373,4.784c-.05.1-.093.177-.151.293-1.291,2.553-2.723,9.363-14.567,8.979l-.093,0-3.129.1c-11.966,0-14.484-6.416-14.484-13.124V348.339c2.345-.747,3.969-2.337,3.969-4.183s-1.624-3.436-3.969-4.183v-4.584a4.879,4.879,0,0,1,4.872-4.873h2.143a4.879,4.879,0,0,1,4.873,4.873v7.77h6v-7.77a10.886,10.886,0,0,0-10.873-10.873H55.34a10.885,10.885,0,0,0-10.872,10.873v4.584c-2.345.747-3.969,2.337-3.969,4.183s1.624,3.436,3.969,4.183v78.538c0,4.572,4.855,17.124,20.579,17.122l3.039-.1c11.989.092,18.976-3.442,23.3-10.976h42.775a9.08,9.08,0,0,0,9.08-9.08" fill="#4cebff"/>
          <g id="Grupo_1008593" data-name="Grupo 1008593" opacity="0.5">
            <g id="Grupo_1008592" data-name="Grupo 1008592">
              <g id="Grupo_1008591" data-name="Grupo 1008591" clip-path="url(#clip-path-3)">
                <path id="Trazado_720866" data-name="Trazado 720866" d="M118.743,332.065s5.53-.825,5.908,2.613,1.591.326,3.485-.333,2.727-4.56.946-4.636-2.992-2.462-5.3-1.553-5.264-1.553-5.567-.038-1.7,1.948.53,3.947" fill="#0e4f54"/>
                <path id="Trazado_720867" data-name="Trazado 720867" d="M108.981,337.837s5.53-.825,5.908,2.613,1.591.326,3.485-.333,2.727-4.56.947-4.636-2.993-2.462-5.3-1.553-5.264-1.553-5.567-.038-1.7,1.948.53,3.947" fill="#0e4f54"/>
                <path id="Trazado_720868" data-name="Trazado 720868" d="M103.96,348.542s5.53-.825,5.908,2.613,1.591.326,3.485-.333,2.727-4.56.947-4.636-2.993-2.462-5.3-1.553-5.264-1.553-5.567-.038-1.705,1.948.53,3.947" fill="#0e4f54"/>
                <path id="Trazado_720869" data-name="Trazado 720869" d="M94.18,332.724s-2.305,6.753-1.11,8.5c1.951,2.856-.2,1.61.6,3.449s4.754,2.372,4.694.592,2.228-3.171,1.146-5.4,1.149-5.367-.385-5.554S96,330.344,94.18,332.724" fill="#0e4f54"/>
                <path id="Trazado_720870" data-name="Trazado 720870" d="M97.38,329.274s1.864-.55,2.452,1.805,2.06,2.517,3.924,1.758,4.61-4.086,1.373-5.42-9.907-2.449-8.926,0-.49,1.765,1.177,1.857" fill="#0e4f54"/>
                <path id="Trazado_720871" data-name="Trazado 720871" d="M103.854,355.515s-1.9.761-2.337-2.85-1.9-3.916-3.81-2.837-4.862,6.032-1.712,8.2,9.745,4.137,8.919.367.6-2.667-1.06-2.876" fill="#0e4f54"/>
                <path id="Trazado_720872" data-name="Trazado 720872" d="M127.558,363.714s-1.241-1.624,2.12-3.014,3.265-2.878,1.717-4.43-7.113-3.072-8.357.542-1.379,10.5,2.031,8.692,2.73-.134,2.489-1.79" fill="#0e4f54"/>
                <path id="Trazado_720873" data-name="Trazado 720873" d="M104.714,335.341s.463,1.144-1.524,1.505-2.123,1.265-1.483,2.409,3.447,2.83,4.573.843,2.066-6.082,0-5.48-1.489-.3-1.566.723" fill="#0e4f54"/>
                <path id="Trazado_720874" data-name="Trazado 720874" d="M95.2,363.678s1.673,5.335-1.665,6.242-.074,1.622.871,3.391,4.928,1.986,4.726.216,1.968-3.338.711-5.48.717-5.441-.826-5.505-2.189-1.382-3.817,1.136" fill="#0e4f54"/>
                <path id="Trazado_720875" data-name="Trazado 720875" d="M126.789,371.261s1.673,5.335-1.665,6.242-.074,1.622.871,3.391,4.928,1.986,4.726.216,1.968-3.338.711-5.48.717-5.441-.826-5.505-2.189-1.382-3.817,1.136" fill="#0e4f54"/>
                <path id="Trazado_720876" data-name="Trazado 720876" d="M121.1,342.028s1.673,5.335-1.665,6.242-.074,1.622.871,3.391,4.928,1.986,4.726.216,1.968-3.338.711-5.48.717-5.441-.826-5.505-2.189-1.382-3.817,1.136" fill="#0e4f54"/>
                <path id="Trazado_720877" data-name="Trazado 720877" d="M91.222,384.51s1.5,5.492,5.908,2.613c2.9-1.892,1.591.326,3.485-.333s2.727-4.56.947-4.636-2.993-2.462-5.3-1.553-5.264-1.553-5.567-.038-1.705,1.948.53,3.947" fill="#0e4f54"/>
                <path id="Trazado_720878" data-name="Trazado 720878" d="M101.811,396.412s4.815,1.421,5.593,1.128c3.238-1.22,1.591.325,3.485-.334s2.727-4.56.947-4.636-2.364-.345-4.674.564-5.893-3.67-6.2-2.155-1.39,3.434.845,5.433" fill="#0e4f54"/>
                <path id="Trazado_720879" data-name="Trazado 720879" d="M116.048,372.3s2.393,5.052-.788,6.412.15,1.617,1.33,3.238,5.155,1.287,4.711-.439,1.488-3.577-.052-5.524-.041-5.489-1.579-5.339-2.357-1.066-3.622,1.652" fill="#0e4f54"/>
                <path id="Trazado_720880" data-name="Trazado 720880" d="M105.442,362.212s-2.305,6.753-1.11,8.5c1.951,2.856-.2,1.61.6,3.449s4.754,2.372,4.694.592,2.228-3.171,1.146-5.4,1.149-5.367-.385-5.554-3.118-3.964-4.942-1.584" fill="#0e4f54"/>
                <path id="Trazado_720881" data-name="Trazado 720881" d="M108.643,358.761s1.864-.55,2.452,1.805,2.06,2.517,3.924,1.758,4.61-4.086,1.373-5.42-9.907-2.449-8.926,0-.49,1.765,1.177,1.857" fill="#0e4f54"/>
                <path id="Trazado_720882" data-name="Trazado 720882" d="M115.116,385s-1.9.761-2.337-2.85-1.9-3.916-3.81-2.837-4.862,6.032-1.712,8.2,9.745,4.137,8.919.367.6-2.667-1.06-2.876" fill="#0e4f54"/>
                <path id="Trazado_720883" data-name="Trazado 720883" d="M115.976,364.828s.464,1.144-1.523,1.505-2.123,1.265-1.483,2.409,3.447,2.83,4.573.843,2.066-6.082,0-5.48-1.489-.3-1.567.723" fill="#0e4f54"/>
                <path id="Trazado_720884" data-name="Trazado 720884" d="M123.19,387.6s.464,1.144-1.523,1.505-2.123,1.265-1.483,2.409,3.447,2.83,4.573.843,2.066-6.082,0-5.48-1.489-.3-1.567.723" fill="#0e4f54"/>
                <path id="Trazado_720885" data-name="Trazado 720885" d="M103.96,404.67s5.53-.825,5.908,2.613,1.591.326,3.485-.333,2.727-4.56.947-4.636-2.993-2.462-5.3-1.553-5.264-1.553-5.567-.038-1.705,1.948.53,3.947" fill="#0e4f54"/>
                <path id="Trazado_720886" data-name="Trazado 720886" d="M103.854,411.643s-1.9.761-2.337-2.85-1.9-3.916-3.81-2.837-4.862,6.032-1.712,8.2,9.745,4.137,8.919.367.6-2.667-1.06-2.876" fill="#0e4f54"/>
                <path id="Trazado_720887" data-name="Trazado 720887" d="M127.967,417.029s-1.24-1.624,2.121-3.014,3.265-2.878,1.716-4.43-7.113-3.072-8.356.542-1.38,10.5,2.031,8.692,2.73-.134,2.488-1.79" fill="#0e4f54"/>
                <path id="Trazado_720888" data-name="Trazado 720888" d="M121.1,398.155s1.673,5.335-1.665,6.242-.074,1.622.871,3.391,4.928,1.986,4.726.216,1.968-3.338.711-5.48.717-5.441-.826-5.5-2.189-1.382-3.817,1.136" fill="#0e4f54"/>
                <path id="Trazado_720889" data-name="Trazado 720889" d="M128.29,399.867s1.923,1.421,2.234,1.128c1.293-1.22.635.325,1.391-.334s1.09-4.56.379-4.636-.944-.345-1.867.564-2.353-3.67-2.474-2.155-.555,3.434.337,5.433" fill="#0e4f54"/>
                <path id="Trazado_720890" data-name="Trazado 720890" d="M108.643,414.888s1.864-.55,2.452,1.8,2.06,2.517,3.924,1.758,4.61-4.086,1.373-5.42-9.907-2.449-8.926,0-.49,1.765,1.177,1.857" fill="#0e4f54"/>
                <path id="Trazado_720891" data-name="Trazado 720891" d="M95.267,395.132s.464,1.144-1.523,1.505-2.123,1.265-1.483,2.409,3.447,2.83,4.573.843,2.066-6.082,0-5.48-1.489-.3-1.567.723" fill="#0e4f54"/>
                <path id="Trazado_720892" data-name="Trazado 720892" d="M117.269,395.132s.464,1.144-1.523,1.505-2.123,1.265-1.483,2.409,3.447,2.83,4.573.843,2.066-6.082,0-5.48-1.489-.3-1.567.723" fill="#0e4f54"/>
              </g>
            </g>
          </g>
          <path id="Trazado_720893" data-name="Trazado 720893" d="M58.215,571.077c0,24.711,24.711,44.743,55.193,44.743S168.6,595.788,168.6,571.077c0-.223-.011-.443-.015-.665H58.23c0,.222-.015.442-.015.665" fill="#4cebff"/>
          <path id="Trazado_720894" data-name="Trazado 720894" d="M133.4,435.138H93.411l-2-2.212H135.4Z" fill="none" stroke="#000" stroke-miterlimit="10" stroke-width="1"/>
          <path id="Trazado_720895" data-name="Trazado 720895" d="M190.3,270.4l-47.06-14.3V241.658a9.08,9.08,0,0,0-9.08-9.08H90.6a9.081,9.081,0,0,0-9.08,9.08V423.846a9.023,9.023,0,0,0,1.373,4.784c-.05.1-.093.177-.151.292-1.291,2.554-2.722,9.364-14.567,8.98l-.093,0-3.129.1c-11.966,0-14.484-6.416-14.484-13.124V348.339c2.345-.747,3.969-2.337,3.969-4.183s-1.624-3.436-3.969-4.183v-4.584a4.879,4.879,0,0,1,4.873-4.873h2.143a4.879,4.879,0,0,1,4.872,4.873v7.77h6v-7.77a10.885,10.885,0,0,0-10.872-10.873H55.341a10.886,10.886,0,0,0-10.873,10.873v4.584c-2.345.747-3.969,2.337-3.969,4.183s1.624,3.436,3.969,4.183v78.538c0,4.572,4.855,17.124,20.58,17.122l3.039-.1c11.989.092,18.975-3.442,23.3-10.976h42.775a9.08,9.08,0,0,0,9.08-9.08V268.641l43.572,13.241a20.608,20.608,0,0,1,14.7,19.827V414.264a20.613,20.613,0,0,1-14.659,19.815L133.4,450.433v-15.3H93.411v65.737H133.4V462.982l56.959-17.429a32.547,32.547,0,0,0,23.148-31.289V301.709A32.538,32.538,0,0,0,190.3,270.4Z" fill="none" stroke="#000" stroke-miterlimit="10" stroke-width="1"/>
          <path id="Trazado_720896" data-name="Trazado 720896" d="M139.661,205.58v-5.636a3.365,3.365,0,0,1,3.365-3.365h22.746v-5.367h-21.04a5.086,5.086,0,0,1-5.071-5.071V69.943a19.377,19.377,0,0,0-19.377-19.377H104.479A19.377,19.377,0,0,0,85.1,69.943a1.269,1.269,0,0,1-1.269,1.269h-22.2a1.137,1.137,0,0,0-.225.046v6.169a1.214,1.214,0,0,0,.225.046h22.2A1.269,1.269,0,0,1,85.1,78.742V205.58a11.64,11.64,0,0,1-2.556,6.435,4.356,4.356,0,0,0-1.027,2.818v35.679c0,3.572,2.534,5.439,6.488,6.784a1.752,1.752,0,0,0,.209.033c1.666.368,13.194,3.154,16.623,10.618a2.345,2.345,0,0,0,1.181,1.133l10.746,4.872c1.252.568,1.919.19,2.313-1.126,1.529-5.118,5.338-14.279,15.229-15.539,2.588-.33,8.936-2.2,8.936-6.39V214.833a4.356,4.356,0,0,0-1.027-2.818,11.64,11.64,0,0,1-2.556-6.435" fill="#81d4fa"/>
          <path id="Trazado_720897" data-name="Trazado 720897" d="M83.833,71.659a1.719,1.719,0,0,0,1.717-1.717,18.95,18.95,0,0,1,18.929-18.929h15.806a18.951,18.951,0,0,1,18.929,18.929v116.2a5.525,5.525,0,0,0,5.519,5.519h21.039v-.895H144.733a4.629,4.629,0,0,1-4.624-4.624V69.942a19.848,19.848,0,0,0-19.824-19.824H104.479A19.847,19.847,0,0,0,84.655,69.942a.822.822,0,0,1-.822.822h-22.2a1.679,1.679,0,0,0-.226.023v.918a.777.777,0,0,1,.226-.046Z"/>
          <path id="Trazado_720898" data-name="Trazado 720898" d="M140.109,205.58v-5.636a2.921,2.921,0,0,1,2.918-2.918h22.746v-.9H143.027a3.817,3.817,0,0,0-3.813,3.813v5.636a12.164,12.164,0,0,0,2.662,6.723,3.937,3.937,0,0,1,.921,2.529V250.9c0,3.965-6.328,5.663-8.544,5.946-7.39.942-12.785,6.424-15.6,15.855-.166.554-.377.894-.628,1.008a1.4,1.4,0,0,1-1.072-.161l-10.746-4.872a1.9,1.9,0,0,1-.959-.913c-3.472-7.556-14.715-10.378-16.932-10.867l-.162-.02c-4.335-1.476-6.185-3.378-6.185-6.361v-35.68a3.936,3.936,0,0,1,.922-2.529,12.17,12.17,0,0,0,2.661-6.723V78.742a1.718,1.718,0,0,0-1.717-1.716h-22.2a.811.811,0,0,1-.226-.046V77.9a1.7,1.7,0,0,0,.226.023h22.2a.823.823,0,0,1,.822.822V205.58a11.155,11.155,0,0,1-2.45,6.147,4.829,4.829,0,0,0-1.133,3.1v35.68c0,4.34,3.63,6.131,6.792,7.208a1.091,1.091,0,0,0,.256.046c1.316.29,12.948,3.044,16.313,10.367a2.789,2.789,0,0,0,1.4,1.355l10.746,4.871a2.853,2.853,0,0,0,1.166.3,1.538,1.538,0,0,0,.646-.135,2.257,2.257,0,0,0,1.113-1.566c2.709-9.066,7.847-14.331,14.859-15.224,2.419-.308,9.326-2.225,9.326-6.833V214.832a4.827,4.827,0,0,0-1.133-3.1,11.155,11.155,0,0,1-2.45-6.147"/>
          <path id="Trazado_720899" data-name="Trazado 720899" d="M137.536,530.829V500.875H89.278v29.954c-18.389,7.259-31.064,22.552-31.064,40.248,0,24.71,24.711,44.743,55.193,44.743S168.6,595.787,168.6,571.077C168.6,553.381,155.925,538.088,137.536,530.829Z" fill="none" stroke="#000" stroke-miterlimit="10" stroke-width="1"/>
          <path id="Trazado_720900" data-name="Trazado 720900" d="M133.4,522.344H93.411l-3-21.469H136.4Z" fill="none" stroke="#000" stroke-miterlimit="10" stroke-width="1"/>
          <line id="Línea_3059" data-name="Línea 3059" x2="61.594" transform="translate(81.585 214.08)" fill="none" stroke="#000" stroke-miterlimit="10" stroke-width="1"/>
          <path id="Trazado_720901" data-name="Trazado 720901" d="M92.571,222.139c0,14.837,13.113,13.943,13.113,23.744v23.045l13.4,6.072V245.883c0-9.8,13.113-8.907,13.113-23.744,0-13.543-12.279-10.267-13.083-20.312.626-9.047,13.083-8.565,13.083-23.029,0-13.544-12.279-10.267-13.083-20.314.626-9.046,13.083-8.565,13.083-23.027,0-13.544-12.279-10.268-13.083-20.314.626-9.047,13.083-8.565,13.083-23.028,0-13.756-12.667-10.159-13.113-20.792V22.286l-1.568-1.859V.667l-10.259,3V20l-1.568,2.291V71.323c-.446,10.633-13.113,7.036-13.113,20.792,0,14.463,12.457,13.981,13.083,23.028-.8,10.046-13.083,6.77-13.083,20.314,0,14.462,12.457,13.981,13.083,23.027-.8,10.047-13.083,6.77-13.083,20.314,0,14.464,12.457,13.982,13.083,23.029-.8,10.045-13.083,6.769-13.083,20.312" fill="#fff"/>
          <path id="Trazado_720902" data-name="Trazado 720902" d="M92.571,222.139c0,14.837,13.113,13.943,13.113,23.744v23.045l13.4,6.072V245.883c0-9.8,13.113-8.907,13.113-23.744,0-13.543-12.279-10.267-13.083-20.312.626-9.047,13.083-8.565,13.083-23.029,0-13.544-12.279-10.267-13.083-20.314.626-9.046,13.083-8.565,13.083-23.027,0-13.544-12.279-10.268-13.083-20.314.626-9.047,13.083-8.565,13.083-23.028,0-13.756-12.667-10.159-13.113-20.792V22.286l-1.568-1.859V.667l-10.259,3V20l-1.568,2.291V71.323c-.446,10.633-13.113,7.036-13.113,20.792,0,14.463,12.457,13.981,13.083,23.028-.8,10.046-13.083,6.77-13.083,20.314,0,14.462,12.457,13.981,13.083,23.027-.8,10.047-13.083,6.77-13.083,20.314,0,14.464,12.457,13.982,13.083,23.029C104.85,211.872,92.571,208.6,92.571,222.139Z" fill="none" stroke="#000" stroke-miterlimit="10" stroke-width="1"/>
          <path id="Trazado_720903" data-name="Trazado 720903" d="M111.617,281.315v-39.2s9.28-7.23,9.5-14.982" fill="none" stroke="#4cebff" stroke-miterlimit="10" stroke-width="2.5"/>
          <path id="Trazado_720904" data-name="Trazado 720904" d="M116.246,277.8l-4.629,1.967-4.629-1.967,4.629,10.973Z" fill="#4cebff"/>
          <line id="Línea_3060" data-name="Línea 3060" x1="17.585" transform="translate(40.914 74.044)" fill="none" stroke="#000" stroke-miterlimit="10" stroke-width="0.75"/>
          <path id="Trazado_720905" data-name="Trazado 720905" d="M43.021,71.266l-1.18,2.777,1.18,2.778-6.584-2.778Z"/>
          <line id="Línea_3061" data-name="Línea 3061" x1="17.585" transform="translate(172.988 193.895)" fill="none" stroke="#000" stroke-miterlimit="10" stroke-width="0.75"/>
          <path id="Trazado_720906" data-name="Trazado 720906" d="M175.1,191.117l-1.18,2.777,1.18,2.778-6.584-2.778Z"/>
          <line id="Línea_3062" data-name="Línea 3062" y1="46.428" transform="translate(35.443 362.572)" fill="none" stroke="#00bcd4" stroke-miterlimit="10" stroke-width="1"/>
          <path id="Trazado_720907" data-name="Trazado 720907" d="M39.146,365.381l-3.7-1.573-3.7,1.573,3.7-8.778Z" fill="#00bcd4"/>
          <line id="Línea_3063" data-name="Línea 3063" y2="46.428" transform="translate(75.157 356.603)" fill="none" stroke="#00bcd4" stroke-miterlimit="10" stroke-width="1"/>
          <path id="Trazado_720908" data-name="Trazado 720908" d="M71.454,400.222l3.7,1.573,3.7-1.573L75.157,409Z" fill="#00bcd4"/>
          <line id="Línea_3064" data-name="Línea 3064" y1="2.5" transform="translate(227.766 400.211)" fill="none" stroke="#ff9d00" stroke-miterlimit="10" stroke-width="1"/>
          <line id="Línea_3065" data-name="Línea 3065" y1="71.842" transform="translate(227.766 325.312)" fill="none" stroke="#ff9d00" stroke-miterlimit="10" stroke-width="1" stroke-dasharray="5.095 3.057"/>
          <line id="Línea_3066" data-name="Línea 3066" y1="2.5" transform="translate(227.766 321.284)" fill="none" stroke="#ff9d00" stroke-miterlimit="10" stroke-width="1"/>
          <path id="Trazado_720909" data-name="Trazado 720909" d="M231.469,324.092l-3.7-1.573-3.7,1.573,3.7-8.778Z" fill="#ff9d00"/>
          <line id="Línea_3067" data-name="Línea 3067" x2="17.585" transform="translate(57.456 111.609)" fill="none" stroke="#000" stroke-miterlimit="10" stroke-width="0.75"/>
          <path id="Trazado_720910" data-name="Trazado 720910" d="M72.934,114.386l1.18-2.777-1.18-2.778,6.584,2.778Z"/>
          <line id="Línea_3068" data-name="Línea 3068" x2="55.447" y2="16.765" transform="translate(27.519 269.135)" fill="none" stroke="#000" stroke-miterlimit="10" stroke-width="0.75"/>
          <path id="Trazado_720911" data-name="Trazado 720911" d="M80.146,287.948l1.933-2.317-.325-3,5.5,4.564Z"/>
          <line id="Línea_3069" data-name="Línea 3069" x2="80.794" y2="37.104" transform="translate(0.156 339.356)" fill="none" stroke="#000" stroke-miterlimit="10" stroke-width="0.75"/>
          <path id="Trazado_720912" data-name="Trazado 720912" d="M77.877,378.1l2.231-2.032.087-3.016,4.824,5.272Z"/>
          <path id="Trazado_720913" data-name="Trazado 720913" d="M115.382,510.814l-6.006,5.84.006-5.84c0-6.906-9.186-16.678-24.57-26.139a13.981,13.981,0,0,1-6.7-11.993v-5.913a8.039,8.039,0,0,0-2.371-5.721l-9.262-9.262a14,14,0,0,1-4.126-9.963V342.516h6v99.307a8.036,8.036,0,0,0,2.37,5.72l9.261,9.263a14,14,0,0,1,4.127,9.963v5.913a8.022,8.022,0,0,0,3.839,6.882c12.513,7.694,27.429,19.362,27.429,31.25" fill="#fff"/>
          <path id="Trazado_720914" data-name="Trazado 720914" d="M115.382,510.814l-6.006,5.84.006-5.84c0-6.906-9.186-16.678-24.57-26.139a13.981,13.981,0,0,1-6.7-11.993v-5.913a8.039,8.039,0,0,0-2.371-5.721l-9.262-9.262a14,14,0,0,1-4.126-9.963V342.516h6v99.307a8.036,8.036,0,0,0,2.37,5.72l9.261,9.263a14,14,0,0,1,4.127,9.963v5.913a8.022,8.022,0,0,0,3.839,6.882C100.466,487.258,115.382,498.926,115.382,510.814Z" fill="none" stroke="#000" stroke-miterlimit="10" stroke-width="1"/>
          <path id="Trazado_720915" data-name="Trazado 720915" d="M111.831,289.7a.255.255,0,0,0-.428,0c-.142.253-3.463,6.226-3.463,7.964a3.677,3.677,0,1,0,7.354,0c0-1.738-3.322-7.711-3.463-7.964" fill="#4cebff"/>
          <g id="Grupo_1008596" data-name="Grupo 1008596" opacity="0.5">
            <g id="Grupo_1008595" data-name="Grupo 1008595">
              <g id="Grupo_1008594" data-name="Grupo 1008594" clip-path="url(#clip-path-4)">
                <path id="Trazado_720916" data-name="Trazado 720916" d="M111.617,299.868a2.206,2.206,0,0,1-2.206-2.206.245.245,0,0,1,.49,0,1.716,1.716,0,0,0,1.716,1.716.245.245,0,0,1,0,.49" fill="#fff"/>
              </g>
            </g>
          </g>
          <path id="Trazado_720917" data-name="Trazado 720917" d="M111.831,303.673a.255.255,0,0,0-.428,0c-.142.253-3.463,6.226-3.463,7.964a3.677,3.677,0,1,0,7.354,0c0-1.738-3.322-7.711-3.463-7.964" fill="#4cebff"/>
          <g id="Grupo_1008599" data-name="Grupo 1008599" opacity="0.5">
            <g id="Grupo_1008598" data-name="Grupo 1008598">
              <g id="Grupo_1008597" data-name="Grupo 1008597" clip-path="url(#clip-path-5)">
                <path id="Trazado_720918" data-name="Trazado 720918" d="M111.617,313.843a2.206,2.206,0,0,1-2.206-2.206.245.245,0,0,1,.49,0,1.716,1.716,0,0,0,1.716,1.716.245.245,0,1,1,0,.49" fill="#fff"/>
              </g>
            </g>
          </g>
          <path id="Trazado_720919" data-name="Trazado 720919" d="M111.831,540.58a.255.255,0,0,0-.428,0c-.142.253-3.463,6.226-3.463,7.964a3.677,3.677,0,1,0,7.354,0c0-1.738-3.322-7.711-3.463-7.964" fill="#4cebff"/>
          <g id="Grupo_1008602" data-name="Grupo 1008602" opacity="0.5">
            <g id="Grupo_1008601" data-name="Grupo 1008601">
              <g id="Grupo_1008600" data-name="Grupo 1008600" clip-path="url(#clip-path-6)">
                <path id="Trazado_720920" data-name="Trazado 720920" d="M111.617,550.75a2.206,2.206,0,0,1-2.206-2.206.245.245,0,0,1,.49,0,1.716,1.716,0,0,0,1.716,1.716.245.245,0,1,1,0,.49" fill="#fff"/>
              </g>
            </g>
          </g>
          <path id="Trazado_720921" data-name="Trazado 720921" d="M111.831,525.039a.255.255,0,0,0-.428,0c-.142.253-3.463,6.226-3.463,7.964a3.677,3.677,0,1,0,7.354,0c0-1.738-3.322-7.711-3.463-7.964" fill="#4cebff"/>
          <g id="Grupo_1008605" data-name="Grupo 1008605" opacity="0.5">
            <g id="Grupo_1008604" data-name="Grupo 1008604">
              <g id="Grupo_1008603" data-name="Grupo 1008603" clip-path="url(#clip-path-7)">
                <path id="Trazado_720922" data-name="Trazado 720922" d="M111.617,535.209A2.206,2.206,0,0,1,109.411,533a.245.245,0,0,1,.49,0,1.716,1.716,0,0,0,1.716,1.716.245.245,0,1,1,0,.49" fill="#fff"/>
              </g>
            </g>
          </g>
          <path id="Trazado_720923" data-name="Trazado 720923" d="M111.831,554.555a.255.255,0,0,0-.428,0c-.142.253-3.463,6.226-3.463,7.964a3.677,3.677,0,1,0,7.354,0c0-1.738-3.322-7.711-3.463-7.964" fill="#4cebff"/>
          <g id="Grupo_1008608" data-name="Grupo 1008608" opacity="0.5">
            <g id="Grupo_1008607" data-name="Grupo 1008607">
              <g id="Grupo_1008606" data-name="Grupo 1008606" clip-path="url(#clip-path-8)">
                <path id="Trazado_720924" data-name="Trazado 720924" d="M111.617,564.725a2.206,2.206,0,0,1-2.206-2.206.245.245,0,0,1,.49,0,1.716,1.716,0,0,0,1.716,1.716.245.245,0,1,1,0,.49" fill="#fff"/>
              </g>
            </g>
          </g>
          <path id="Trazado_720925" data-name="Trazado 720925" d="M137.008,317.174v97.011a10.425,10.425,0,0,1-10.2,10.615H97.953a10.425,10.425,0,0,1-10.2-10.615V317.174H86.749v97.011a11.453,11.453,0,0,0,11.2,11.662H126.81a11.453,11.453,0,0,0,11.2-11.662V317.174Z" fill="#fff"/>
          <rect id="Rectángulo_351314" data-name="Rectángulo 351314" width="1.006" height="34.509" transform="translate(137.008 282.665)"/>
          <rect id="Rectángulo_351315" data-name="Rectángulo 351315" width="1.006" height="34.509" transform="translate(86.749 282.665)"/>
          <line id="Línea_3070" data-name="Línea 3070" y1="2.499" transform="translate(227.766 303.638)" fill="none" stroke="#ff9d00" stroke-miterlimit="10" stroke-width="1"/>
          <path id="Trazado_720926" data-name="Trazado 720926" d="M227.766,300.605V295.46c0-24.2-27.28-34.249-27.28-34.249L166.4,250.373" fill="none" stroke="#ff9d00" stroke-miterlimit="10" stroke-width="1" stroke-dasharray="5.051 3.031"/>
          <line id="Línea_3071" data-name="Línea 3071" x1="2.383" y1="0.758" transform="translate(162.573 249.157)" fill="none" stroke="#ff9d00" stroke-miterlimit="10" stroke-width="1"/>
          <path id="Trazado_720927" data-name="Trazado 720927" d="M166.372,246.479l-2.621,3.052.377,4.006-7.244-6.189Z" fill="#ff9d00"/>
          <line id="Línea_3072" data-name="Línea 3072" y1="2.5" transform="translate(150.474 504.885)" fill="none" stroke="#ff9d00" stroke-miterlimit="10" stroke-width="1"/>
          <path id="Trazado_720928" data-name="Trazado 720928" d="M150.474,501.75V486.02a16.517,16.517,0,0,1,12.719-16.075l2.294-.716" fill="none" stroke="#ff9d00" stroke-miterlimit="10" stroke-width="1" stroke-dasharray="5.226 3.136"/>
          <line id="Línea_3073" data-name="Línea 3073" y1="0.744" x2="2.387" transform="translate(166.984 468.019)" fill="none" stroke="#ff9d00" stroke-miterlimit="10" stroke-width="1"/>
          <path id="Trazado_720929" data-name="Trazado 720929" d="M167.791,472.39l.4-4-2.6-3.067,9.483.924Z" fill="#ff9d00"/>
          <path id="Trazado_720930" data-name="Trazado 720930" d="M187.836,463.484q1.231-.3,2.428-.6" fill="none" stroke="#ff9d00" stroke-miterlimit="10" stroke-width="1"/>
          <path id="Trazado_720931" data-name="Trazado 720931" d="M193.2,462.16c20.027-5,31.971-9.35,34.188-36.179" fill="none" stroke="#ff9d00" stroke-miterlimit="10" stroke-width="1" stroke-dasharray="5.044 3.026"/>
          <path id="Trazado_720932" data-name="Trazado 720932" d="M227.5,424.472q.083-1.218.138-2.5" fill="none" stroke="#ff9d00" stroke-miterlimit="10" stroke-width="1"/>
          <path id="Trazado_720933" data-name="Trazado 720933" d="M231.25,424.874l-3.663-1.665-3.741,1.481,3.92-8.684Z" fill="#ff9d00"/>
          <path id="Trazado_720934" data-name="Trazado 720934" d="M35.443,349.746V337.032a19.857,19.857,0,1,1,39.714,0v6.744" fill="none" stroke="#00bcd4" stroke-miterlimit="10" stroke-width="1"/>
          <path id="Trazado_720935" data-name="Trazado 720935" d="M71.454,340.967l3.7,1.573,3.7-1.573-3.7,8.778Z" fill="#00bcd4"/>
          <path id="Trazado_720936" data-name="Trazado 720936" d="M58.215,453.143s-20.049-1.46-22.523-29.9" fill="none" stroke="#00bcd4" stroke-miterlimit="10" stroke-width="1"/>
          <path id="Trazado_720937" data-name="Trazado 720937" d="M39.611,425.841l-3.782-1.372-3.614,1.769,3.228-8.964Z" fill="#00bcd4"/>
          <path id="Trazado_720938" data-name="Trazado 720938" d="M75.157,415.038V436.03a18.088,18.088,0,0,0,5.214,12.706L94.2,462.749a18.085,18.085,0,0,1,5.1,10.716" fill="none" stroke="#00bcd4" stroke-miterlimit="10" stroke-width="1"/>
          <path id="Trazado_720939" data-name="Trazado 720939" d="M95.394,470.8l3.759,1.436,3.642-1.709-3.377,8.909Z" fill="#00bcd4"/>
          <path id="Trazado_720940" data-name="Trazado 720940" d="M103.654,481.118l11.774,11.345a25.121,25.121,0,0,1,7.563,15.556" fill="none" stroke="#00bcd4" stroke-miterlimit="10" stroke-width="1"/>
          <path id="Trazado_720941" data-name="Trazado 720941" d="M119.079,505.36l3.761,1.428,3.64-1.716-3.36,8.916Z" fill="#00bcd4"/>
          <line id="Línea_3074" data-name="Línea 3074" x1="8.008" y2="3.395" transform="translate(91.41 323.584)" fill="none" stroke="#fff" stroke-miterlimit="10" stroke-width="1.5"/>
          <path id="Trazado_720942" data-name="Trazado 720942" d="M92.265,323.6l0,3.018,2.17,2.1-7.145.013Z" fill="#fff"/>
          <line id="Línea_3075" data-name="Línea 3075" x1="8.008" y2="3.395" transform="translate(91.41 339.755)" fill="none" stroke="#fff" stroke-miterlimit="10" stroke-width="1.5"/>
          <path id="Trazado_720943" data-name="Trazado 720943" d="M92.265,339.771l0,3.018,2.17,2.1-7.145.013Z" fill="#fff"/>
          <line id="Línea_3076" data-name="Línea 3076" x1="8.008" y2="3.395" transform="translate(91.41 355.926)" fill="none" stroke="#fff" stroke-miterlimit="10" stroke-width="1.5"/>
          <path id="Trazado_720944" data-name="Trazado 720944" d="M92.265,355.942l0,3.018,2.17,2.1-7.145.013Z" fill="#fff"/>
          <line id="Línea_3077" data-name="Línea 3077" x1="8.008" y2="3.395" transform="translate(91.41 372.096)" fill="none" stroke="#fff" stroke-miterlimit="10" stroke-width="1.5"/>
          <path id="Trazado_720945" data-name="Trazado 720945" d="M92.265,372.112l0,3.018,2.17,2.1-7.145.013Z" fill="#fff"/>
          <line id="Línea_3078" data-name="Línea 3078" x1="8.008" y2="3.395" transform="translate(91.41 388.267)" fill="none" stroke="#fff" stroke-miterlimit="10" stroke-width="1.5"/>
          <path id="Trazado_720946" data-name="Trazado 720946" d="M92.265,388.283l0,3.018,2.17,2.1-7.145.013Z" fill="#fff"/>
          <line id="Línea_3079" data-name="Línea 3079" x1="8.008" y2="3.395" transform="translate(91.41 404.438)" fill="none" stroke="#fff" stroke-miterlimit="10" stroke-width="1.5"/>
          <path id="Trazado_720947" data-name="Trazado 720947" d="M92.265,404.454l0,3.018,2.17,2.1-7.145.013Z" fill="#fff"/>
          <line id="Línea_3080" data-name="Línea 3080" x1="5.375" y2="6.839" transform="translate(95.676 413.693)" fill="none" stroke="#fff" stroke-miterlimit="10" stroke-width="1.5"/>
          <path id="Trazado_720948" data-name="Trazado 720948" d="M94.794,417.159l1.454,2.644,2.913.789-6.252,3.459Z" fill="#fff"/>
          <line id="Línea_3081" data-name="Línea 3081" x2="8.008" y2="3.395" transform="translate(125.014 323.584)" fill="none" stroke="#fff" stroke-miterlimit="10" stroke-width="1.5"/>
          <path id="Trazado_720949" data-name="Trazado 720949" d="M130,328.714l2.17-2.1,0-3.018,4.978,5.127Z" fill="#fff"/>
          <line id="Línea_3082" data-name="Línea 3082" x2="8.008" y2="3.395" transform="translate(125.014 339.755)" fill="none" stroke="#fff" stroke-miterlimit="10" stroke-width="1.5"/>
          <path id="Trazado_720950" data-name="Trazado 720950" d="M130,344.885l2.17-2.1,0-3.018,4.978,5.127Z" fill="#fff"/>
          <line id="Línea_3083" data-name="Línea 3083" x2="8.008" y2="3.395" transform="translate(125.014 355.926)" fill="none" stroke="#fff" stroke-miterlimit="10" stroke-width="1.5"/>
          <path id="Trazado_720951" data-name="Trazado 720951" d="M130,361.056l2.17-2.1,0-3.018,4.978,5.127Z" fill="#fff"/>
          <line id="Línea_3084" data-name="Línea 3084" x2="8.008" y2="3.395" transform="translate(125.014 372.096)" fill="none" stroke="#fff" stroke-miterlimit="10" stroke-width="1.5"/>
          <path id="Trazado_720952" data-name="Trazado 720952" d="M130,377.226l2.17-2.1,0-3.018,4.978,5.127Z" fill="#fff"/>
          <line id="Línea_3085" data-name="Línea 3085" x2="8.008" y2="3.395" transform="translate(125.014 388.267)" fill="none" stroke="#fff" stroke-miterlimit="10" stroke-width="1.5"/>
          <path id="Trazado_720953" data-name="Trazado 720953" d="M130,393.4l2.17-2.1,0-3.018,4.978,5.127Z" fill="#fff"/>
          <line id="Línea_3086" data-name="Línea 3086" x2="8.008" y2="3.395" transform="translate(125.014 404.438)" fill="none" stroke="#fff" stroke-miterlimit="10" stroke-width="1.5"/>
          <path id="Trazado_720954" data-name="Trazado 720954" d="M130,409.568l2.17-2.1,0-3.018,4.978,5.127Z" fill="#fff"/>
          <line id="Línea_3087" data-name="Línea 3087" x2="5.375" y2="6.839" transform="translate(123.381 413.693)" fill="none" stroke="#fff" stroke-miterlimit="10" stroke-width="1.5"/>
          <path id="Trazado_720955" data-name="Trazado 720955" d="M125.271,420.592l2.913-.789,1.454-2.644,1.885,6.893Z" fill="#fff"/>
          <line id="Línea_3088" data-name="Línea 3088" x1="0.325" y2="8.692" transform="translate(110.268 411.003)" fill="none" stroke="#fff" stroke-miterlimit="10" stroke-width="1.5"/>
          <path id="Trazado_720956" data-name="Trazado 720956" d="M107.572,417.487l2.731,1.283,2.82-1.076L110.1,424.17Z" fill="#fff"/>
          <line id="Línea_3089" data-name="Línea 3089" x2="80.794" y2="37.104" transform="translate(27.519 297.053)" fill="none" stroke="#000" stroke-miterlimit="10" stroke-width="0.75"/>
          <path id="Trazado_720957" data-name="Trazado 720957" d="M105.24,335.8l2.231-2.031.087-3.017,4.824,5.272Z"/>
        </g>
      </g>
    </g>
    <path id="Trazado_721492" data-name="Trazado 721492" d="M20.475,8.563a6.172,6.172,0,0,1-2.458-1.193,2.279,2.279,0,0,1-.769-1.747,2.408,2.408,0,0,1,.94-1.945,3.736,3.736,0,0,1,2.444-.769,4.078,4.078,0,0,1,1.829.4A3.007,3.007,0,0,1,23.7,4.4a2.8,2.8,0,0,1,.441,1.524H22.826A1.82,1.82,0,0,0,22.252,4.5a2.335,2.335,0,0,0-1.62-.518,2.391,2.391,0,0,0-1.514.428A1.428,1.428,0,0,0,18.574,5.6,1.285,1.285,0,0,0,19.09,6.63a5.062,5.062,0,0,0,1.757.77,8.152,8.152,0,0,1,1.941.77,2.946,2.946,0,0,1,1.039.981,2.5,2.5,0,0,1,.338,1.319,2.326,2.326,0,0,1-.943,1.938,4.022,4.022,0,0,1-2.522.728,4.678,4.678,0,0,1-1.914-.393,3.221,3.221,0,0,1-1.371-1.077,2.627,2.627,0,0,1-.482-1.552h1.319a1.714,1.714,0,0,0,.667,1.425,2.806,2.806,0,0,0,1.781.523,2.58,2.58,0,0,0,1.593-.424,1.377,1.377,0,0,0,.554-1.155,1.351,1.351,0,0,0-.513-1.131A5.911,5.911,0,0,0,20.475,8.563ZM30.216,13a2.657,2.657,0,0,1-.178-.779,2.822,2.822,0,0,1-2.105.916,2.611,2.611,0,0,1-1.794-.619,2,2,0,0,1-.7-1.569,2.091,2.091,0,0,1,.878-1.794,4.142,4.142,0,0,1,2.471-.639h1.23V7.935a1.42,1.42,0,0,0-.4-1.056,1.593,1.593,0,0,0-1.169-.393,1.844,1.844,0,0,0-1.135.342,1.007,1.007,0,0,0-.458.827H25.588a1.745,1.745,0,0,1,.393-1.07,2.683,2.683,0,0,1,1.066-.817,3.588,3.588,0,0,1,1.48-.3,2.924,2.924,0,0,1,2,.639,2.306,2.306,0,0,1,.752,1.76v3.4a4.162,4.162,0,0,0,.26,1.62V13Zm-2.1-.964a2.223,2.223,0,0,0,1.128-.308,1.861,1.861,0,0,0,.772-.8V9.411h-.991q-2.324,0-2.324,1.36a1.151,1.151,0,0,0,.4.93A1.524,1.524,0,0,0,28.117,12.036ZM34.639,13H33.374V2.5h1.265Zm3.4,0H36.771V5.6h1.265ZM36.669,3.642a.755.755,0,0,1,.188-.52.706.706,0,0,1,.557-.212.717.717,0,0,1,.561.212.747.747,0,0,1,.191.52.722.722,0,0,1-.191.513.73.73,0,0,1-.561.205.718.718,0,0,1-.557-.205A.73.73,0,0,1,36.669,3.642Zm3.083,5.6A4.333,4.333,0,0,1,40.559,6.5a2.745,2.745,0,0,1,4.17-.147V2.5h1.265V13H44.831l-.062-.793a2.575,2.575,0,0,1-2.112.93,2.526,2.526,0,0,1-2.1-1.053,4.382,4.382,0,0,1-.81-2.748Zm1.265.144a3.281,3.281,0,0,0,.52,1.969,1.68,1.68,0,0,0,1.436.711,1.845,1.845,0,0,0,1.757-1.08v-3.4A1.859,1.859,0,0,0,42.985,6.54a1.687,1.687,0,0,0-1.449.718A3.612,3.612,0,0,0,41.017,9.384ZM52.521,13a2.657,2.657,0,0,1-.178-.779,2.822,2.822,0,0,1-2.105.916,2.611,2.611,0,0,1-1.794-.619,2,2,0,0,1-.7-1.569,2.091,2.091,0,0,1,.878-1.794,4.142,4.142,0,0,1,2.471-.639h1.23V7.935a1.42,1.42,0,0,0-.4-1.056,1.593,1.593,0,0,0-1.169-.393,1.844,1.844,0,0,0-1.135.342,1.007,1.007,0,0,0-.458.827H47.894a1.745,1.745,0,0,1,.393-1.07,2.683,2.683,0,0,1,1.066-.817,3.588,3.588,0,0,1,1.48-.3,2.924,2.924,0,0,1,2,.639,2.306,2.306,0,0,1,.752,1.76v3.4a4.162,4.162,0,0,0,.26,1.62V13Zm-2.1-.964a2.223,2.223,0,0,0,1.128-.308,1.861,1.861,0,0,0,.772-.8V9.411h-.991q-2.324,0-2.324,1.36a1.151,1.151,0,0,0,.4.93A1.524,1.524,0,0,0,50.423,12.036ZM13.553,30a2.657,2.657,0,0,1-.178-.779,2.822,2.822,0,0,1-2.105.916,2.611,2.611,0,0,1-1.794-.619,2,2,0,0,1-.7-1.569,2.091,2.091,0,0,1,.878-1.794,4.142,4.142,0,0,1,2.471-.639h1.23v-.581a1.42,1.42,0,0,0-.4-1.056,1.593,1.593,0,0,0-1.169-.393,1.844,1.844,0,0,0-1.135.342,1.007,1.007,0,0,0-.458.827H8.925a1.745,1.745,0,0,1,.393-1.07,2.683,2.683,0,0,1,1.066-.817,3.588,3.588,0,0,1,1.48-.3,2.924,2.924,0,0,1,2,.639,2.306,2.306,0,0,1,.752,1.76v3.4a4.162,4.162,0,0,0,.26,1.62V30Zm-2.1-.964a2.223,2.223,0,0,0,1.128-.308,1.861,1.861,0,0,0,.772-.8V26.411h-.991q-2.324,0-2.324,1.36a1.151,1.151,0,0,0,.4.93A1.524,1.524,0,0,0,11.455,29.036Zm4.847-2.8a4.347,4.347,0,0,1,.8-2.751,2.558,2.558,0,0,1,2.119-1.022,2.544,2.544,0,0,1,2.112.957l.062-.82h1.155v7.219a3.009,3.009,0,0,1-.851,2.263,3.141,3.141,0,0,1-2.287.827,3.8,3.8,0,0,1-1.565-.342,2.7,2.7,0,0,1-1.169-.937l.656-.759a2.473,2.473,0,0,0,1.989,1,1.938,1.938,0,0,0,1.439-.52,1.986,1.986,0,0,0,.516-1.463v-.636a2.6,2.6,0,0,1-2.071.875,2.527,2.527,0,0,1-2.1-1.046A4.571,4.571,0,0,1,16.3,26.24Zm1.271.144a3.316,3.316,0,0,0,.513,1.965,1.666,1.666,0,0,0,1.436.714,1.852,1.852,0,0,0,1.757-1.087V24.6a1.874,1.874,0,0,0-1.743-1.06,1.681,1.681,0,0,0-1.442.718A3.612,3.612,0,0,0,17.573,26.384Zm11.45,2.885a2.686,2.686,0,0,1-2.167.868,2.3,2.3,0,0,1-1.8-.687,2.974,2.974,0,0,1-.625-2.034V22.6h1.265v4.778q0,1.682,1.367,1.682a1.893,1.893,0,0,0,1.928-1.08V22.6h1.265V30h-1.2ZM36.741,30a2.657,2.657,0,0,1-.178-.779,2.822,2.822,0,0,1-2.105.916,2.611,2.611,0,0,1-1.794-.619,2,2,0,0,1-.7-1.569,2.091,2.091,0,0,1,.878-1.794,4.142,4.142,0,0,1,2.471-.639h1.23v-.581a1.42,1.42,0,0,0-.4-1.056,1.593,1.593,0,0,0-1.169-.393,1.844,1.844,0,0,0-1.135.342,1.007,1.007,0,0,0-.458.827H32.113a1.745,1.745,0,0,1,.393-1.07,2.683,2.683,0,0,1,1.066-.817,3.588,3.588,0,0,1,1.48-.3,2.924,2.924,0,0,1,2,.639,2.306,2.306,0,0,1,.752,1.76v3.4a4.162,4.162,0,0,0,.26,1.62V30Zm-2.1-.964a2.223,2.223,0,0,0,1.128-.308,1.861,1.861,0,0,0,.772-.8V26.411h-.991q-2.324,0-2.324,1.36a1.151,1.151,0,0,0,.4.93A1.524,1.524,0,0,0,34.642,29.036ZM43.877,30V23.581H42.708V22.6h1.169v-.759a2.519,2.519,0,0,1,.636-1.839,2.4,2.4,0,0,1,1.8-.649,3.339,3.339,0,0,1,.868.115l-.068,1.019a3.632,3.632,0,0,0-.684-.062,1.234,1.234,0,0,0-.95.36,1.46,1.46,0,0,0-.335,1.032V22.6h1.579v.978H45.142V30Zm7.813-6.262a3.79,3.79,0,0,0-.622-.048,1.667,1.667,0,0,0-1.688,1.06V30H48.116V22.6h1.23l.021.854a1.969,1.969,0,0,1,1.764-.991,1.292,1.292,0,0,1,.561.1ZM54.227,30H52.956V22.6h1.271Zm.014-10.493h1.531l-1.832,2.01-1.019,0ZM60.878,30a2.657,2.657,0,0,1-.178-.779,2.822,2.822,0,0,1-2.105.916,2.611,2.611,0,0,1-1.794-.619,2,2,0,0,1-.7-1.569,2.091,2.091,0,0,1,.878-1.794,4.142,4.142,0,0,1,2.471-.639h1.23v-.581a1.42,1.42,0,0,0-.4-1.056,1.593,1.593,0,0,0-1.169-.393,1.844,1.844,0,0,0-1.135.342,1.007,1.007,0,0,0-.458.827H56.25a1.745,1.745,0,0,1,.393-1.07,2.683,2.683,0,0,1,1.066-.817,3.588,3.588,0,0,1,1.48-.3,2.924,2.924,0,0,1,2,.639,2.306,2.306,0,0,1,.752,1.76v3.4a4.162,4.162,0,0,0,.26,1.62V30Zm-2.1-.964a2.223,2.223,0,0,0,1.128-.308,1.861,1.861,0,0,0,.772-.8V26.411h-.991q-2.324,0-2.324,1.36a1.151,1.151,0,0,0,.4.93A1.524,1.524,0,0,0,58.78,29.036Z" transform="translate(516 -4467)" fill="#12263f"/>
    <path id="Trazado_721493" data-name="Trazado 721493" d="M18.359,8.4H14.045v3.527h5.011V13H12.733V3.047h6.255V4.12H14.045V7.326h4.313Zm3.329-2.8.041.93a2.7,2.7,0,0,1,2.215-1.066q2.345,0,2.365,2.646V13H25.044V8.105a1.7,1.7,0,0,0-.366-1.183,1.466,1.466,0,0,0-1.118-.383,1.825,1.825,0,0,0-1.08.328,2.228,2.228,0,0,0-.725.861V13H20.492V5.6Zm8.244-1.791V5.6h1.381v.978H29.932v4.593a1.027,1.027,0,0,0,.185.667.777.777,0,0,0,.629.222,3.062,3.062,0,0,0,.6-.082V13a3.688,3.688,0,0,1-.971.136,1.575,1.575,0,0,1-1.278-.513,2.2,2.2,0,0,1-.431-1.456V6.581H27.321V5.6h1.347V3.813Zm6.433,2.926a3.79,3.79,0,0,0-.622-.048,1.667,1.667,0,0,0-1.688,1.06V13H32.79V5.6h1.23l.021.854A1.969,1.969,0,0,1,35.8,5.467a1.292,1.292,0,0,1,.561.1ZM41.82,13a2.657,2.657,0,0,1-.178-.779,2.822,2.822,0,0,1-2.105.916,2.611,2.611,0,0,1-1.794-.619,2,2,0,0,1-.7-1.569,2.091,2.091,0,0,1,.878-1.794,4.142,4.142,0,0,1,2.471-.639h1.23V7.935a1.42,1.42,0,0,0-.4-1.056,1.593,1.593,0,0,0-1.169-.393,1.844,1.844,0,0,0-1.135.342,1.007,1.007,0,0,0-.458.827H37.192a1.745,1.745,0,0,1,.393-1.07,2.683,2.683,0,0,1,1.066-.817,3.588,3.588,0,0,1,1.48-.3,2.924,2.924,0,0,1,2,.639,2.306,2.306,0,0,1,.752,1.76v3.4a4.162,4.162,0,0,0,.26,1.62V13Zm-2.1-.964a2.223,2.223,0,0,0,1.128-.308,1.861,1.861,0,0,0,.772-.8V9.411H40.63q-2.324,0-2.324,1.36a1.151,1.151,0,0,0,.4.93A1.524,1.524,0,0,0,39.721,12.036Zm4.84-2.8A4.333,4.333,0,0,1,45.368,6.5a2.745,2.745,0,0,1,4.17-.147V2.5H50.8V13H49.64l-.062-.793a2.575,2.575,0,0,1-2.112.93,2.526,2.526,0,0,1-2.1-1.053,4.382,4.382,0,0,1-.81-2.748Zm1.265.144a3.281,3.281,0,0,0,.52,1.969,1.68,1.68,0,0,0,1.436.711,1.845,1.845,0,0,0,1.757-1.08v-3.4A1.859,1.859,0,0,0,47.794,6.54a1.687,1.687,0,0,0-1.449.718A3.612,3.612,0,0,0,45.826,9.384ZM57.331,13a2.657,2.657,0,0,1-.178-.779,2.822,2.822,0,0,1-2.105.916,2.611,2.611,0,0,1-1.794-.619,2,2,0,0,1-.7-1.569,2.091,2.091,0,0,1,.878-1.794A4.142,4.142,0,0,1,55.9,8.516h1.23V7.935a1.42,1.42,0,0,0-.4-1.056,1.593,1.593,0,0,0-1.169-.393,1.844,1.844,0,0,0-1.135.342,1.007,1.007,0,0,0-.458.827H52.7a1.745,1.745,0,0,1,.393-1.07,2.683,2.683,0,0,1,1.066-.817,3.588,3.588,0,0,1,1.48-.3,2.924,2.924,0,0,1,2,.639,2.306,2.306,0,0,1,.752,1.76v3.4a4.162,4.162,0,0,0,.26,1.62V13Zm-2.1-.964a2.223,2.223,0,0,0,1.128-.308,1.861,1.861,0,0,0,.772-.8V9.411h-.991q-2.324,0-2.324,1.36a1.151,1.151,0,0,0,.4.93A1.524,1.524,0,0,0,55.232,12.036ZM13.553,30a2.657,2.657,0,0,1-.178-.779,2.822,2.822,0,0,1-2.105.916,2.611,2.611,0,0,1-1.794-.619,2,2,0,0,1-.7-1.569,2.091,2.091,0,0,1,.878-1.794,4.142,4.142,0,0,1,2.471-.639h1.23v-.581a1.42,1.42,0,0,0-.4-1.056,1.593,1.593,0,0,0-1.169-.393,1.844,1.844,0,0,0-1.135.342,1.007,1.007,0,0,0-.458.827H8.925a1.745,1.745,0,0,1,.393-1.07,2.683,2.683,0,0,1,1.066-.817,3.588,3.588,0,0,1,1.48-.3,2.924,2.924,0,0,1,2,.639,2.306,2.306,0,0,1,.752,1.76v3.4a4.162,4.162,0,0,0,.26,1.62V30Zm-2.1-.964a2.223,2.223,0,0,0,1.128-.308,1.861,1.861,0,0,0,.772-.8V26.411h-.991q-2.324,0-2.324,1.36a1.151,1.151,0,0,0,.4.93A1.524,1.524,0,0,0,11.455,29.036Zm4.847-2.8a4.347,4.347,0,0,1,.8-2.751,2.558,2.558,0,0,1,2.119-1.022,2.544,2.544,0,0,1,2.112.957l.062-.82h1.155v7.219a3.009,3.009,0,0,1-.851,2.263,3.141,3.141,0,0,1-2.287.827,3.8,3.8,0,0,1-1.565-.342,2.7,2.7,0,0,1-1.169-.937l.656-.759a2.473,2.473,0,0,0,1.989,1,1.938,1.938,0,0,0,1.439-.52,1.986,1.986,0,0,0,.516-1.463v-.636a2.6,2.6,0,0,1-2.071.875,2.527,2.527,0,0,1-2.1-1.046A4.571,4.571,0,0,1,16.3,26.24Zm1.271.144a3.316,3.316,0,0,0,.513,1.965,1.666,1.666,0,0,0,1.436.714,1.852,1.852,0,0,0,1.757-1.087V24.6a1.874,1.874,0,0,0-1.743-1.06,1.681,1.681,0,0,0-1.442.718A3.612,3.612,0,0,0,17.573,26.384Zm11.45,2.885a2.686,2.686,0,0,1-2.167.868,2.3,2.3,0,0,1-1.8-.687,2.974,2.974,0,0,1-.625-2.034V22.6h1.265v4.778q0,1.682,1.367,1.682a1.893,1.893,0,0,0,1.928-1.08V22.6h1.265V30h-1.2ZM36.741,30a2.657,2.657,0,0,1-.178-.779,2.822,2.822,0,0,1-2.105.916,2.611,2.611,0,0,1-1.794-.619,2,2,0,0,1-.7-1.569,2.091,2.091,0,0,1,.878-1.794,4.142,4.142,0,0,1,2.471-.639h1.23v-.581a1.42,1.42,0,0,0-.4-1.056,1.593,1.593,0,0,0-1.169-.393,1.844,1.844,0,0,0-1.135.342,1.007,1.007,0,0,0-.458.827H32.113a1.745,1.745,0,0,1,.393-1.07,2.683,2.683,0,0,1,1.066-.817,3.588,3.588,0,0,1,1.48-.3,2.924,2.924,0,0,1,2,.639,2.306,2.306,0,0,1,.752,1.76v3.4a4.162,4.162,0,0,0,.26,1.62V30Zm-2.1-.964a2.223,2.223,0,0,0,1.128-.308,1.861,1.861,0,0,0,.772-.8V26.411h-.991q-2.324,0-2.324,1.36a1.151,1.151,0,0,0,.4.93A1.524,1.524,0,0,0,34.642,29.036ZM43.877,30V23.581H42.708V22.6h1.169v-.759a2.519,2.519,0,0,1,.636-1.839,2.4,2.4,0,0,1,1.8-.649,3.339,3.339,0,0,1,.868.115l-.068,1.019a3.632,3.632,0,0,0-.684-.062,1.234,1.234,0,0,0-.95.36,1.46,1.46,0,0,0-.335,1.032V22.6h1.579v.978H45.142V30Zm7.813-6.262a3.79,3.79,0,0,0-.622-.048,1.667,1.667,0,0,0-1.688,1.06V30H48.116V22.6h1.23l.021.854a1.969,1.969,0,0,1,1.764-.991,1.292,1.292,0,0,1,.561.1ZM54.227,30H52.956V22.6h1.271Zm.014-10.493h1.531l-1.832,2.01-1.019,0ZM60.878,30a2.657,2.657,0,0,1-.178-.779,2.822,2.822,0,0,1-2.105.916,2.611,2.611,0,0,1-1.794-.619,2,2,0,0,1-.7-1.569,2.091,2.091,0,0,1,.878-1.794,4.142,4.142,0,0,1,2.471-.639h1.23v-.581a1.42,1.42,0,0,0-.4-1.056,1.593,1.593,0,0,0-1.169-.393,1.844,1.844,0,0,0-1.135.342,1.007,1.007,0,0,0-.458.827H56.25a1.745,1.745,0,0,1,.393-1.07,2.683,2.683,0,0,1,1.066-.817,3.588,3.588,0,0,1,1.48-.3,2.924,2.924,0,0,1,2,.639,2.306,2.306,0,0,1,.752,1.76v3.4a4.162,4.162,0,0,0,.26,1.62V30Zm-2.1-.964a2.223,2.223,0,0,0,1.128-.308,1.861,1.861,0,0,0,.772-.8V26.411h-.991q-2.324,0-2.324,1.36a1.151,1.151,0,0,0,.4.93A1.524,1.524,0,0,0,58.78,29.036Z" transform="translate(744 -4347)" fill="#12263f"/>
    <path id="Trazado_721494" data-name="Trazado 721494" d="M14.086,10.389a1.052,1.052,0,0,0-.41-.892A5.38,5.38,0,0,0,12.2,8.84a10.467,10.467,0,0,1-1.688-.68,2.759,2.759,0,0,1-1.7-2.468,2.4,2.4,0,0,1,.455-1.439,2.965,2.965,0,0,1,1.306-.988,4.914,4.914,0,0,1,1.911-.355,4.473,4.473,0,0,1,1.9.386,3.026,3.026,0,0,1,1.3,1.09,2.853,2.853,0,0,1,.461,1.6H14.093a1.342,1.342,0,0,0-.431-1.063,1.77,1.77,0,0,0-1.21-.379,1.891,1.891,0,0,0-1.169.318,1,1,0,0,0-.417.837.96.96,0,0,0,.489.813,5.522,5.522,0,0,0,1.439.615,6.217,6.217,0,0,1,2.55,1.306,2.6,2.6,0,0,1,.8,1.941,2.4,2.4,0,0,1-.978,2.027,4.279,4.279,0,0,1-2.632.735,5.082,5.082,0,0,1-2.092-.42A3.31,3.31,0,0,1,9,11.564a2.95,2.95,0,0,1-.5-1.7h2.058q0,1.647,1.969,1.647a1.915,1.915,0,0,0,1.142-.3A.967.967,0,0,0,14.086,10.389Zm3.008-1.155a4.387,4.387,0,0,1,.424-1.962,3.1,3.1,0,0,1,1.22-1.333,3.56,3.56,0,0,1,1.849-.472,3.368,3.368,0,0,1,2.444.916,3.676,3.676,0,0,1,1.056,2.488l.014.506a3.866,3.866,0,0,1-.95,2.731,3.3,3.3,0,0,1-2.55,1.029,3.319,3.319,0,0,1-2.553-1.025,3.934,3.934,0,0,1-.954-2.789Zm1.976.14a2.765,2.765,0,0,0,.4,1.612,1.424,1.424,0,0,0,2.256.007,3.025,3.025,0,0,0,.4-1.763,2.737,2.737,0,0,0-.4-1.6,1.311,1.311,0,0,0-1.135-.568,1.29,1.29,0,0,0-1.121.565A3.076,3.076,0,0,0,19.07,9.374ZM27.4,13H25.42V2.5H27.4Zm4.4-2.413L33.172,5.6h2.064l-2.5,7.4H30.855l-2.5-7.4h2.064Zm7.622,2.55a3.631,3.631,0,0,1-2.649-1A3.548,3.548,0,0,1,35.75,9.479V9.288A4.468,4.468,0,0,1,36.18,7.3,3.161,3.161,0,0,1,37.4,5.942a3.425,3.425,0,0,1,1.8-.475,3.07,3.07,0,0,1,2.389.957,3.889,3.889,0,0,1,.872,2.714v.807h-4.71a1.835,1.835,0,0,0,.578,1.162,1.746,1.746,0,0,0,1.22.438,2.132,2.132,0,0,0,1.784-.827l.971,1.087a2.966,2.966,0,0,1-1.2.981A3.947,3.947,0,0,1,39.42,13.137ZM39.195,7.06a1.234,1.234,0,0,0-.954.4,2.062,2.062,0,0,0-.468,1.14h2.748V8.44a1.471,1.471,0,0,0-.355-1.02A1.274,1.274,0,0,0,39.195,7.06ZM45.4,5.6l.062.854a2.582,2.582,0,0,1,2.126-.991,2.146,2.146,0,0,1,1.75.69,3.221,3.221,0,0,1,.588,2.064V13H47.952V8.27a1.282,1.282,0,0,0-.273-.913,1.224,1.224,0,0,0-.909-.284,1.359,1.359,0,0,0-1.251.711V13H43.542V5.6ZM53.79,3.785V5.6h1.265V7.053H53.79v3.691a.881.881,0,0,0,.157.588.79.79,0,0,0,.6.178,3.15,3.15,0,0,0,.581-.048v1.5a4.067,4.067,0,0,1-1.2.178,1.886,1.886,0,0,1-2.119-2.1V7.053h-1.08V5.6h1.08V3.785Zm5.77,9.352a3.631,3.631,0,0,1-2.649-1,3.548,3.548,0,0,1-1.022-2.659V9.288A4.468,4.468,0,0,1,56.319,7.3a3.161,3.161,0,0,1,1.22-1.354,3.425,3.425,0,0,1,1.8-.475,3.07,3.07,0,0,1,2.389.957A3.889,3.889,0,0,1,62.6,9.138v.807h-4.71a1.835,1.835,0,0,0,.578,1.162,1.746,1.746,0,0,0,1.22.438,2.132,2.132,0,0,0,1.784-.827l.971,1.087a2.966,2.966,0,0,1-1.2.981A3.947,3.947,0,0,1,59.559,13.137ZM59.333,7.06a1.234,1.234,0,0,0-.954.4,2.062,2.062,0,0,0-.468,1.14H60.66V8.44A1.471,1.471,0,0,0,60.3,7.42,1.274,1.274,0,0,0,59.333,7.06Z" transform="translate(629 -3942)" fill="#12263f"/>
    <path id="Trazado_721495" data-name="Trazado 721495" d="M5.211,13V3.047h2.81a4.523,4.523,0,0,1,2.3.574,3.884,3.884,0,0,1,1.542,1.634,5.318,5.318,0,0,1,.55,2.434v.636a5.336,5.336,0,0,1-.543,2.468,3.823,3.823,0,0,1-1.552,1.627A4.811,4.811,0,0,1,7.966,13ZM6.523,4.12v7.807H7.9a3,3,0,0,0,2.362-.944,3.9,3.9,0,0,0,.844-2.689V7.712a3.963,3.963,0,0,0-.8-2.637A2.834,2.834,0,0,0,8.055,4.12Zm10.739,9.017a3.232,3.232,0,0,1-2.447-.988,3.666,3.666,0,0,1-.943-2.642V9.274a4.438,4.438,0,0,1,.42-1.965,3.28,3.28,0,0,1,1.176-1.354,2.956,2.956,0,0,1,1.637-.489,2.77,2.77,0,0,1,2.242.95,4.114,4.114,0,0,1,.8,2.721v.526H15.137a2.629,2.629,0,0,0,.639,1.767,2.009,2.009,0,0,0,1.555.673,2.2,2.2,0,0,0,1.135-.273,2.851,2.851,0,0,0,.813-.725l.772.6A3.106,3.106,0,0,1,17.263,13.137Zm-.157-6.631a1.687,1.687,0,0,0-1.285.557,2.708,2.708,0,0,0-.643,1.562h3.705v-.1a2.409,2.409,0,0,0-.52-1.494A1.588,1.588,0,0,0,17.105,6.506ZM21.3,9.24A4.333,4.333,0,0,1,22.109,6.5a2.745,2.745,0,0,1,4.17-.147V2.5h1.265V13H26.382l-.062-.793a2.575,2.575,0,0,1-2.112.93,2.526,2.526,0,0,1-2.1-1.053,4.382,4.382,0,0,1-.81-2.748Zm1.265.144a3.281,3.281,0,0,0,.52,1.969,1.68,1.68,0,0,0,1.436.711,1.845,1.845,0,0,0,1.757-1.08v-3.4A1.859,1.859,0,0,0,24.536,6.54a1.687,1.687,0,0,0-1.449.718A3.612,3.612,0,0,0,22.567,9.384ZM34.072,13a2.657,2.657,0,0,1-.178-.779,2.822,2.822,0,0,1-2.105.916,2.611,2.611,0,0,1-1.794-.619,2,2,0,0,1-.7-1.569,2.091,2.091,0,0,1,.878-1.794,4.142,4.142,0,0,1,2.471-.639h1.23V7.935a1.42,1.42,0,0,0-.4-1.056,1.593,1.593,0,0,0-1.169-.393,1.844,1.844,0,0,0-1.135.342,1.007,1.007,0,0,0-.458.827H29.444a1.745,1.745,0,0,1,.393-1.07A2.683,2.683,0,0,1,30.9,5.768a3.588,3.588,0,0,1,1.48-.3,2.924,2.924,0,0,1,2,.639,2.306,2.306,0,0,1,.752,1.76v3.4a4.162,4.162,0,0,0,.26,1.62V13Zm-2.1-.964a2.223,2.223,0,0,0,1.128-.308,1.861,1.861,0,0,0,.772-.8V9.411h-.991q-2.324,0-2.324,1.36a1.151,1.151,0,0,0,.4.93A1.524,1.524,0,0,0,31.974,12.036ZM38.5,13H37.23V2.5H38.5Zm5.182-3.76A4.333,4.333,0,0,1,44.483,6.5a2.745,2.745,0,0,1,4.17-.147V2.5h1.265V13H48.756l-.062-.793a2.575,2.575,0,0,1-2.112.93,2.526,2.526,0,0,1-2.1-1.053,4.382,4.382,0,0,1-.81-2.748Zm1.265.144a3.281,3.281,0,0,0,.52,1.969,1.68,1.68,0,0,0,1.436.711,1.845,1.845,0,0,0,1.757-1.08v-3.4A1.859,1.859,0,0,0,46.91,6.54a1.687,1.687,0,0,0-1.449.718A3.612,3.612,0,0,0,44.941,9.384Zm10.008,3.753a3.232,3.232,0,0,1-2.447-.988,3.666,3.666,0,0,1-.943-2.642V9.274a4.438,4.438,0,0,1,.42-1.965,3.28,3.28,0,0,1,1.176-1.354,2.956,2.956,0,0,1,1.637-.489,2.77,2.77,0,0,1,2.242.95,4.114,4.114,0,0,1,.8,2.721v.526H52.823a2.629,2.629,0,0,0,.639,1.767,2.009,2.009,0,0,0,1.555.673,2.2,2.2,0,0,0,1.135-.273,2.851,2.851,0,0,0,.813-.725l.772.6A3.106,3.106,0,0,1,54.949,13.137Zm-.157-6.631a1.687,1.687,0,0,0-1.285.557,2.708,2.708,0,0,0-.643,1.562h3.705v-.1a2.409,2.409,0,0,0-.52-1.494A1.588,1.588,0,0,0,54.792,6.506ZM69.011,9.384a4.429,4.429,0,0,1-.772,2.721,2.476,2.476,0,0,1-2.092,1.032,2.713,2.713,0,0,1-2.119-.854v3.562H62.763V5.6h1.155l.062.82a2.605,2.605,0,0,1,2.146-.957,2.522,2.522,0,0,1,2.109,1,4.477,4.477,0,0,1,.776,2.8ZM67.746,9.24a3.268,3.268,0,0,0-.533-1.976A1.718,1.718,0,0,0,65.75,6.54a1.859,1.859,0,0,0-1.723,1.019v3.534A1.863,1.863,0,0,0,65.764,12.1a1.71,1.71,0,0,0,1.446-.721A3.567,3.567,0,0,0,67.746,9.24ZM75.184,13a2.657,2.657,0,0,1-.178-.779,2.822,2.822,0,0,1-2.105.916,2.611,2.611,0,0,1-1.794-.619,2,2,0,0,1-.7-1.569,2.091,2.091,0,0,1,.878-1.794,4.141,4.141,0,0,1,2.471-.639h1.23V7.935a1.42,1.42,0,0,0-.4-1.056,1.593,1.593,0,0,0-1.169-.393,1.844,1.844,0,0,0-1.135.342,1.007,1.007,0,0,0-.458.827H70.556a1.745,1.745,0,0,1,.393-1.07,2.683,2.683,0,0,1,1.066-.817,3.588,3.588,0,0,1,1.48-.3,2.924,2.924,0,0,1,2,.639,2.306,2.306,0,0,1,.752,1.76v3.4a4.162,4.162,0,0,0,.26,1.62V13Zm-2.1-.964a2.223,2.223,0,0,0,1.128-.308,1.861,1.861,0,0,0,.772-.8V9.411h-.991q-2.324,0-2.324,1.36a1.151,1.151,0,0,0,.4.93A1.524,1.524,0,0,0,73.085,12.036Zm11.4-2.652a4.429,4.429,0,0,1-.772,2.721,2.476,2.476,0,0,1-2.092,1.032,2.713,2.713,0,0,1-2.119-.854v3.562H78.232V5.6h1.155l.062.82A2.605,2.605,0,0,1,81.6,5.467a2.522,2.522,0,0,1,2.109,1,4.477,4.477,0,0,1,.776,2.8ZM83.216,9.24a3.268,3.268,0,0,0-.533-1.976A1.718,1.718,0,0,0,81.22,6.54,1.859,1.859,0,0,0,79.5,7.559v3.534A1.863,1.863,0,0,0,81.233,12.1a1.71,1.71,0,0,0,1.446-.721A3.567,3.567,0,0,0,83.216,9.24Zm5.94,3.9a3.232,3.232,0,0,1-2.447-.988,3.666,3.666,0,0,1-.943-2.642V9.274a4.438,4.438,0,0,1,.42-1.965,3.28,3.28,0,0,1,1.176-1.354A2.956,2.956,0,0,1,89,5.467a2.77,2.77,0,0,1,2.242.95,4.114,4.114,0,0,1,.8,2.721v.526H87.03a2.629,2.629,0,0,0,.639,1.767,2.009,2.009,0,0,0,1.555.673,2.2,2.2,0,0,0,1.135-.273,2.851,2.851,0,0,0,.813-.725l.772.6A3.106,3.106,0,0,1,89.156,13.137ZM89,6.506a1.687,1.687,0,0,0-1.285.557,2.708,2.708,0,0,0-.643,1.562h3.705v-.1a2.409,2.409,0,0,0-.52-1.494A1.588,1.588,0,0,0,89,6.506ZM94.878,13H93.613V2.5h1.265Z" transform="translate(481 -4268)" fill="#12263f"/>
    <path id="Trazado_721496" data-name="Trazado 721496" d="M6.691,3.047l3.254,8.121L13.2,3.047h1.7V13H13.588V9.124l.123-4.184L10.444,13h-1L6.178,4.961l.13,4.163V13H5V3.047ZM21.586,13a2.657,2.657,0,0,1-.178-.779,2.822,2.822,0,0,1-2.105.916,2.611,2.611,0,0,1-1.794-.619,2,2,0,0,1-.7-1.569,2.091,2.091,0,0,1,.878-1.794,4.142,4.142,0,0,1,2.471-.639h1.23V7.935a1.42,1.42,0,0,0-.4-1.056,1.593,1.593,0,0,0-1.169-.393,1.844,1.844,0,0,0-1.135.342,1.007,1.007,0,0,0-.458.827H16.958a1.745,1.745,0,0,1,.393-1.07,2.683,2.683,0,0,1,1.066-.817,3.588,3.588,0,0,1,1.48-.3,2.924,2.924,0,0,1,2,.639,2.306,2.306,0,0,1,.752,1.76v3.4a4.162,4.162,0,0,0,.26,1.62V13Zm-2.1-.964a2.223,2.223,0,0,0,1.128-.308,1.861,1.861,0,0,0,.772-.8V9.411H20.4q-2.324,0-2.324,1.36a1.151,1.151,0,0,0,.4.93A1.524,1.524,0,0,0,19.488,12.036Zm6.863-8.224V5.6h1.381v.978H26.351v4.593a1.027,1.027,0,0,0,.185.667.777.777,0,0,0,.629.222,3.062,3.062,0,0,0,.6-.082V13a3.688,3.688,0,0,1-.971.136,1.575,1.575,0,0,1-1.278-.513,2.2,2.2,0,0,1-.431-1.456V6.581H23.74V5.6h1.347V3.813Zm5.927,9.324a3.232,3.232,0,0,1-2.447-.988,3.666,3.666,0,0,1-.943-2.642V9.274a4.438,4.438,0,0,1,.42-1.965,3.28,3.28,0,0,1,1.176-1.354,2.956,2.956,0,0,1,1.637-.489,2.77,2.77,0,0,1,2.242.95,4.114,4.114,0,0,1,.8,2.721v.526H30.152a2.629,2.629,0,0,0,.639,1.767,2.009,2.009,0,0,0,1.555.673,2.2,2.2,0,0,0,1.135-.273,2.851,2.851,0,0,0,.813-.725l.772.6A3.106,3.106,0,0,1,32.278,13.137Zm-.157-6.631a1.687,1.687,0,0,0-1.285.557,2.708,2.708,0,0,0-.643,1.562H33.9v-.1a2.409,2.409,0,0,0-.52-1.494A1.588,1.588,0,0,0,32.121,6.506Zm8.08.232a3.79,3.79,0,0,0-.622-.048A1.667,1.667,0,0,0,37.89,7.75V13H36.625V5.6h1.23l.021.854a1.969,1.969,0,0,1,1.764-.991,1.292,1.292,0,0,1,.561.1ZM42.737,13H41.472V5.6h1.265ZM41.37,3.642a.755.755,0,0,1,.188-.52.706.706,0,0,1,.557-.212.717.717,0,0,1,.561.212.747.747,0,0,1,.191.52.722.722,0,0,1-.191.513.73.73,0,0,1-.561.205.718.718,0,0,1-.557-.205A.73.73,0,0,1,41.37,3.642ZM49.327,13a2.657,2.657,0,0,1-.178-.779,2.822,2.822,0,0,1-2.105.916,2.611,2.611,0,0,1-1.794-.619,2,2,0,0,1-.7-1.569,2.091,2.091,0,0,1,.878-1.794A4.142,4.142,0,0,1,47.9,8.516h1.23V7.935a1.42,1.42,0,0,0-.4-1.056,1.593,1.593,0,0,0-1.169-.393,1.844,1.844,0,0,0-1.135.342,1.007,1.007,0,0,0-.458.827H44.7a1.745,1.745,0,0,1,.393-1.07,2.683,2.683,0,0,1,1.066-.817,3.588,3.588,0,0,1,1.48-.3,2.924,2.924,0,0,1,2,.639,2.306,2.306,0,0,1,.752,1.76v3.4a4.162,4.162,0,0,0,.26,1.62V13Zm-2.1-.964a2.223,2.223,0,0,0,1.128-.308,1.861,1.861,0,0,0,.772-.8V9.411h-.991q-2.324,0-2.324,1.36a1.151,1.151,0,0,0,.4.93A1.524,1.524,0,0,0,47.228,12.036ZM53.75,13H52.485V2.5H53.75Zm9.8-1.962a.931.931,0,0,0-.386-.8,3.718,3.718,0,0,0-1.347-.489,6.367,6.367,0,0,1-1.524-.492,2.169,2.169,0,0,1-.834-.684,1.635,1.635,0,0,1-.27-.943A1.919,1.919,0,0,1,59.953,6.1a3,3,0,0,1,1.965-.629,3.091,3.091,0,0,1,2.041.649,2.063,2.063,0,0,1,.783,1.661H63.47a1.142,1.142,0,0,0-.441-.9,1.652,1.652,0,0,0-1.111-.376,1.729,1.729,0,0,0-1.08.3.947.947,0,0,0-.39.786.767.767,0,0,0,.362.69,4.458,4.458,0,0,0,1.309.444,6.821,6.821,0,0,1,1.535.506,2.239,2.239,0,0,1,.872.708,1.74,1.74,0,0,1,.284,1.008,1.893,1.893,0,0,1-.793,1.589,3.326,3.326,0,0,1-2.058.6,3.725,3.725,0,0,1-1.572-.314,2.557,2.557,0,0,1-1.07-.878,2.117,2.117,0,0,1-.386-1.22H60.2a1.309,1.309,0,0,0,.509,1.008,1.976,1.976,0,0,0,1.254.373,2.039,2.039,0,0,0,1.152-.291A.893.893,0,0,0,63.545,11.038Zm2.577-1.8a4.369,4.369,0,0,1,.427-1.955,3.187,3.187,0,0,1,1.189-1.34,3.238,3.238,0,0,1,1.74-.472,3.119,3.119,0,0,1,2.444,1.046,4.024,4.024,0,0,1,.933,2.782v.089a4.407,4.407,0,0,1-.414,1.938,3.14,3.14,0,0,1-1.183,1.336,3.275,3.275,0,0,1-1.767.479,3.111,3.111,0,0,1-2.437-1.046,4,4,0,0,1-.933-2.769Zm1.271.15a3.164,3.164,0,0,0,.571,1.976,1.934,1.934,0,0,0,3.059-.01,3.46,3.46,0,0,0,.567-2.116,3.159,3.159,0,0,0-.578-1.972,1.836,1.836,0,0,0-1.535-.755,1.816,1.816,0,0,0-1.511.745A3.435,3.435,0,0,0,67.394,9.384ZM70.053,2.5h1.531L69.752,4.51l-1.019,0ZM75.816,13H74.551V2.5h1.265Zm3.4,0H77.949V5.6h1.265ZM77.846,3.642a.755.755,0,0,1,.188-.52.706.706,0,0,1,.557-.212.717.717,0,0,1,.561.212.747.747,0,0,1,.191.52.722.722,0,0,1-.191.513.73.73,0,0,1-.561.205.718.718,0,0,1-.557-.205A.73.73,0,0,1,77.846,3.642Zm3.083,5.6A4.333,4.333,0,0,1,81.736,6.5a2.745,2.745,0,0,1,4.17-.147V2.5H87.17V13H86.008l-.062-.793a2.575,2.575,0,0,1-2.112.93,2.526,2.526,0,0,1-2.1-1.053,4.382,4.382,0,0,1-.81-2.748Zm1.265.144a3.281,3.281,0,0,0,.52,1.969,1.68,1.68,0,0,0,1.436.711,1.845,1.845,0,0,0,1.757-1.08v-3.4A1.859,1.859,0,0,0,84.163,6.54a1.687,1.687,0,0,0-1.449.718A3.612,3.612,0,0,0,82.194,9.384Zm6.6-.15a4.369,4.369,0,0,1,.427-1.955,3.187,3.187,0,0,1,1.189-1.34,3.238,3.238,0,0,1,1.74-.472A3.119,3.119,0,0,1,94.6,6.513a4.024,4.024,0,0,1,.933,2.782v.089a4.407,4.407,0,0,1-.414,1.938,3.14,3.14,0,0,1-1.183,1.336,3.275,3.275,0,0,1-1.767.479,3.111,3.111,0,0,1-2.437-1.046A4,4,0,0,1,88.8,9.322Zm1.271.15a3.164,3.164,0,0,0,.571,1.976,1.934,1.934,0,0,0,3.059-.01,3.46,3.46,0,0,0,.567-2.116,3.159,3.159,0,0,0-.578-1.972,1.836,1.836,0,0,0-1.535-.755,1.816,1.816,0,0,0-1.511.745A3.435,3.435,0,0,0,90.069,9.384Zm-80.756,17A4.429,4.429,0,0,1,8.54,29.1a2.476,2.476,0,0,1-2.092,1.032,2.713,2.713,0,0,1-2.119-.854v3.562H3.064V22.6H4.22l.062.82a2.605,2.605,0,0,1,2.146-.957,2.522,2.522,0,0,1,2.109,1,4.477,4.477,0,0,1,.776,2.8ZM8.048,26.24a3.268,3.268,0,0,0-.533-1.976,1.718,1.718,0,0,0-1.463-.725,1.859,1.859,0,0,0-1.723,1.019v3.534A1.863,1.863,0,0,0,6.065,29.1a1.71,1.71,0,0,0,1.446-.721A3.567,3.567,0,0,0,8.048,26.24ZM15.485,30a2.657,2.657,0,0,1-.178-.779,2.822,2.822,0,0,1-2.105.916,2.611,2.611,0,0,1-1.794-.619,2,2,0,0,1-.7-1.569,2.091,2.091,0,0,1,.878-1.794,4.142,4.142,0,0,1,2.471-.639h1.23v-.581a1.42,1.42,0,0,0-.4-1.056,1.593,1.593,0,0,0-1.169-.393,1.844,1.844,0,0,0-1.135.342,1.007,1.007,0,0,0-.458.827H10.857a1.745,1.745,0,0,1,.393-1.07,2.683,2.683,0,0,1,1.066-.817,3.588,3.588,0,0,1,1.48-.3,2.924,2.924,0,0,1,2,.639,2.306,2.306,0,0,1,.752,1.76v3.4a4.162,4.162,0,0,0,.26,1.62V30Zm-2.1-.964a2.223,2.223,0,0,0,1.128-.308,1.861,1.861,0,0,0,.772-.8V26.411H14.3q-2.324,0-2.324,1.36a1.151,1.151,0,0,0,.4.93A1.524,1.524,0,0,0,13.387,29.036Zm8.723-5.3a3.79,3.79,0,0,0-.622-.048A1.667,1.667,0,0,0,19.8,24.75V30H18.534V22.6h1.23l.021.854a1.969,1.969,0,0,1,1.764-.991,1.292,1.292,0,0,1,.561.1ZM27.564,30a2.657,2.657,0,0,1-.178-.779,2.822,2.822,0,0,1-2.105.916,2.611,2.611,0,0,1-1.794-.619,2,2,0,0,1-.7-1.569,2.091,2.091,0,0,1,.878-1.794,4.141,4.141,0,0,1,2.471-.639h1.23v-.581a1.42,1.42,0,0,0-.4-1.056,1.593,1.593,0,0,0-1.169-.393,1.844,1.844,0,0,0-1.135.342,1.007,1.007,0,0,0-.458.827H22.937a1.745,1.745,0,0,1,.393-1.07,2.683,2.683,0,0,1,1.066-.817,3.588,3.588,0,0,1,1.48-.3,2.924,2.924,0,0,1,2,.639,2.306,2.306,0,0,1,.752,1.76v3.4a4.162,4.162,0,0,0,.26,1.62V30Zm-2.1-.964a2.223,2.223,0,0,0,1.128-.308,1.861,1.861,0,0,0,.772-.8V26.411h-.991q-2.324,0-2.324,1.36a1.151,1.151,0,0,0,.4.93A1.524,1.524,0,0,0,25.466,29.036Zm11.683,1.1a3.232,3.232,0,0,1-2.447-.988,3.666,3.666,0,0,1-.943-2.642v-.232a4.438,4.438,0,0,1,.42-1.965,3.279,3.279,0,0,1,1.176-1.354,2.956,2.956,0,0,1,1.637-.489,2.77,2.77,0,0,1,2.242.95,4.114,4.114,0,0,1,.8,2.721v.526H35.022a2.629,2.629,0,0,0,.639,1.767,2.009,2.009,0,0,0,1.555.673,2.2,2.2,0,0,0,1.135-.273,2.851,2.851,0,0,0,.813-.725l.772.6A3.106,3.106,0,0,1,37.148,30.137Zm-.157-6.631a1.687,1.687,0,0,0-1.285.557,2.708,2.708,0,0,0-.643,1.562h3.705v-.1a2.409,2.409,0,0,0-.52-1.494A1.588,1.588,0,0,0,36.991,23.506Zm6.986,1.8,1.641-2.7h1.477l-2.42,3.657L47.17,30H45.707L44,27.231,42.289,30h-1.47l2.5-3.739L40.895,22.6h1.463Zm6.173-4.491V22.6h1.381v.978H50.15v4.593a1.027,1.027,0,0,0,.185.667.777.777,0,0,0,.629.222,3.062,3.062,0,0,0,.6-.082V30a3.688,3.688,0,0,1-.971.136,1.575,1.575,0,0,1-1.278-.513,2.2,2.2,0,0,1-.431-1.456V23.581H47.539V22.6h1.347V20.813Zm6.433,2.926a3.79,3.79,0,0,0-.622-.048,1.667,1.667,0,0,0-1.688,1.06V30H53.008V22.6h1.23l.021.854a1.969,1.969,0,0,1,1.764-.991,1.292,1.292,0,0,1,.561.1ZM62.038,30a2.657,2.657,0,0,1-.178-.779,2.822,2.822,0,0,1-2.105.916,2.611,2.611,0,0,1-1.794-.619,2,2,0,0,1-.7-1.569,2.091,2.091,0,0,1,.878-1.794,4.142,4.142,0,0,1,2.471-.639h1.23v-.581a1.42,1.42,0,0,0-.4-1.056,1.593,1.593,0,0,0-1.169-.393,1.844,1.844,0,0,0-1.135.342,1.007,1.007,0,0,0-.458.827H57.41a1.745,1.745,0,0,1,.393-1.07,2.683,2.683,0,0,1,1.066-.817,3.588,3.588,0,0,1,1.48-.3,2.924,2.924,0,0,1,2,.639,2.306,2.306,0,0,1,.752,1.76v3.4a4.162,4.162,0,0,0,.26,1.62V30Zm-2.1-.964a2.223,2.223,0,0,0,1.128-.308,1.861,1.861,0,0,0,.772-.8V26.411h-.991q-2.324,0-2.324,1.36a1.151,1.151,0,0,0,.4.93A1.524,1.524,0,0,0,59.939,29.036Zm8.114.068a1.822,1.822,0,0,0,1.183-.41,1.443,1.443,0,0,0,.561-1.025h1.2a2.293,2.293,0,0,1-.437,1.21,2.882,2.882,0,0,1-1.077.916,3.107,3.107,0,0,1-1.425.342,3.047,3.047,0,0,1-2.4-1.008,4.016,4.016,0,0,1-.892-2.758v-.212a4.453,4.453,0,0,1,.4-1.921,3.02,3.02,0,0,1,1.138-1.306,3.233,3.233,0,0,1,1.753-.465,2.966,2.966,0,0,1,2.068.745,2.663,2.663,0,0,1,.878,1.935H69.8a1.743,1.743,0,0,0-.543-1.179,1.691,1.691,0,0,0-1.207-.461,1.77,1.77,0,0,0-1.494.694,3.259,3.259,0,0,0-.53,2.006v.239a3.194,3.194,0,0,0,.526,1.969A1.779,1.779,0,0,0,68.054,29.1Zm7.328,0a1.822,1.822,0,0,0,1.183-.41,1.443,1.443,0,0,0,.561-1.025h1.2a2.293,2.293,0,0,1-.437,1.21,2.882,2.882,0,0,1-1.077.916,3.107,3.107,0,0,1-1.425.342,3.047,3.047,0,0,1-2.4-1.008,4.016,4.016,0,0,1-.892-2.758v-.212a4.453,4.453,0,0,1,.4-1.921,3.02,3.02,0,0,1,1.138-1.306,3.233,3.233,0,0,1,1.753-.465,2.966,2.966,0,0,1,2.068.745,2.663,2.663,0,0,1,.878,1.935h-1.2a1.743,1.743,0,0,0-.543-1.179,1.691,1.691,0,0,0-1.207-.461,1.77,1.77,0,0,0-1.494.694,3.259,3.259,0,0,0-.53,2.006v.239a3.194,3.194,0,0,0,.526,1.969A1.779,1.779,0,0,0,75.382,29.1Zm5.735.9H79.853V22.6h1.265ZM79.75,20.642a.755.755,0,0,1,.188-.52.706.706,0,0,1,.557-.212.717.717,0,0,1,.561.212.747.747,0,0,1,.191.52.722.722,0,0,1-.191.513.73.73,0,0,1-.561.205.718.718,0,0,1-.557-.205A.73.73,0,0,1,79.75,20.642Zm3.056,5.592a4.369,4.369,0,0,1,.427-1.955,3.187,3.187,0,0,1,1.189-1.34,3.238,3.238,0,0,1,1.74-.472,3.119,3.119,0,0,1,2.444,1.046,4.024,4.024,0,0,1,.933,2.782v.089a4.407,4.407,0,0,1-.414,1.938,3.14,3.14,0,0,1-1.183,1.336,3.275,3.275,0,0,1-1.767.479,3.111,3.111,0,0,1-2.437-1.046,4,4,0,0,1-.933-2.769Zm1.271.15a3.164,3.164,0,0,0,.571,1.976,1.934,1.934,0,0,0,3.059-.01,3.46,3.46,0,0,0,.567-2.116,3.159,3.159,0,0,0-.578-1.972,1.836,1.836,0,0,0-1.535-.755,1.816,1.816,0,0,0-1.511.745A3.434,3.434,0,0,0,84.077,26.384ZM86.736,19.5h1.531l-1.832,2.01-1.019,0Zm5.585,3.1.041.93a2.7,2.7,0,0,1,2.215-1.066q2.345,0,2.365,2.646V30H95.678V25.105a1.7,1.7,0,0,0-.366-1.183,1.466,1.466,0,0,0-1.118-.383,1.825,1.825,0,0,0-1.08.328,2.228,2.228,0,0,0-.725.861V30H91.125V22.6Z" transform="translate(476 -4242)" fill="#12263f"/>
    <path id="Trazado_721497" data-name="Trazado 721497" d="M30.332,8.563a6.172,6.172,0,0,1-2.458-1.193,2.279,2.279,0,0,1-.769-1.747,2.408,2.408,0,0,1,.94-1.945,3.736,3.736,0,0,1,2.444-.769,4.078,4.078,0,0,1,1.829.4A3.007,3.007,0,0,1,33.562,4.4,2.8,2.8,0,0,1,34,5.925H32.684A1.82,1.82,0,0,0,32.109,4.5a2.335,2.335,0,0,0-1.62-.518,2.391,2.391,0,0,0-1.514.428A1.428,1.428,0,0,0,28.432,5.6a1.285,1.285,0,0,0,.516,1.031A5.062,5.062,0,0,0,30.7,7.4a8.151,8.151,0,0,1,1.941.77,2.946,2.946,0,0,1,1.039.981,2.5,2.5,0,0,1,.338,1.319,2.326,2.326,0,0,1-.943,1.938,4.022,4.022,0,0,1-2.522.728,4.678,4.678,0,0,1-1.914-.393,3.221,3.221,0,0,1-1.371-1.077,2.627,2.627,0,0,1-.482-1.552H28.11a1.714,1.714,0,0,0,.667,1.425,2.806,2.806,0,0,0,1.781.523,2.58,2.58,0,0,0,1.593-.424,1.377,1.377,0,0,0,.554-1.155,1.351,1.351,0,0,0-.513-1.131A5.911,5.911,0,0,0,30.332,8.563Zm4.84.67A4.369,4.369,0,0,1,35.6,7.278a3.187,3.187,0,0,1,1.189-1.34,3.238,3.238,0,0,1,1.74-.472,3.119,3.119,0,0,1,2.444,1.046,4.024,4.024,0,0,1,.933,2.782v.089a4.407,4.407,0,0,1-.414,1.938,3.14,3.14,0,0,1-1.183,1.336,3.275,3.275,0,0,1-1.767.479A3.111,3.111,0,0,1,36.1,12.091a4,4,0,0,1-.933-2.769Zm1.271.15a3.164,3.164,0,0,0,.571,1.976,1.934,1.934,0,0,0,3.059-.01,3.46,3.46,0,0,0,.567-2.116,3.159,3.159,0,0,0-.578-1.972,1.836,1.836,0,0,0-1.535-.755,1.816,1.816,0,0,0-1.511.745A3.435,3.435,0,0,0,36.443,9.384ZM44.865,13H43.6V2.5h1.265Zm4.464-1.716L51.161,5.6h1.292L49.8,13h-.964l-2.68-7.4h1.292Zm7.321,1.853a3.232,3.232,0,0,1-2.447-.988,3.666,3.666,0,0,1-.943-2.642V9.274a4.438,4.438,0,0,1,.42-1.965,3.28,3.28,0,0,1,1.176-1.354,2.956,2.956,0,0,1,1.637-.489,2.77,2.77,0,0,1,2.242.95,4.114,4.114,0,0,1,.8,2.721v.526H54.524a2.629,2.629,0,0,0,.639,1.767,2.009,2.009,0,0,0,1.555.673,2.2,2.2,0,0,0,1.135-.273,2.851,2.851,0,0,0,.813-.725l.772.6A3.106,3.106,0,0,1,56.65,13.137Zm-.157-6.631a1.687,1.687,0,0,0-1.285.557,2.708,2.708,0,0,0-.643,1.562h3.705v-.1a2.409,2.409,0,0,0-.52-1.494A1.588,1.588,0,0,0,56.493,6.506Zm5.7-.9.041.93A2.7,2.7,0,0,1,64.45,5.467q2.345,0,2.365,2.646V13H65.551V8.105a1.7,1.7,0,0,0-.366-1.183,1.466,1.466,0,0,0-1.118-.383,1.825,1.825,0,0,0-1.08.328,2.228,2.228,0,0,0-.725.861V13H61V5.6Zm8.244-1.791V5.6h1.381v.978H70.438v4.593a1.027,1.027,0,0,0,.185.667.777.777,0,0,0,.629.222,3.062,3.062,0,0,0,.6-.082V13a3.688,3.688,0,0,1-.971.136,1.575,1.575,0,0,1-1.278-.513,2.2,2.2,0,0,1-.431-1.456V6.581H67.827V5.6h1.347V3.813Zm5.927,9.324a3.232,3.232,0,0,1-2.447-.988,3.666,3.666,0,0,1-.943-2.642V9.274a4.438,4.438,0,0,1,.42-1.965,3.28,3.28,0,0,1,1.176-1.354,2.956,2.956,0,0,1,1.637-.489,2.77,2.77,0,0,1,2.242.95,4.114,4.114,0,0,1,.8,2.721v.526H74.239a2.629,2.629,0,0,0,.639,1.767,2.009,2.009,0,0,0,1.555.673,2.2,2.2,0,0,0,1.135-.273,2.851,2.851,0,0,0,.813-.725l.772.6A3.106,3.106,0,0,1,76.365,13.137Zm-.157-6.631a1.687,1.687,0,0,0-1.285.557,2.708,2.708,0,0,0-.643,1.562h3.705v-.1a2.409,2.409,0,0,0-.52-1.494A1.588,1.588,0,0,0,76.208,6.506ZM10.2,26.384A4.429,4.429,0,0,1,9.424,29.1a2.476,2.476,0,0,1-2.092,1.032,2.713,2.713,0,0,1-2.119-.854v3.562H3.949V22.6H5.1l.062.82a2.605,2.605,0,0,1,2.146-.957,2.522,2.522,0,0,1,2.109,1,4.477,4.477,0,0,1,.776,2.8ZM8.932,26.24A3.268,3.268,0,0,0,8.4,24.265a1.718,1.718,0,0,0-1.463-.725,1.859,1.859,0,0,0-1.723,1.019v3.534A1.863,1.863,0,0,0,6.95,29.1,1.71,1.71,0,0,0,8.4,28.383,3.567,3.567,0,0,0,8.932,26.24ZM16.37,30a2.657,2.657,0,0,1-.178-.779,2.822,2.822,0,0,1-2.105.916,2.611,2.611,0,0,1-1.794-.619,2,2,0,0,1-.7-1.569,2.091,2.091,0,0,1,.878-1.794,4.142,4.142,0,0,1,2.471-.639h1.23v-.581a1.42,1.42,0,0,0-.4-1.056,1.593,1.593,0,0,0-1.169-.393,1.844,1.844,0,0,0-1.135.342,1.007,1.007,0,0,0-.458.827H11.742a1.745,1.745,0,0,1,.393-1.07,2.683,2.683,0,0,1,1.066-.817,3.588,3.588,0,0,1,1.48-.3,2.924,2.924,0,0,1,2,.639,2.306,2.306,0,0,1,.752,1.76v3.4a4.162,4.162,0,0,0,.26,1.62V30Zm-2.1-.964a2.223,2.223,0,0,0,1.128-.308,1.861,1.861,0,0,0,.772-.8V26.411H15.18q-2.324,0-2.324,1.36a1.151,1.151,0,0,0,.4.93A1.524,1.524,0,0,0,14.271,29.036Zm9.454-1a.931.931,0,0,0-.386-.8,3.718,3.718,0,0,0-1.347-.489,6.367,6.367,0,0,1-1.524-.492,2.169,2.169,0,0,1-.834-.684,1.635,1.635,0,0,1-.27-.943,1.919,1.919,0,0,1,.769-1.538,3,3,0,0,1,1.965-.629,3.091,3.091,0,0,1,2.041.649,2.063,2.063,0,0,1,.783,1.661H23.65a1.142,1.142,0,0,0-.441-.9,1.652,1.652,0,0,0-1.111-.376,1.729,1.729,0,0,0-1.08.3.947.947,0,0,0-.39.786.767.767,0,0,0,.362.69,4.458,4.458,0,0,0,1.309.444,6.821,6.821,0,0,1,1.535.506,2.239,2.239,0,0,1,.872.708,1.74,1.74,0,0,1,.284,1.008,1.893,1.893,0,0,1-.793,1.589,3.326,3.326,0,0,1-2.058.6,3.725,3.725,0,0,1-1.572-.314,2.557,2.557,0,0,1-1.07-.878,2.117,2.117,0,0,1-.386-1.22h1.265a1.309,1.309,0,0,0,.509,1.008,1.976,1.976,0,0,0,1.254.373,2.039,2.039,0,0,0,1.152-.291A.893.893,0,0,0,23.725,28.038ZM31.2,30a2.657,2.657,0,0,1-.178-.779,2.822,2.822,0,0,1-2.105.916,2.611,2.611,0,0,1-1.794-.619,2,2,0,0,1-.7-1.569,2.091,2.091,0,0,1,.878-1.794,4.141,4.141,0,0,1,2.471-.639h1.23v-.581a1.42,1.42,0,0,0-.4-1.056,1.593,1.593,0,0,0-1.169-.393,1.844,1.844,0,0,0-1.135.342,1.007,1.007,0,0,0-.458.827H26.576a1.745,1.745,0,0,1,.393-1.07,2.683,2.683,0,0,1,1.066-.817,3.588,3.588,0,0,1,1.48-.3,2.924,2.924,0,0,1,2,.639,2.306,2.306,0,0,1,.752,1.76v3.4a4.162,4.162,0,0,0,.26,1.62V30Zm-2.1-.964a2.223,2.223,0,0,0,1.128-.308,1.861,1.861,0,0,0,.772-.8V26.411h-.991q-2.324,0-2.324,1.36a1.151,1.151,0,0,0,.4.93A1.524,1.524,0,0,0,29.1,29.036ZM35.449,22.6l.041.93A2.7,2.7,0,0,1,37.7,22.467q2.345,0,2.365,2.646V30H38.805V25.105a1.7,1.7,0,0,0-.366-1.183,1.466,1.466,0,0,0-1.118-.383,1.825,1.825,0,0,0-1.08.328,2.228,2.228,0,0,0-.725.861V30H34.252V22.6Zm6.221,3.637a4.333,4.333,0,0,1,.807-2.738,2.745,2.745,0,0,1,4.17-.147V19.5h1.265V30H46.749l-.062-.793a2.575,2.575,0,0,1-2.112.93,2.526,2.526,0,0,1-2.1-1.053,4.382,4.382,0,0,1-.81-2.748Zm1.265.144a3.281,3.281,0,0,0,.52,1.969,1.68,1.68,0,0,0,1.436.711,1.845,1.845,0,0,0,1.757-1.08v-3.4A1.859,1.859,0,0,0,44.9,23.54a1.687,1.687,0,0,0-1.449.718A3.612,3.612,0,0,0,42.934,26.384Zm6.6-.15a4.369,4.369,0,0,1,.427-1.955,3.187,3.187,0,0,1,1.189-1.34,3.238,3.238,0,0,1,1.74-.472,3.119,3.119,0,0,1,2.444,1.046,4.024,4.024,0,0,1,.933,2.782v.089a4.407,4.407,0,0,1-.414,1.938,3.14,3.14,0,0,1-1.183,1.336,3.275,3.275,0,0,1-1.767.479,3.111,3.111,0,0,1-2.437-1.046,4,4,0,0,1-.933-2.769Zm1.271.15a3.164,3.164,0,0,0,.571,1.976,1.934,1.934,0,0,0,3.059-.01,3.46,3.46,0,0,0,.567-2.116,3.159,3.159,0,0,0-.578-1.972,1.836,1.836,0,0,0-1.535-.755,1.816,1.816,0,0,0-1.511.745A3.434,3.434,0,0,0,50.809,26.384Zm16.762,0A4.429,4.429,0,0,1,66.8,29.1a2.476,2.476,0,0,1-2.092,1.032,2.713,2.713,0,0,1-2.119-.854v3.562H61.323V22.6h1.155l.062.82a2.605,2.605,0,0,1,2.146-.957,2.522,2.522,0,0,1,2.109,1,4.477,4.477,0,0,1,.776,2.8Zm-1.265-.144a3.268,3.268,0,0,0-.533-1.976,1.718,1.718,0,0,0-1.463-.725,1.859,1.859,0,0,0-1.723,1.019v3.534A1.863,1.863,0,0,0,64.324,29.1a1.71,1.71,0,0,0,1.446-.721A3.567,3.567,0,0,0,66.306,26.24Zm2.536-.007a4.369,4.369,0,0,1,.427-1.955,3.187,3.187,0,0,1,1.189-1.34,3.238,3.238,0,0,1,1.74-.472,3.119,3.119,0,0,1,2.444,1.046,4.024,4.024,0,0,1,.933,2.782v.089a4.407,4.407,0,0,1-.414,1.938,3.14,3.14,0,0,1-1.183,1.336,3.275,3.275,0,0,1-1.767.479,3.111,3.111,0,0,1-2.437-1.046,4,4,0,0,1-.933-2.769Zm1.271.15a3.164,3.164,0,0,0,.571,1.976,1.934,1.934,0,0,0,3.059-.01,3.46,3.46,0,0,0,.567-2.116,3.159,3.159,0,0,0-.578-1.972,1.836,1.836,0,0,0-1.535-.755,1.816,1.816,0,0,0-1.511.745A3.434,3.434,0,0,0,70.114,26.384Zm10.623-2.646a3.79,3.79,0,0,0-.622-.048,1.667,1.667,0,0,0-1.688,1.06V30H77.162V22.6h1.23l.021.854a1.969,1.969,0,0,1,1.764-.991,1.292,1.292,0,0,1,.561.1Zm6,6.262H85.474V19.5h1.265Zm1.688-3.767a4.369,4.369,0,0,1,.427-1.955,3.187,3.187,0,0,1,1.189-1.34,3.238,3.238,0,0,1,1.74-.472,3.119,3.119,0,0,1,2.444,1.046,4.024,4.024,0,0,1,.933,2.782v.089a4.407,4.407,0,0,1-.414,1.938,3.14,3.14,0,0,1-1.183,1.336,3.275,3.275,0,0,1-1.767.479,3.111,3.111,0,0,1-2.437-1.046,4,4,0,0,1-.933-2.769Zm1.271.15a3.164,3.164,0,0,0,.571,1.976,1.934,1.934,0,0,0,3.059-.01,3.46,3.46,0,0,0,.567-2.116,3.159,3.159,0,0,0-.578-1.972,1.836,1.836,0,0,0-1.535-.755,1.816,1.816,0,0,0-1.511.745A3.434,3.434,0,0,0,89.7,26.384Zm11.354,1.654a.931.931,0,0,0-.386-.8,3.718,3.718,0,0,0-1.347-.489,6.367,6.367,0,0,1-1.524-.492,2.169,2.169,0,0,1-.834-.684,1.635,1.635,0,0,1-.27-.943,1.919,1.919,0,0,1,.769-1.538,3,3,0,0,1,1.965-.629,3.091,3.091,0,0,1,2.041.649,2.063,2.063,0,0,1,.783,1.661h-1.271a1.142,1.142,0,0,0-.441-.9,1.652,1.652,0,0,0-1.111-.376,1.729,1.729,0,0,0-1.08.3.947.947,0,0,0-.39.786.767.767,0,0,0,.362.69,4.458,4.458,0,0,0,1.309.444,6.821,6.821,0,0,1,1.535.506,2.239,2.239,0,0,1,.872.708,1.74,1.74,0,0,1,.284,1.008,1.893,1.893,0,0,1-.793,1.589,3.326,3.326,0,0,1-2.058.6,3.725,3.725,0,0,1-1.572-.314,2.557,2.557,0,0,1-1.07-.878,2.117,2.117,0,0,1-.386-1.22H97.7a1.309,1.309,0,0,0,.509,1.008,1.976,1.976,0,0,0,1.254.373,2.039,2.039,0,0,0,1.152-.291A.893.893,0,0,0,101.053,28.038ZM5.319,39.6l.034.82a2.732,2.732,0,0,1,2.194-.957A2.115,2.115,0,0,1,9.66,40.656a2.8,2.8,0,0,1,.96-.861,2.837,2.837,0,0,1,1.4-.328q2.434,0,2.475,2.577V47H13.229V42.119a1.7,1.7,0,0,0-.362-1.186,1.6,1.6,0,0,0-1.217-.393,1.677,1.677,0,0,0-1.169.42,1.706,1.706,0,0,0-.54,1.131V47H8.669V42.153A1.411,1.411,0,0,0,7.09,40.54a1.692,1.692,0,0,0-1.7,1.06V47H4.123V39.6Zm15.647,6.665a2.686,2.686,0,0,1-2.167.868A2.3,2.3,0,0,1,17,46.45a2.974,2.974,0,0,1-.625-2.034V39.6h1.265v4.778q0,1.682,1.367,1.682a1.893,1.893,0,0,0,1.928-1.08V39.6H22.2V47h-1.2Zm6.727-5.53a3.79,3.79,0,0,0-.622-.048,1.667,1.667,0,0,0-1.688,1.06V47H24.118V39.6h1.23l.021.854a1.969,1.969,0,0,1,1.764-.991,1.292,1.292,0,0,1,.561.1Zm.69,2.5a4.369,4.369,0,0,1,.427-1.955A3.187,3.187,0,0,1,30,39.938a3.238,3.238,0,0,1,1.74-.472,3.119,3.119,0,0,1,2.444,1.046,4.024,4.024,0,0,1,.933,2.782v.089a4.407,4.407,0,0,1-.414,1.938,3.14,3.14,0,0,1-1.183,1.336,3.275,3.275,0,0,1-1.767.479,3.111,3.111,0,0,1-2.437-1.046,4,4,0,0,1-.933-2.769Zm1.271.15a3.164,3.164,0,0,0,.571,1.976,1.934,1.934,0,0,0,3.059-.01,3.46,3.46,0,0,0,.567-2.116,3.159,3.159,0,0,0-.578-1.972,1.836,1.836,0,0,0-1.535-.755,1.816,1.816,0,0,0-1.511.745A3.435,3.435,0,0,0,29.655,43.384ZM41.01,45.038a.931.931,0,0,0-.386-.8,3.718,3.718,0,0,0-1.347-.489,6.367,6.367,0,0,1-1.524-.492,2.169,2.169,0,0,1-.834-.684,1.635,1.635,0,0,1-.27-.943,1.919,1.919,0,0,1,.769-1.538,3,3,0,0,1,1.965-.629,3.091,3.091,0,0,1,2.041.649,2.063,2.063,0,0,1,.783,1.661H40.935a1.142,1.142,0,0,0-.441-.9,1.652,1.652,0,0,0-1.111-.376,1.729,1.729,0,0,0-1.08.3.947.947,0,0,0-.39.786.767.767,0,0,0,.362.69,4.458,4.458,0,0,0,1.309.444,6.821,6.821,0,0,1,1.535.506,2.239,2.239,0,0,1,.872.708,1.74,1.74,0,0,1,.284,1.008,1.893,1.893,0,0,1-.793,1.589,3.326,3.326,0,0,1-2.058.6,3.725,3.725,0,0,1-1.572-.314,2.557,2.557,0,0,1-1.07-.878,2.117,2.117,0,0,1-.386-1.22H37.66a1.309,1.309,0,0,0,.509,1.008,1.976,1.976,0,0,0,1.254.373,2.039,2.039,0,0,0,1.152-.291A.893.893,0,0,0,41.01,45.038Zm6.07-1.8a4.333,4.333,0,0,1,.807-2.738,2.745,2.745,0,0,1,4.17-.147V36.5h1.265V47H52.159l-.062-.793a2.575,2.575,0,0,1-2.112.93,2.526,2.526,0,0,1-2.1-1.053,4.382,4.382,0,0,1-.81-2.748Zm1.265.144a3.281,3.281,0,0,0,.52,1.969,1.68,1.68,0,0,0,1.436.711,1.845,1.845,0,0,0,1.757-1.08v-3.4a1.859,1.859,0,0,0-1.743-1.046,1.687,1.687,0,0,0-1.449.718A3.612,3.612,0,0,0,48.345,43.384Zm10.008,3.753a3.232,3.232,0,0,1-2.447-.988,3.666,3.666,0,0,1-.943-2.642v-.232a4.438,4.438,0,0,1,.42-1.965,3.28,3.28,0,0,1,1.176-1.354,2.956,2.956,0,0,1,1.637-.489,2.77,2.77,0,0,1,2.242.95,4.114,4.114,0,0,1,.8,2.721v.526H56.227a2.629,2.629,0,0,0,.639,1.767,2.009,2.009,0,0,0,1.555.673,2.2,2.2,0,0,0,1.135-.273,2.851,2.851,0,0,0,.813-.725l.772.6A3.106,3.106,0,0,1,58.353,47.137ZM58.2,40.506a1.687,1.687,0,0,0-1.285.557,2.708,2.708,0,0,0-.643,1.562h3.705v-.1a2.409,2.409,0,0,0-.52-1.494A1.588,1.588,0,0,0,58.2,40.506ZM64.074,47H62.81V36.5h1.265Zm5.182-3.76a4.333,4.333,0,0,1,.807-2.738,2.745,2.745,0,0,1,4.17-.147V36.5H75.5V47H74.335l-.062-.793a2.575,2.575,0,0,1-2.112.93,2.526,2.526,0,0,1-2.1-1.053,4.382,4.382,0,0,1-.81-2.748Zm1.265.144a3.281,3.281,0,0,0,.52,1.969,1.68,1.68,0,0,0,1.436.711,1.845,1.845,0,0,0,1.757-1.08v-3.4a1.859,1.859,0,0,0-1.743-1.046,1.687,1.687,0,0,0-1.449.718A3.612,3.612,0,0,0,70.521,43.384Zm10.008,3.753a3.232,3.232,0,0,1-2.447-.988,3.666,3.666,0,0,1-.943-2.642v-.232a4.438,4.438,0,0,1,.42-1.965,3.28,3.28,0,0,1,1.176-1.354,2.956,2.956,0,0,1,1.637-.489,2.77,2.77,0,0,1,2.242.95,4.114,4.114,0,0,1,.8,2.721v.526H78.4a2.629,2.629,0,0,0,.639,1.767A2.009,2.009,0,0,0,80.6,46.1a2.2,2.2,0,0,0,1.135-.273,2.851,2.851,0,0,0,.813-.725l.772.6A3.106,3.106,0,0,1,80.528,47.137Zm-.157-6.631a1.687,1.687,0,0,0-1.285.557,2.708,2.708,0,0,0-.643,1.562h3.705v-.1a2.409,2.409,0,0,0-.52-1.494A1.588,1.588,0,0,0,80.371,40.506Zm4.2,2.734a4.333,4.333,0,0,1,.807-2.738,2.745,2.745,0,0,1,4.17-.147V36.5H90.81V47H89.647l-.062-.793a2.575,2.575,0,0,1-2.112.93,2.526,2.526,0,0,1-2.1-1.053,4.382,4.382,0,0,1-.81-2.748Zm1.265.144a3.281,3.281,0,0,0,.52,1.969,1.68,1.68,0,0,0,1.436.711,1.845,1.845,0,0,0,1.757-1.08v-3.4A1.859,1.859,0,0,0,87.8,40.54a1.687,1.687,0,0,0-1.449.718A3.612,3.612,0,0,0,85.833,43.384ZM97.338,47a2.657,2.657,0,0,1-.178-.779,2.822,2.822,0,0,1-2.105.916,2.611,2.611,0,0,1-1.794-.619,2,2,0,0,1-.7-1.569,2.091,2.091,0,0,1,.878-1.794,4.142,4.142,0,0,1,2.471-.639h1.23v-.581a1.42,1.42,0,0,0-.4-1.056,1.593,1.593,0,0,0-1.169-.393,1.844,1.844,0,0,0-1.135.342,1.007,1.007,0,0,0-.458.827H92.71a1.745,1.745,0,0,1,.393-1.07,2.683,2.683,0,0,1,1.066-.817,3.588,3.588,0,0,1,1.48-.3,2.924,2.924,0,0,1,2,.639,2.306,2.306,0,0,1,.752,1.76v3.4a4.162,4.162,0,0,0,.26,1.62V47Zm-2.1-.964a2.223,2.223,0,0,0,1.128-.308,1.861,1.861,0,0,0,.772-.8V43.411h-.991q-2.324,0-2.324,1.36a1.151,1.151,0,0,0,.4.93A1.524,1.524,0,0,0,95.239,46.036Zm6.521.964H100.5V36.5h1.265Z" transform="translate(443 -4195)" fill="#12263f"/>
    <path id="Trazado_721498" data-name="Trazado 721498" d="M27.942,10.532,30.2,3.047h2.283L29.015,13h-2.14L23.423,3.047H25.7ZM37.259,13a2.194,2.194,0,0,1-.2-.663,2.39,2.39,0,0,1-1.866.8,2.626,2.626,0,0,1-1.8-.629,2.023,2.023,0,0,1-.714-1.586,2.09,2.09,0,0,1,.872-1.8,4.3,4.3,0,0,1,2.519-.636h.909V8.058a1.219,1.219,0,0,0-.263-.82,1.035,1.035,0,0,0-.831-.308,1.177,1.177,0,0,0-.783.239.813.813,0,0,0-.284.656H32.843a1.984,1.984,0,0,1,.4-1.189,2.621,2.621,0,0,1,1.121-.858,4.086,4.086,0,0,1,1.627-.311,3.228,3.228,0,0,1,2.17.687,2.4,2.4,0,0,1,.8,1.931v3.206a3.536,3.536,0,0,0,.294,1.593V13Zm-1.634-1.374a1.7,1.7,0,0,0,.807-.195,1.28,1.28,0,0,0,.547-.523V9.637h-.738q-1.483,0-1.579,1.025l-.007.116a.791.791,0,0,0,.26.608A1.009,1.009,0,0,0,35.625,11.626ZM47.137,9.37a4.436,4.436,0,0,1-.776,2.738,2.488,2.488,0,0,1-2.1,1.029,2.3,2.3,0,0,1-1.812-.779v3.486H40.479V5.6h1.832l.068.725a2.322,2.322,0,0,1,1.873-.861,2.5,2.5,0,0,1,2.126,1.012,4.556,4.556,0,0,1,.759,2.789Zm-1.976-.144A2.911,2.911,0,0,0,44.8,7.634a1.191,1.191,0,0,0-1.063-.561,1.294,1.294,0,0,0-1.278.711v3.028a1.316,1.316,0,0,0,1.292.731Q45.162,11.544,45.162,9.227Zm2.892.007a4.387,4.387,0,0,1,.424-1.962A3.1,3.1,0,0,1,49.7,5.938a3.56,3.56,0,0,1,1.849-.472,3.368,3.368,0,0,1,2.444.916,3.676,3.676,0,0,1,1.056,2.488l.014.506a3.866,3.866,0,0,1-.95,2.731,3.683,3.683,0,0,1-5.1,0,3.934,3.934,0,0,1-.954-2.789Zm1.976.14a2.765,2.765,0,0,0,.4,1.612,1.424,1.424,0,0,0,2.256.007,3.025,3.025,0,0,0,.4-1.763,2.737,2.737,0,0,0-.4-1.6,1.311,1.311,0,0,0-1.135-.568,1.29,1.29,0,0,0-1.121.565A3.076,3.076,0,0,0,50.029,9.374Zm10.4-1.918a5.367,5.367,0,0,0-.711-.055,1.447,1.447,0,0,0-1.47.759V13H56.277V5.6h1.866l.055.882a1.831,1.831,0,0,1,1.647-1.019,2.07,2.07,0,0,1,.615.089Zm-40.428,20.5a.637.637,0,0,0-.359-.571,4.077,4.077,0,0,0-1.152-.373q-2.639-.554-2.639-2.242a2.032,2.032,0,0,1,.817-1.644,3.3,3.3,0,0,1,2.136-.66,3.547,3.547,0,0,1,2.252.663,2.09,2.09,0,0,1,.844,1.723H19.93a.956.956,0,0,0-.273-.7,1.157,1.157,0,0,0-.854-.277,1.182,1.182,0,0,0-.772.226.712.712,0,0,0-.273.574.609.609,0,0,0,.311.53,3.2,3.2,0,0,0,1.049.349,8.571,8.571,0,0,1,1.244.332,2.044,2.044,0,0,1,1.565,1.989,1.929,1.929,0,0,1-.868,1.637,3.745,3.745,0,0,1-2.242.625,3.912,3.912,0,0,1-1.651-.332,2.77,2.77,0,0,1-1.131-.909,2.113,2.113,0,0,1-.41-1.248H17.5a1.031,1.031,0,0,0,.39.807,1.546,1.546,0,0,0,.971.28,1.43,1.43,0,0,0,.858-.215A.67.67,0,0,0,20.005,27.956Zm2.885-1.723a4.387,4.387,0,0,1,.424-1.962,3.1,3.1,0,0,1,1.22-1.333,3.56,3.56,0,0,1,1.849-.472,3.368,3.368,0,0,1,2.444.916,3.676,3.676,0,0,1,1.056,2.488l.014.506a3.866,3.866,0,0,1-.95,2.731,3.3,3.3,0,0,1-2.55,1.029,3.319,3.319,0,0,1-2.553-1.025,3.934,3.934,0,0,1-.954-2.789Zm1.976.14a2.765,2.765,0,0,0,.4,1.612,1.424,1.424,0,0,0,2.256.007,3.025,3.025,0,0,0,.4-1.763,2.737,2.737,0,0,0-.4-1.6,1.311,1.311,0,0,0-1.135-.568,1.29,1.29,0,0,0-1.121.565A3.076,3.076,0,0,0,24.866,26.374ZM33.2,30H31.216V19.5H33.2Zm4.4-2.413L38.968,22.6h2.064l-2.5,7.4H36.651l-2.5-7.4H36.22Zm7.622,2.55a3.631,3.631,0,0,1-2.649-1,3.548,3.548,0,0,1-1.022-2.659v-.191a4.468,4.468,0,0,1,.431-1.993,3.161,3.161,0,0,1,1.22-1.354,3.425,3.425,0,0,1,1.8-.475,3.07,3.07,0,0,1,2.389.957,3.889,3.889,0,0,1,.872,2.714v.807h-4.71a1.835,1.835,0,0,0,.578,1.162,1.746,1.746,0,0,0,1.22.438,2.132,2.132,0,0,0,1.784-.827L48.1,28.8a2.966,2.966,0,0,1-1.2.981A3.947,3.947,0,0,1,45.216,30.137Zm-.226-6.077a1.234,1.234,0,0,0-.954.4,2.062,2.062,0,0,0-.468,1.14h2.748V25.44a1.471,1.471,0,0,0-.355-1.02A1.274,1.274,0,0,0,44.991,24.06ZM51.2,22.6l.062.854a2.582,2.582,0,0,1,2.126-.991,2.146,2.146,0,0,1,1.75.69,3.221,3.221,0,0,1,.588,2.064V30H53.748V25.27a1.282,1.282,0,0,0-.273-.913,1.224,1.224,0,0,0-.909-.284,1.359,1.359,0,0,0-1.251.711V30H49.338V22.6Zm8.388-1.818V22.6H60.85v1.449H59.585v3.691a.881.881,0,0,0,.157.588.79.79,0,0,0,.6.178,3.151,3.151,0,0,0,.581-.048v1.5a4.067,4.067,0,0,1-1.2.178,1.886,1.886,0,0,1-2.119-2.1V24.053H56.53V22.6h1.08V20.785Zm5.77,9.352a3.631,3.631,0,0,1-2.649-1,3.548,3.548,0,0,1-1.022-2.659v-.191a4.468,4.468,0,0,1,.431-1.993,3.161,3.161,0,0,1,1.22-1.354,3.425,3.425,0,0,1,1.8-.475,3.07,3.07,0,0,1,2.389.957,3.889,3.889,0,0,1,.872,2.714v.807h-4.71a1.835,1.835,0,0,0,.578,1.162,1.746,1.746,0,0,0,1.22.438,2.132,2.132,0,0,0,1.784-.827L68.24,28.8a2.966,2.966,0,0,1-1.2.981A3.947,3.947,0,0,1,65.355,30.137Zm-.226-6.077a1.234,1.234,0,0,0-.954.4,2.062,2.062,0,0,0-.468,1.14h2.748V25.44a1.471,1.471,0,0,0-.355-1.02A1.274,1.274,0,0,0,65.129,24.06Z" transform="translate(516 -3992)" fill="#12263f"/>
    <path id="Trazado_721499" data-name="Trazado 721499" d="M21.663,11.353h4.354V13H19.612V3.047h2.051ZM29.148,13H27.166V5.6h1.982Zm-2.1-9.311a.973.973,0,0,1,.3-.731,1.281,1.281,0,0,1,1.617,0,.967.967,0,0,1,.3.731.97.97,0,0,1-.3.738,1.267,1.267,0,0,1-1.606,0A.97.97,0,0,1,27.05,3.689Zm3.418,5.544a4.421,4.421,0,0,1,.776-2.755,2.537,2.537,0,0,1,2.129-1.012,2.271,2.271,0,0,1,1.894.909L35.4,5.6h1.736v10.24H35.15V12.364a2.277,2.277,0,0,1-1.791.772,2.518,2.518,0,0,1-2.105-1.025A4.638,4.638,0,0,1,30.468,9.233Zm1.976.14a2.9,2.9,0,0,0,.373,1.616,1.193,1.193,0,0,0,1.049.555,1.329,1.329,0,0,0,1.285-.726V7.758a1.318,1.318,0,0,0-1.271-.7,1.207,1.207,0,0,0-1.06.555A3.2,3.2,0,0,0,32.443,9.374Zm10.671,2.874a2.477,2.477,0,0,1-2.023.889,2.337,2.337,0,0,1-1.815-.684,2.918,2.918,0,0,1-.639-2V5.6h1.976v4.784q0,1.157,1.053,1.157a1.426,1.426,0,0,0,1.381-.7V5.6h1.982V13H43.169ZM48.6,13H46.621V5.6H48.6ZM46.5,3.689a.973.973,0,0,1,.3-.731,1.281,1.281,0,0,1,1.617,0,.967.967,0,0,1,.3.731.97.97,0,0,1-.3.738,1.267,1.267,0,0,1-1.606,0A.97.97,0,0,1,46.5,3.689Zm3.418,5.558A4.457,4.457,0,0,1,50.7,6.492a2.517,2.517,0,0,1,2.123-1.025,2.265,2.265,0,0,1,1.784.807V2.5h1.982V13H54.8l-.1-.786a2.325,2.325,0,0,1-1.9.923,2.511,2.511,0,0,1-2.1-1.029A4.6,4.6,0,0,1,49.923,9.247Zm1.976.147a2.92,2.92,0,0,0,.362,1.6,1.18,1.18,0,0,0,1.053.555,1.322,1.322,0,0,0,1.292-.774V7.847a1.3,1.3,0,0,0-1.278-.774Q51.9,7.073,51.9,9.394Zm5.913-.161a4.387,4.387,0,0,1,.424-1.962,3.1,3.1,0,0,1,1.22-1.333A3.56,3.56,0,0,1,61.3,5.467a3.368,3.368,0,0,1,2.444.916A3.676,3.676,0,0,1,64.8,8.871l.014.506a3.866,3.866,0,0,1-.95,2.731,3.683,3.683,0,0,1-5.1,0,3.934,3.934,0,0,1-.954-2.789Zm1.976.14a2.765,2.765,0,0,0,.4,1.612,1.424,1.424,0,0,0,2.256.007,3.025,3.025,0,0,0,.4-1.763,2.737,2.737,0,0,0-.4-1.6A1.311,1.311,0,0,0,61.3,7.06a1.29,1.29,0,0,0-1.121.565A3.076,3.076,0,0,0,59.787,9.374ZM20.005,27.956a.637.637,0,0,0-.359-.571,4.077,4.077,0,0,0-1.152-.373q-2.639-.554-2.639-2.242a2.032,2.032,0,0,1,.817-1.644,3.3,3.3,0,0,1,2.136-.66,3.547,3.547,0,0,1,2.252.663,2.09,2.09,0,0,1,.844,1.723H19.93a.956.956,0,0,0-.273-.7,1.157,1.157,0,0,0-.854-.277,1.182,1.182,0,0,0-.772.226.712.712,0,0,0-.273.574.609.609,0,0,0,.311.53,3.2,3.2,0,0,0,1.049.349,8.571,8.571,0,0,1,1.244.332,2.044,2.044,0,0,1,1.565,1.989,1.929,1.929,0,0,1-.868,1.637,3.745,3.745,0,0,1-2.242.625,3.912,3.912,0,0,1-1.651-.332,2.77,2.77,0,0,1-1.131-.909,2.113,2.113,0,0,1-.41-1.248H17.5a1.031,1.031,0,0,0,.39.807,1.546,1.546,0,0,0,.971.28,1.43,1.43,0,0,0,.858-.215A.67.67,0,0,0,20.005,27.956Zm2.885-1.723a4.387,4.387,0,0,1,.424-1.962,3.1,3.1,0,0,1,1.22-1.333,3.56,3.56,0,0,1,1.849-.472,3.368,3.368,0,0,1,2.444.916,3.676,3.676,0,0,1,1.056,2.488l.014.506a3.866,3.866,0,0,1-.95,2.731,3.3,3.3,0,0,1-2.55,1.029,3.319,3.319,0,0,1-2.553-1.025,3.934,3.934,0,0,1-.954-2.789Zm1.976.14a2.765,2.765,0,0,0,.4,1.612,1.424,1.424,0,0,0,2.256.007,3.025,3.025,0,0,0,.4-1.763,2.737,2.737,0,0,0-.4-1.6,1.311,1.311,0,0,0-1.135-.568,1.29,1.29,0,0,0-1.121.565A3.076,3.076,0,0,0,24.866,26.374ZM33.2,30H31.216V19.5H33.2Zm4.4-2.413L38.968,22.6h2.064l-2.5,7.4H36.651l-2.5-7.4H36.22Zm7.622,2.55a3.631,3.631,0,0,1-2.649-1,3.548,3.548,0,0,1-1.022-2.659v-.191a4.468,4.468,0,0,1,.431-1.993,3.161,3.161,0,0,1,1.22-1.354,3.425,3.425,0,0,1,1.8-.475,3.07,3.07,0,0,1,2.389.957,3.889,3.889,0,0,1,.872,2.714v.807h-4.71a1.835,1.835,0,0,0,.578,1.162,1.746,1.746,0,0,0,1.22.438,2.132,2.132,0,0,0,1.784-.827L48.1,28.8a2.966,2.966,0,0,1-1.2.981A3.947,3.947,0,0,1,45.216,30.137Zm-.226-6.077a1.234,1.234,0,0,0-.954.4,2.062,2.062,0,0,0-.468,1.14h2.748V25.44a1.471,1.471,0,0,0-.355-1.02A1.274,1.274,0,0,0,44.991,24.06ZM51.2,22.6l.062.854a2.582,2.582,0,0,1,2.126-.991,2.146,2.146,0,0,1,1.75.69,3.221,3.221,0,0,1,.588,2.064V30H53.748V25.27a1.282,1.282,0,0,0-.273-.913,1.224,1.224,0,0,0-.909-.284,1.359,1.359,0,0,0-1.251.711V30H49.338V22.6Zm8.388-1.818V22.6H60.85v1.449H59.585v3.691a.881.881,0,0,0,.157.588.79.79,0,0,0,.6.178,3.151,3.151,0,0,0,.581-.048v1.5a4.067,4.067,0,0,1-1.2.178,1.886,1.886,0,0,1-2.119-2.1V24.053H56.53V22.6h1.08V20.785Zm5.77,9.352a3.631,3.631,0,0,1-2.649-1,3.548,3.548,0,0,1-1.022-2.659v-.191a4.468,4.468,0,0,1,.431-1.993,3.161,3.161,0,0,1,1.22-1.354,3.425,3.425,0,0,1,1.8-.475,3.07,3.07,0,0,1,2.389.957,3.889,3.889,0,0,1,.872,2.714v.807h-4.71a1.835,1.835,0,0,0,.578,1.162,1.746,1.746,0,0,0,1.22.438,2.132,2.132,0,0,0,1.784-.827L68.24,28.8a2.966,2.966,0,0,1-1.2.981A3.947,3.947,0,0,1,65.355,30.137Zm-.226-6.077a1.234,1.234,0,0,0-.954.4,2.062,2.062,0,0,0-.468,1.14h2.748V25.44a1.471,1.471,0,0,0-.355-1.02A1.274,1.274,0,0,0,65.129,24.06Z" transform="translate(516 -3948)" fill="#12263f"/>
    <path id="Trazado_721500" data-name="Trazado 721500" d="M9.288,9.685A3.522,3.522,0,0,1,8.1,12.214a4.165,4.165,0,0,1-2.82.923,3.745,3.745,0,0,1-3.011-1.289,5.284,5.284,0,0,1-1.1-3.538V7.7a5.966,5.966,0,0,1,.506-2.529A3.791,3.791,0,0,1,3.125,3.495,4.05,4.05,0,0,1,5.309,2.91a4.058,4.058,0,0,1,2.775.923A3.785,3.785,0,0,1,9.3,6.424H7.25a2.079,2.079,0,0,0-.537-1.4,1.987,1.987,0,0,0-1.4-.434,1.742,1.742,0,0,0-1.535.735,4.118,4.118,0,0,0-.523,2.28v.752a4.408,4.408,0,0,0,.489,2.358,1.71,1.71,0,0,0,1.542.745A2.025,2.025,0,0,0,6.7,11.028a1.961,1.961,0,0,0,.537-1.343Zm.909-.451a4.387,4.387,0,0,1,.424-1.962,3.1,3.1,0,0,1,1.22-1.333,3.56,3.56,0,0,1,1.849-.472,3.368,3.368,0,0,1,2.444.916A3.676,3.676,0,0,1,17.19,8.871l.014.506a3.866,3.866,0,0,1-.95,2.731,3.3,3.3,0,0,1-2.55,1.029,3.319,3.319,0,0,1-2.553-1.025A3.934,3.934,0,0,1,10.2,9.322Zm1.976.14a2.765,2.765,0,0,0,.4,1.612,1.424,1.424,0,0,0,2.256.007,3.025,3.025,0,0,0,.4-1.763,2.737,2.737,0,0,0-.4-1.6A1.311,1.311,0,0,0,13.69,7.06a1.29,1.29,0,0,0-1.121.565A3.076,3.076,0,0,0,12.172,9.374ZM20.239,5.6l.062.854a2.582,2.582,0,0,1,2.126-.991,2.146,2.146,0,0,1,1.75.69,3.221,3.221,0,0,1,.588,2.064V13H22.789V8.27a1.282,1.282,0,0,0-.273-.913,1.224,1.224,0,0,0-.909-.284,1.359,1.359,0,0,0-1.251.711V13H18.379V5.6Zm5.715,3.644a4.457,4.457,0,0,1,.776-2.755,2.517,2.517,0,0,1,2.123-1.025,2.265,2.265,0,0,1,1.784.807V2.5h1.982V13H30.834l-.1-.786a2.325,2.325,0,0,1-1.9.923,2.511,2.511,0,0,1-2.1-1.029A4.6,4.6,0,0,1,25.954,9.247Zm1.976.147a2.92,2.92,0,0,0,.362,1.6,1.18,1.18,0,0,0,1.053.555,1.322,1.322,0,0,0,1.292-.774V7.847a1.3,1.3,0,0,0-1.278-.774Q27.929,7.073,27.929,9.394Zm9.625,3.743a3.631,3.631,0,0,1-2.649-1,3.548,3.548,0,0,1-1.022-2.659V9.288A4.468,4.468,0,0,1,34.314,7.3a3.161,3.161,0,0,1,1.22-1.354,3.425,3.425,0,0,1,1.8-.475,3.07,3.07,0,0,1,2.389.957A3.889,3.889,0,0,1,40.6,9.138v.807h-4.71a1.835,1.835,0,0,0,.578,1.162,1.746,1.746,0,0,0,1.22.438,2.132,2.132,0,0,0,1.784-.827l.971,1.087a2.966,2.966,0,0,1-1.2.981A3.947,3.947,0,0,1,37.554,13.137ZM37.329,7.06a1.234,1.234,0,0,0-.954.4,2.062,2.062,0,0,0-.468,1.14h2.748V8.44A1.471,1.471,0,0,0,38.3,7.42,1.274,1.274,0,0,0,37.329,7.06ZM43.536,5.6l.062.854a2.582,2.582,0,0,1,2.126-.991,2.146,2.146,0,0,1,1.75.69,3.221,3.221,0,0,1,.588,2.064V13H46.085V8.27a1.282,1.282,0,0,0-.273-.913,1.224,1.224,0,0,0-.909-.284,1.359,1.359,0,0,0-1.251.711V13H41.676V5.6Zm10.028,5.353a.637.637,0,0,0-.359-.571,4.077,4.077,0,0,0-1.152-.373q-2.639-.554-2.639-2.242a2.032,2.032,0,0,1,.817-1.644,3.3,3.3,0,0,1,2.136-.66,3.547,3.547,0,0,1,2.252.663,2.09,2.09,0,0,1,.844,1.723H53.489a.956.956,0,0,0-.273-.7,1.157,1.157,0,0,0-.854-.277,1.182,1.182,0,0,0-.772.226.712.712,0,0,0-.273.574.609.609,0,0,0,.311.53,3.2,3.2,0,0,0,1.049.349,8.571,8.571,0,0,1,1.244.332,2.044,2.044,0,0,1,1.565,1.989,1.929,1.929,0,0,1-.868,1.637,3.745,3.745,0,0,1-2.242.625,3.912,3.912,0,0,1-1.651-.332,2.77,2.77,0,0,1-1.131-.909,2.113,2.113,0,0,1-.41-1.248h1.873a1.031,1.031,0,0,0,.39.807,1.546,1.546,0,0,0,.971.28,1.43,1.43,0,0,0,.858-.215A.67.67,0,0,0,53.564,10.956ZM61.042,13a2.194,2.194,0,0,1-.2-.663,2.39,2.39,0,0,1-1.866.8,2.626,2.626,0,0,1-1.8-.629,2.023,2.023,0,0,1-.714-1.586,2.09,2.09,0,0,1,.872-1.8,4.3,4.3,0,0,1,2.519-.636h.909V8.058a1.219,1.219,0,0,0-.263-.82,1.035,1.035,0,0,0-.831-.308,1.177,1.177,0,0,0-.783.239.813.813,0,0,0-.284.656H56.626a1.984,1.984,0,0,1,.4-1.189,2.621,2.621,0,0,1,1.121-.858,4.086,4.086,0,0,1,1.627-.311,3.228,3.228,0,0,1,2.17.687,2.4,2.4,0,0,1,.8,1.931v3.206a3.536,3.536,0,0,0,.294,1.593V13Zm-1.634-1.374a1.7,1.7,0,0,0,.807-.195,1.28,1.28,0,0,0,.547-.523V9.637h-.738q-1.483,0-1.579,1.025l-.007.116a.791.791,0,0,0,.26.608A1.009,1.009,0,0,0,59.409,11.626Zm4.546-2.379a4.457,4.457,0,0,1,.776-2.755,2.517,2.517,0,0,1,2.123-1.025,2.265,2.265,0,0,1,1.784.807V2.5H70.62V13H68.835l-.1-.786a2.325,2.325,0,0,1-1.9.923,2.511,2.511,0,0,1-2.1-1.029A4.6,4.6,0,0,1,63.955,9.247Zm1.976.147a2.92,2.92,0,0,0,.362,1.6,1.18,1.18,0,0,0,1.053.555,1.322,1.322,0,0,0,1.292-.774V7.847a1.3,1.3,0,0,0-1.278-.774Q65.93,7.073,65.93,9.394Zm5.913-.161a4.387,4.387,0,0,1,.424-1.962,3.1,3.1,0,0,1,1.22-1.333,3.56,3.56,0,0,1,1.849-.472,3.368,3.368,0,0,1,2.444.916,3.676,3.676,0,0,1,1.056,2.488l.014.506a3.866,3.866,0,0,1-.95,2.731,3.683,3.683,0,0,1-5.1,0,3.934,3.934,0,0,1-.954-2.789Zm1.976.14a2.765,2.765,0,0,0,.4,1.612,1.424,1.424,0,0,0,2.256.007,3.025,3.025,0,0,0,.4-1.763,2.737,2.737,0,0,0-.4-1.6,1.311,1.311,0,0,0-1.135-.568,1.29,1.29,0,0,0-1.121.565A3.076,3.076,0,0,0,73.819,9.374Zm10.4-1.918a5.367,5.367,0,0,0-.711-.055,1.447,1.447,0,0,0-1.47.759V13H80.067V5.6h1.866l.055.882a1.831,1.831,0,0,1,1.647-1.019,2.07,2.07,0,0,1,.615.089Z" transform="translate(512 -4418)" fill="#12263f"/>
    <path id="Trazado_721501" data-name="Trazado 721501" d="M0,0H140V26H0Z" transform="translate(447 -4033)" fill="#4cebff"/>
    <path id="Trazado_721502" data-name="Trazado 721502" d="M15.04,9.685a3.522,3.522,0,0,1-1.186,2.529,4.165,4.165,0,0,1-2.82.923,3.745,3.745,0,0,1-3.011-1.289,5.284,5.284,0,0,1-1.1-3.538V7.7a5.966,5.966,0,0,1,.506-2.529A3.791,3.791,0,0,1,8.877,3.495a4.05,4.05,0,0,1,2.184-.584,4.058,4.058,0,0,1,2.775.923,3.785,3.785,0,0,1,1.217,2.591H13a2.079,2.079,0,0,0-.537-1.4,1.987,1.987,0,0,0-1.4-.434,1.742,1.742,0,0,0-1.535.735A4.118,4.118,0,0,0,9,7.606v.752a4.408,4.408,0,0,0,.489,2.358,1.71,1.71,0,0,0,1.542.745,2.025,2.025,0,0,0,1.418-.434,1.961,1.961,0,0,0,.537-1.343ZM20.542,13a2.194,2.194,0,0,1-.2-.663,2.39,2.39,0,0,1-1.866.8,2.626,2.626,0,0,1-1.8-.629,2.023,2.023,0,0,1-.714-1.586,2.09,2.09,0,0,1,.872-1.8,4.3,4.3,0,0,1,2.519-.636h.909V8.058A1.219,1.219,0,0,0,20,7.237a1.035,1.035,0,0,0-.831-.308,1.177,1.177,0,0,0-.783.239.813.813,0,0,0-.284.656H16.126a1.984,1.984,0,0,1,.4-1.189,2.621,2.621,0,0,1,1.121-.858,4.086,4.086,0,0,1,1.627-.311,3.228,3.228,0,0,1,2.17.687,2.4,2.4,0,0,1,.8,1.931v3.206a3.536,3.536,0,0,0,.294,1.593V13Zm-1.634-1.374a1.7,1.7,0,0,0,.807-.195,1.28,1.28,0,0,0,.547-.523V9.637h-.738q-1.483,0-1.579,1.025l-.007.116a.791.791,0,0,0,.26.608A1.009,1.009,0,0,0,18.909,11.626ZM25.615,5.6l.062.827A2.6,2.6,0,0,1,27.8,5.467a1.973,1.973,0,0,1,1.962,1.128,2.54,2.54,0,0,1,2.222-1.128,2.206,2.206,0,0,1,1.791.7,3.221,3.221,0,0,1,.588,2.109V13H32.382V8.283a1.408,1.408,0,0,0-.246-.919,1.091,1.091,0,0,0-.868-.291,1.233,1.233,0,0,0-1.23.848L30.044,13H28.069V8.29a1.391,1.391,0,0,0-.253-.93,1.1,1.1,0,0,0-.861-.287,1.28,1.28,0,0,0-1.217.7V13H23.762V5.6ZM37.967,13H35.985V5.6h1.982Zm-2.1-9.311a.973.973,0,0,1,.3-.731,1.281,1.281,0,0,1,1.617,0,.967.967,0,0,1,.3.731.97.97,0,0,1-.3.738,1.267,1.267,0,0,1-1.606,0A.97.97,0,0,1,35.869,3.689ZM41.413,5.6l.062.854A2.582,2.582,0,0,1,43.6,5.467a2.146,2.146,0,0,1,1.75.69,3.221,3.221,0,0,1,.588,2.064V13H43.962V8.27a1.282,1.282,0,0,0-.273-.913,1.224,1.224,0,0,0-.909-.284,1.359,1.359,0,0,0-1.251.711V13H39.553V5.6Zm5.715,3.63a4.387,4.387,0,0,1,.424-1.962,3.1,3.1,0,0,1,1.22-1.333,3.56,3.56,0,0,1,1.849-.472,3.368,3.368,0,0,1,2.444.916,3.676,3.676,0,0,1,1.056,2.488l.014.506a3.866,3.866,0,0,1-.95,2.731,3.683,3.683,0,0,1-5.1,0,3.934,3.934,0,0,1-.954-2.789Zm1.976.14a2.765,2.765,0,0,0,.4,1.612,1.424,1.424,0,0,0,2.256.007,3.025,3.025,0,0,0,.4-1.763,2.737,2.737,0,0,0-.4-1.6,1.311,1.311,0,0,0-1.135-.568,1.29,1.29,0,0,0-1.121.565A3.076,3.076,0,0,0,49.1,9.374Zm9.427-.127a4.457,4.457,0,0,1,.776-2.755,2.517,2.517,0,0,1,2.123-1.025,2.265,2.265,0,0,1,1.784.807V2.5h1.982V13H63.411l-.1-.786a2.325,2.325,0,0,1-1.9.923,2.511,2.511,0,0,1-2.1-1.029A4.6,4.6,0,0,1,58.53,9.247Zm1.976.147a2.92,2.92,0,0,0,.362,1.6,1.18,1.18,0,0,0,1.053.555,1.322,1.322,0,0,0,1.292-.774V7.847a1.3,1.3,0,0,0-1.278-.774Q60.505,7.073,60.505,9.394Zm9.625,3.743a3.631,3.631,0,0,1-2.649-1,3.548,3.548,0,0,1-1.022-2.659V9.288A4.468,4.468,0,0,1,66.89,7.3a3.161,3.161,0,0,1,1.22-1.354,3.425,3.425,0,0,1,1.8-.475,3.07,3.07,0,0,1,2.389.957,3.889,3.889,0,0,1,.872,2.714v.807h-4.71a1.835,1.835,0,0,0,.578,1.162,1.746,1.746,0,0,0,1.22.438,2.132,2.132,0,0,0,1.784-.827l.971,1.087a2.966,2.966,0,0,1-1.2.981A3.947,3.947,0,0,1,70.13,13.137ZM69.9,7.06a1.234,1.234,0,0,0-.954.4,2.062,2.062,0,0,0-.468,1.14h2.748V8.44a1.471,1.471,0,0,0-.355-1.02A1.274,1.274,0,0,0,69.9,7.06ZM76.378,13H74.4V2.5h1.982ZM86.448,4.031a9.508,9.508,0,0,0-1.094-.068q-1.34,0-1.34,1.142v.5h1.47V7.053h-1.47V13H82.032V7.053h-1.1V5.6h1.1V5.029a2.527,2.527,0,0,1,.807-1.979,3.3,3.3,0,0,1,2.242-.694q1.032,0,3.35.219V13H86.448ZM94.5,12.248a2.477,2.477,0,0,1-2.023.889,2.337,2.337,0,0,1-1.815-.684,2.918,2.918,0,0,1-.639-2V5.6H92v4.784q0,1.157,1.053,1.157a1.426,1.426,0,0,0,1.381-.7V5.6h1.982V13H94.555ZM99.99,13H98.007V5.6H99.99Zm-2.1-9.311a.973.973,0,0,1,.3-.731,1.281,1.281,0,0,1,1.617,0,.967.967,0,0,1,.3.731.97.97,0,0,1-.3.738,1.267,1.267,0,0,1-1.606,0A.97.97,0,0,1,97.891,3.689Zm3.418,5.558a4.457,4.457,0,0,1,.776-2.755,2.517,2.517,0,0,1,2.123-1.025,2.265,2.265,0,0,1,1.784.807V2.5h1.982V13H106.19l-.1-.786a2.325,2.325,0,0,1-1.9.923,2.511,2.511,0,0,1-2.1-1.029A4.6,4.6,0,0,1,101.309,9.247Zm1.976.147a2.92,2.92,0,0,0,.362,1.6,1.18,1.18,0,0,0,1.053.555,1.322,1.322,0,0,0,1.292-.774V7.847a1.3,1.3,0,0,0-1.278-.774Q103.285,7.073,103.285,9.394Zm5.913-.161a4.387,4.387,0,0,1,.424-1.962,3.1,3.1,0,0,1,1.22-1.333,3.56,3.56,0,0,1,1.849-.472,3.368,3.368,0,0,1,2.444.916,3.676,3.676,0,0,1,1.056,2.488l.014.506a3.866,3.866,0,0,1-.95,2.731,3.683,3.683,0,0,1-5.1,0,3.934,3.934,0,0,1-.954-2.789Zm1.976.14a2.765,2.765,0,0,0,.4,1.612,1.424,1.424,0,0,0,2.256.007,3.025,3.025,0,0,0,.4-1.763,2.737,2.737,0,0,0-.4-1.6,1.311,1.311,0,0,0-1.135-.568,1.29,1.29,0,0,0-1.121.565A3.076,3.076,0,0,0,111.173,9.374Z" transform="translate(456 -4028)" fill="#12263f"/>
    <g id="Grupo_1008614" data-name="Grupo 1008614" transform="translate(447 -3980)">
      <g id="Grupo_1008613" data-name="Grupo 1008613" clip-path="url(#clip-path-9)">
        <line id="Línea_3090" data-name="Línea 3090" x2="2.5" transform="translate(0 3.703)" fill="none" stroke="#ff9d00" stroke-miterlimit="10" stroke-width="1"/>
      </g>
    </g>
    <path id="Trazado_721503" data-name="Trazado 721503" d="M0,0H59.168" transform="translate(452.34 -3976.296)" fill="none" stroke="#ff9d00" stroke-width="1" stroke-dasharray="4.733 2.84"/>
    <path id="Trazado_721504" data-name="Trazado 721504" d="M0,0H2.5" transform="translate(512.928 -3976.296)" fill="none" stroke="#ff9d00" stroke-width="1"/>
    <path id="Trazado_720958" data-name="Trazado 720958" d="M67.192,3.7l-1.573,3.7L74.4,3.7,65.619,0Z" transform="translate(447 -3980)" fill="#ff9d00"/>
    <g id="Grupo_1008616" data-name="Grupo 1008616" transform="translate(447 -3980)">
      <g id="Grupo_1008615" data-name="Grupo 1008615" clip-path="url(#clip-path-9)">
        <line id="Línea_3093" data-name="Línea 3093" x2="68.428" transform="translate(0 39.359)" fill="none" stroke="#00bcd4" stroke-miterlimit="10" stroke-width="1"/>
      </g>
    </g>
    <path id="Trazado_720959" data-name="Trazado 720959" d="M67.192,39.359l-1.573,3.7,8.778-3.7-8.778-3.7Z" transform="translate(447 -3980)" fill="#00bcd4"/>
  </g>
</svg>
