<svg xmlns="http://www.w3.org/2000/svg" width="90" height="90" viewBox="0 0 90 90">
  <g id="Grupo_1008792" data-name="Grupo 1008792" transform="translate(-1220 -4779)">
    <rect id="Rectángulo_350967" data-name="Rectángulo 350967" width="90" height="90" transform="translate(1220 4779)" fill="none"/>
    <g id="_041-biotechnology" data-name="041-biotechnology" transform="translate(1229 4788)">
      <g id="Grupo_1008723" data-name="Grupo 1008723" transform="translate(1.228 1.063)">
        <g id="Grupo_1008711" data-name="Grupo 1008711" transform="translate(0 12.684)">
          <path id="Trazado_721002" data-name="Trazado 721002" d="M17.526,168.961H11.643l-2.942,5.1,2.942,5.1h5.883l2.942-5.1Z" transform="translate(-8.701 -158.771)" fill="#2ec2f1"/>
          <path id="Trazado_721003" data-name="Trazado 721003" d="M17.526,97.033H11.643l-2.942,5.1,2.942,5.1h5.883l2.942-5.1Z" transform="translate(-8.701 -97.033)" fill="#2ec2f1"/>
          <path id="Trazado_721004" data-name="Trazado 721004" d="M79.819,133H73.936l-2.942,5.1,2.942,5.1h5.883l2.942-5.1Z" transform="translate(-62.169 -127.902)" fill="#2ec2f1"/>
          <path id="Trazado_721005" data-name="Trazado 721005" d="M423.251,168.961h5.883l2.942,5.1-2.942,5.1h-5.883l-2.942-5.1Z" transform="translate(-361.996 -158.771)" fill="#2ec2f1"/>
          <path id="Trazado_721006" data-name="Trazado 721006" d="M423.251,97.033h5.883l2.942,5.1-2.942,5.1h-5.883l-2.942-5.1Z" transform="translate(-361.996 -97.033)" fill="#2ec2f1"/>
          <path id="Trazado_721007" data-name="Trazado 721007" d="M360.958,133h5.883l2.942,5.1-2.942,5.1h-5.883l-2.942-5.1Z" transform="translate(-308.528 -127.902)" fill="#2ec2f1"/>
        </g>
        <g id="Grupo_1008717" data-name="Grupo 1008717" transform="translate(15.757)">
          <g id="Grupo_1008716" data-name="Grupo 1008716">
            <g id="Grupo_1008715" data-name="Grupo 1008715">
              <g id="Grupo_1008714" data-name="Grupo 1008714">
                <g id="Grupo_1008713" data-name="Grupo 1008713">
                  <g id="Grupo_1008712" data-name="Grupo 1008712">
                    <path id="Trazado_721008" data-name="Trazado 721008" d="M205.162,7.5v9.273H200.5v10.5h-10.77v-10.5h-4.665V7.5Z" transform="translate(-175.834 -7.504)" fill="#e3edf6"/>
                    <path id="Trazado_721009" data-name="Trazado 721009" d="M205.162,13.156v3.621H193.79v10.5h-4.063v-10.5h-4.665V7.5h4.031v5.653Z" transform="translate(-175.834 -7.504)" fill="#c5d9ec"/>
                    <path id="Trazado_721010" data-name="Trazado 721010" d="M158.479,178.436a19.278,19.278,0,1,1-25.339-18.3c.224-.074.448-.145.675-.21V147.078h10.77v12.844A19.285,19.285,0,0,1,158.479,178.436Z" transform="translate(-119.923 -127.305)" fill="#4cebff"/>
                    <path id="Trazado_721011" data-name="Trazado 721011" d="M141.233,197.607a19.281,19.281,0,0,1-8.092-37.476c.224-.074.448-.145.675-.21V147.078h4.063v12.844c-.228.065-.452.135-.675.21a19.281,19.281,0,0,0,4.029,37.476Z" transform="translate(-119.923 -127.305)" fill="#00bcd4"/>
                  </g>
                </g>
              </g>
            </g>
          </g>
        </g>
        <g id="Grupo_1008722" data-name="Grupo 1008722" transform="translate(29.359 40.746)">
          <g id="Grupo_1008721" data-name="Grupo 1008721">
            <g id="Grupo_1008720" data-name="Grupo 1008720">
              <g id="Grupo_1008719" data-name="Grupo 1008719">
                <g id="Grupo_1008718" data-name="Grupo 1008718">
                  <path id="Trazado_721012" data-name="Trazado 721012" d="M223.347,296.3a13.148,13.148,0,0,0-1.735-1.184,13.165,13.165,0,0,0-1.735,1.184,9.921,9.921,0,0,0-3.941,7.69c0,3.663,2.242,6.9,5.676,8.874,3.434-1.97,5.676-5.211,5.676-8.874A9.921,9.921,0,0,0,223.347,296.3Z" transform="translate(-215.936 -295.119)" fill="#c3f839"/>
                  <path id="Trazado_721013" data-name="Trazado 721013" d="M218.578,306.258c0,3.663,2.241,6.9,5.675,8.873a13.276,13.276,0,0,0,1.242-.806,12.183,12.183,0,0,1-3.879,3.442c-3.434-1.97-5.676-5.21-5.675-8.873a9.915,9.915,0,0,1,3.94-7.69c.159-.128.322-.254.488-.374A9.286,9.286,0,0,0,218.578,306.258Z" transform="translate(-215.94 -300.021)" fill="#54e072"/>
                </g>
              </g>
            </g>
          </g>
        </g>
        <path id="Trazado_721014" data-name="Trazado 721014" d="M12.242,174.056l2.941,5.094H11.641L8.7,174.056l2.941-5.1h3.542Z" transform="translate(-8.7 -146.086)" fill="#00adeb"/>
        <path id="Trazado_721015" data-name="Trazado 721015" d="M12.242,102.126l2.941,5.094H11.641L8.7,102.126l2.941-5.1h3.542Z" transform="translate(-8.7 -84.347)" fill="#00adeb"/>
        <path id="Trazado_721016" data-name="Trazado 721016" d="M74.532,138.094l2.942,5.1H73.932l-2.942-5.1L73.932,133h3.542Z" transform="translate(-62.165 -115.221)" fill="#00adeb"/>
        <path id="Trazado_721017" data-name="Trazado 721017" d="M423.852,174.056l2.941,5.094h-3.542l-2.941-5.094,2.941-5.1h3.542Z" transform="translate(-361.997 -146.086)" fill="#00adeb"/>
        <path id="Trazado_721018" data-name="Trazado 721018" d="M423.852,102.126l2.941,5.094h-3.542l-2.941-5.094,2.941-5.1h3.542Z" transform="translate(-361.997 -84.347)" fill="#00adeb"/>
        <path id="Trazado_721019" data-name="Trazado 721019" d="M361.562,138.094l2.941,5.1h-3.542l-2.941-5.1L360.961,133H364.5Z" transform="translate(-308.532 -115.221)" fill="#00adeb"/>
      </g>
      <g id="Grupo_1008736" data-name="Grupo 1008736" transform="translate(0 0)">
        <g id="Grupo_1008734" data-name="Grupo 1008734" transform="translate(44.333 41.555)">
          <g id="Grupo_1008728" data-name="Grupo 1008728" transform="translate(2.129 4.49)">
            <g id="Grupo_1008727" data-name="Grupo 1008727">
              <g id="Grupo_1008726" data-name="Grupo 1008726">
                <g id="Grupo_1008725" data-name="Grupo 1008725">
                  <g id="Grupo_1008724" data-name="Grupo 1008724">
                    <path id="Trazado_721020" data-name="Trazado 721020" d="M327.991,325.012h2.129v2.125h-2.129Z" transform="translate(-327.991 -325.012)" fill="#fff"/>
                  </g>
                </g>
              </g>
            </g>
          </g>
          <g id="Grupo_1008733" data-name="Grupo 1008733">
            <g id="Grupo_1008732" data-name="Grupo 1008732">
              <g id="Grupo_1008731" data-name="Grupo 1008731">
                <g id="Grupo_1008730" data-name="Grupo 1008730">
                  <g id="Grupo_1008729" data-name="Grupo 1008729">
                    <path id="Trazado_721021" data-name="Trazado 721021" d="M312.966,293.321h2.129v2.125h-2.129Z" transform="translate(-312.966 -293.321)" fill="#fff"/>
                  </g>
                </g>
              </g>
            </g>
          </g>
        </g>
        <g id="Grupo_1008735" data-name="Grupo 1008735">
          <path id="Trazado_721022" data-name="Trazado 721022" d="M334.376,459.83l1.3,1.683a20.51,20.51,0,0,0,2.162-1.925l-1.522-1.483A18.363,18.363,0,0,1,334.376,459.83Z" transform="translate(-287.01 -393.205)"/>
          <path id="Trazado_721023" data-name="Trazado 721023" d="M136.6,295.974l0,.012a18.226,18.226,0,0,1-16.258-31.153l-1.448-1.555a20.34,20.34,0,0,0,23.785,32.643l-1.04-1.853A18.056,18.056,0,0,1,136.6,295.974Z" transform="translate(-96.492 -225.979)"/>
          <path id="Trazado_721024" data-name="Trazado 721024" d="M216.211,310.178v-4.162c7.725-4.879,7.568-14.63-.535-19.266l-.528-.3a16.44,16.44,0,0,0-2.4,1.581c-6.352,5.133-5.569,13.623,1.34,17.986v4.162h2.125Zm-1.063-21.264a11.938,11.938,0,0,1,1.067.768h0c4.768,3.854,4.685,9.929,0,13.726v-8.037h-2.125v8.037C208.983,299.276,209.423,292.58,215.148,288.914Z" transform="translate(-178.89 -245.867)"/>
          <path id="Trazado_721025" data-name="Trazado 721025" d="M72.56,18.84,69,12.683H61.9l-2.941,5.094H53.071L50.13,22.872H42.739V11.4H47.4V0H25.181V11.4h4.664V22.872H22.464l-2.941-5.094H13.639L10.7,12.683H3.589L.034,18.84l2.941,5.094L.034,29.029l3.555,6.157H10.7l2.941-5.095h5.883L22.464,25h7.381v7.9a20.28,20.28,0,0,0-5.2,2.619l1.218,1.741a18.153,18.153,0,0,1,4.7-2.36c.225-.074.433-.139.635-.2l.771-.22V21.9h8.645V34.474l.766.222A18.253,18.253,0,0,1,50.989,62.95L52.7,64.206A20.353,20.353,0,0,0,42.739,32.9V25H50.13l2.941,5.094h5.883L61.9,35.186H69l3.555-6.157-2.941-5.094ZM4.816,14.808H9.471L11.8,18.84,9.471,22.872H4.816L2.488,18.84ZM9.471,33.061H4.816L2.488,29.029,4.816,25H9.471L11.8,29.029ZM18.3,27.966H13.64l-2.328-4.032L13.64,19.9H18.3l2.328,4.032ZM27.306,9.273V2.125H45.278V9.273H27.306Zm4.664,10.5V11.4h8.645v8.374Zm31.152-4.964h4.656l2.328,4.032-2.328,4.032H63.122L60.794,18.84ZM51.97,23.934,54.3,19.9h4.656l2.328,4.032-2.328,4.032H54.3Zm15.808,9.127H63.122l-2.328-4.032L63.122,25h4.656l2.328,4.032Z" transform="translate(-0.034 0)"/>
        </g>
      </g>
    </g>
  </g>
</svg>
